0
SECTION
2
HEADER
9
$INSUNITS
70
4
9
$ACADVER
1
AC1014
9
$HANDSEED
5
FFFF
0
ENDSEC
0
SECTION
2
TABLES
0
TABLE
2
VPORT
5
8
100
AcDbSymbolTable
0
ENDTAB
0
TABLE
2
LTYPE
5
5
100
AcDbSymbolTable
0
LTYPE
5
14
100
AcDbSymbolTableRecord
100
AcDbLinetypeTableRecord
2
BYBLOCK
70
0
0
LTYPE
5
15
100
AcDbSymbolTableRecord
100
AcDbLinetypeTableRecord
2
BYLAYER
70
0
0
ENDTAB
0
TABLE
2
LAYER
5
2
100
AcDbSymbolTable
70
2
0
LAYER
5
50
100
AcDbSymbolTableRecord
100
AcDbLayerTableRecord
2
0
70
0
6
CONTINUOUS
0
ENDTAB
0
TABLE
2
STYLE
5
3
100
AcDbSymbolTable
70
1
0
STYLE
5
11
100
AcDbSymbolTableRecord
100
AcDbTextStyleTableRecord
2
STANDARD
70
0
0
ENDTAB
0
TABLE
2
VIEW
5
6
100
AcDbSymbolTable
70
0
0
ENDTAB
0
TABLE
2
UCS
5
7
100
AcDbSymbolTable
70
0
0
ENDTAB
0
TABLE
2
APPID
5
9
100
AcDbSymbolTable
70
2
0
APPID
5
12
100
AcDbSymbolTableRecord
100
AcDbRegAppTableRecord
2
ACAD
70
0
0
ENDTAB
0
TABLE
2
DIMSTYLE
5
A
100
AcDbSymbolTable
70
1
0
ENDTAB
0
TABLE
2
BLOCK_RECORD
5
1
100
AcDbSymbolTable
70
1
0
BLOCK_RECORD
5
1F
100
AcDbSymbolTableRecord
100
AcDbBlockTableRecord
2
*MODEL_SPACE
0
BLOCK_RECORD
5
1B
100
AcDbSymbolTableRecord
100
AcDbBlockTableRecord
2
*PAPER_SPACE
0
ENDTAB
0
ENDSEC
0
SECTION
2
BLOCKS
0
BLOCK
5
20
100
AcDbEntity
100
AcDbBlockBegin
2
*MODEL_SPACE
0
ENDBLK
5
21
100
AcDbEntity
100
AcDbBlockEnd
0
BLOCK
5
1C
100
AcDbEntity
100
AcDbBlockBegin
2
*PAPER_SPACE
0
ENDBLK
5
1D
100
AcDbEntity
100
AcDbBlockEnd
0
ENDSEC
0
SECTION
2
ENTITIES
0
SPLINE
5
100
100
AcDbEntity
8
0
100
AcDbSpline
70
2
71
3
72
38
73
34
74
0
42
0.000000001
43
0.0000000001
44
0.0000000001
40
0
40
0
40
0
40
0
40
0.28353046429324158
40
0.28353046429324158
40
0.56706092858648316
40
0.56706092858648316
40
0.85167476507856454
40
0.85167476507856454
40
1.1362886015706459
40
1.1362886015706459
40
1.4194080914614209
40
1.4194080914614209
40
1.7025275813521956
40
1.7025275813521956
40
1.9850622136508207
40
1.9850622136508207
40
2.2675968459494458
40
2.2675968459494458
40
2.550129130510348
40
2.550129130510348
40
2.8326614150712501
40
2.8326614150712501
40
3.1157832531388276
40
3.1157832531388276
40
3.3989050912064047
40
3.3989050912064047
40
3.6842797317877456
40
3.6842797317877456
40
3.9696543723690865
40
3.9696543723690865
40
4.252423547733204
40
4.252423547733204
40
4.5351927230973219
40
4.5351927230973219
40
4.5351927230973219
40
4.5351927230973219
10
7.333692451768739
20
138.05885716173185
30
0
10
7.089082171682664
20
137.14595916839659
30
0
10
6.645501007924544
20
136.22299807131375
30
0
10
5.426722128712318
20
134.63701884887277
30
0
10
4.6516111833754445
20
133.97382713855035
30
0
10
3.0237822824114873
20
133.03399968438384
30
0
10
2.0610256808907246
20
132.69512743621829
30
0
10
0.079126634021553732
20
132.43369539372458
30
0
10
-0.94015952507669154
20
132.51125776414568
30
0
10
-2.7588416387337693
20
132.99857216778901
30
0
10
-3.6798564703489656
20
133.43917556431614
30
0
10
-5.2675780710331797
20
134.65631418922112
30
0
10
-5.9341816139824646
20
135.43288743423932
30
0
10
-6.8767273891913607
20
137.06542460536082
30
0
10
-7.2160149811201224
20
138.02940279940418
30
0
10
-7.4771227295078724
20
140.01241797275688
30
0
10
-7.3989460883671931
20
141.03145117774167
30
0
10
-6.9114458222317126
20
142.85082693966214
30
0
10
-6.4696371961790655
20
143.77241716043505
30
0
10
-5.2520180448005878
20
145.35919630720403
30
0
10
-4.4762066333829589
20
146.02438036365345
30
0
10
-2.8436753206934484
20
146.96693632423134
30
0
10
-1.8780868794247454
20
147.30617394356341
30
0
10
0.10550423363767936
20
147.56639430233184
30
0
10
1.1234365156330826
20
147.48746157768562
30
0
10
2.9445633182167952
20
146.99949212161869
30
0
10
3.8682335795820508
20
146.55540399741233
30
0
10
5.4566156247054201
20
145.33342482084353
30
0
10
6.1215145014751453
20
144.55556743585808
30
0
10
7.0580896057269191
20
142.92582959501397
30
0
10
7.3954362915334091
20
141.96591831224043
30
0
10
7.6552951728094207
20
139.98770836231358
30
0
10
7.577645944942538
20
138.96930399294078
30
0
10
7.333692451768739
20
138.05885716173185
30
0
0
SPLINE
5
101
100
AcDbEntity
8
0
100
AcDbSpline
70
2
71
3
72
38
73
34
74
0
42
0.000000001
43
0.0000000001
44
0.0000000001
40
0
40
0
40
0
40
0
40
0.060639460248281742
40
0.060639460248281742
40
0.12127892049656348
40
0.12127892049656348
40
0.18281191156527951
40
0.18281191156527951
40
0.24434490263399553
40
0.24434490263399553
40
0.30572142758433563
40
0.30572142758433563
40
0.3670979525346757
40
0.3670979525346757
40
0.42763299589984194
40
0.42763299589984194
40
0.48816803926500812
40
0.48816803926500812
40
0.5483520091812355
40
0.5483520091812355
40
0.60853597909746282
40
0.60853597909746282
40
0.6702633076768223
40
0.6702633076768223
40
0.73199063625618177
40
0.73199063625618177
40
0.79395379147530654
40
0.79395379147530654
40
0.8559169466944313
40
0.8559169466944313
40
0.9161257301273138
40
0.9161257301273138
40
0.97633451356019618
40
0.97633451356019618
40
0.97633451356019618
40
0.97633451356019618
10
14.13473007666283
20
152.08588952783663
30
0
10
14.082414586006259
20
151.89064545868314
30
0
10
13.987471477732248
20
151.6934477896317
30
0
10
13.72716268386734
20
151.35513967572558
30
0
10
13.561828012112542
20
151.21399803472687
30
0
10
13.214126517898507
20
151.01325248344452
30
0
10
13.008007606224105
20
150.94112244028867
30
0
10
12.585184738929623
20
150.88586192895343
30
0
10
12.36847294096567
20
150.90271481231593
30
0
10
11.982295235367229
20
151.00619081666596
30
0
10
11.786247188406765
20
151.09975756253897
30
0
10
11.447491917525836
20
151.35899967988817
30
0
10
11.304816229587582
20
151.52470239221688
30
0
10
11.103787566389279
20
151.87289425065438
30
0
10
11.031211939459116
20
152.07801189883799
30
0
10
10.975076727877624
20
152.50116621057427
30
0
10
10.99154202547464
20
152.71920259955817
30
0
10
11.095689957952146
20
153.10788797506692
30
0
10
11.189698956708957
20
153.30394317776185
30
0
10
11.447759238158694
20
153.64108103880002
30
0
10
11.611788768527907
20
153.78217601271479
30
0
10
11.959141769455231
20
153.98472737289575
30
0
10
12.166478876084634
20
154.0579620868794
30
0
10
12.591621923433694
20
154.11430313004183
30
0
10
12.809413966091313
20
154.09744879803549
30
0
10
13.198045447076534
20
153.99331530655223
30
0
10
13.395360403874015
20
153.89865661743448
30
0
10
13.735439530703385
20
153.6367950661654
30
0
10
13.878202523833236
20
153.46957400425029
30
0
10
14.077134793751656
20
153.12076996068697
30
0
10
14.14844194364778
20
152.9169813209015
30
0
10
14.203232763114631
20
152.4964754155011
30
0
10
14.186674009445701
20
152.27974692412755
30
0
10
14.13473007666283
20
152.08588952783663
30
0
0
SPLINE
5
102
100
AcDbEntity
8
0
100
AcDbSpline
70
2
71
3
72
38
73
34
74
0
42
0.000000001
43
0.0000000001
44
0.0000000001
40
0
40
0
40
0
40
0
40
0.060317144462392641
40
0.060317144462392641
40
0.12063428892478528
40
0.12063428892478528
40
0.18112879475481769
40
0.18112879475481769
40
0.24162330058485013
40
0.24162330058485013
40
0.30218751683236739
40
0.30218751683236739
40
0.36275173307988462
40
0.36275173307988462
40
0.42311491143147323
40
0.42311491143147323
40
0.48347808978306184
40
0.48347808978306184
40
0.5437383468411785
40
0.5437383468411785
40
0.60399860389929505
40
0.60399860389929505
40
0.66466571023672305
40
0.66466571023672305
40
0.72533281657415105
40
0.72533281657415105
40
0.78589479649281846
40
0.78589479649281846
40
0.84645677641148576
40
0.84645677641148576
40
0.90670643819372521
40
0.90670643819372521
40
0.96695609997596466
40
0.96695609997596466
40
0.96695609997596466
40
0.96695609997596466
10
-10.865269923337028
20
152.08588952783663
30
0
10
-10.917307342447177
20
151.89168323582251
30
0
10
-11.011644991440177
20
151.6949999718781
30
0
10
-11.271479392851599
20
151.35650404701113
30
0
10
-11.436972559981999
20
151.21469052475044
30
0
10
-11.785040923596103
20
151.01373316132128
30
0
10
-11.990895981844549
20
150.94139951012983
30
0
10
-12.413943442531563
20
150.88584271640576
30
0
10
-12.631130313583236
20
150.90260850469326
30
0
10
-13.01881636656184
20
151.00648866950576
30
0
10
-13.215311348626752
20
151.10064947632691
30
0
10
-13.553806263807747
20
151.36029649943956
30
0
10
-13.695809510425896
20
151.52578620571185
30
0
10
-13.896640397606701
20
151.87363550603828
30
0
10
-13.969073127053516
20
152.07909973127107
30
0
10
-14.024913398339311
20
152.5021580446257
30
0
10
-14.008309701396357
20
152.71975596240901
30
0
10
-13.904244226830462
20
153.10813360080215
30
0
10
-13.810044419790678
20
153.30458585169399
30
0
10
-13.550784658369608
20
153.64267388514642
30
0
10
-13.385732530685807
20
153.78431857875506
30
0
10
-13.038137263984471
20
153.98559493066472
30
0
10
-12.832142822023059
20
154.05822732584252
30
0
10
-12.408538974476613
20
154.11419898688291
30
0
10
-12.190924923918498
20
154.09753960334001
30
0
10
-11.802693285997163
20
153.99351324948282
30
0
10
-11.606027764453234
20
153.89929587071731
30
0
10
-11.267192360436306
20
153.63924619564412
30
0
10
-11.125032819141516
20
153.47340709124038
30
0
10
-10.924366602284659
20
153.12516904155456
30
0
10
-10.85215950282203
20
152.91978602063034
30
0
10
-10.796619791153301
20
152.49714025143393
30
0
10
-10.813290723569672
20
152.27987854230548
30
0
10
-10.865269923337028
20
152.08588952783663
30
0
0
SPLINE
5
103
100
AcDbEntity
8
0
100
AcDbSpline
70
2
71
3
72
38
73
34
74
0
42
0.000000001
43
0.0000000001
44
0.0000000001
40
0
40
0
40
0
40
0
40
0.060993465002762197
40
0.060993465002762197
40
0.12198693000552439
40
0.12198693000552439
40
0.18476829961261837
40
0.18476829961261837
40
0.24754966921971233
40
0.24754966921971233
40
0.31009509406665059
40
0.31009509406665059
40
0.37264051891358885
40
0.37264051891358885
40
0.43347437628626906
40
0.43347437628626906
40
0.49430823365894927
40
0.49430823365894927
40
0.55441311393361792
40
0.55441311393361792
40
0.61451799420828668
40
0.61451799420828668
40
0.6777912157477497
40
0.6777912157477497
40
0.74106443728721261
40
0.74106443728721261
40
0.80469305457941909
40
0.80469305457941909
40
0.86832167187162568
40
0.86832167187162568
40
0.92846592930675342
40
0.92846592930675342
40
0.98861018674188106
40
0.98861018674188106
40
0.98861018674188106
40
0.98861018674188106
10
14.13473007666283
20
127.08588952783607
30
0
10
14.082109175431137
20
126.88950565089932
30
0
10
13.986501550392823
20
126.69174806836472
30
0
10
13.725671281986855
20
126.35364471873659
30
0
10
13.56051032194163
20
126.21323726595151
30
0
10
13.212966988050137
20
126.0125830285741
30
0
10
13.006336992641588
20
125.94069054469456
30
0
10
12.58369019367494
20
125.8858817619661
30
0
10
12.367663178046557
20
125.90293178763552
30
0
10
11.98333693332712
20
126.00591169453821
30
0
10
11.787821281226682
20
126.09886903614381
30
0
10
11.448898119083335
20
126.35761021972388
30
0
10
11.305542480239135
20
126.52344448918937
30
0
10
11.10446319036518
20
126.87172403560129
30
0
10
11.031683685980699
20
127.07623237864952
30
0
10
10.975065460770727
20
127.4994890273841
30
0
10
10.991284229620943
20
127.71824049233388
30
0
10
11.095621724933579
20
128.10763332597512
30
0
10
11.189396572074033
20
128.3031197448127
30
0
10
11.445676171263596
20
128.63878407885952
30
0
10
11.608132596182028
20
128.77899365036012
30
0
10
11.954754128410702
20
128.98323525641382
30
0
10
12.163732958227193
20
129.05736844319443
30
0
10
12.591029144306036
20
129.11445253301721
30
0
10
12.809326021562883
20
129.09747236270096
30
0
10
13.198482286020415
20
128.99319825591007
30
0
10
13.396431295063387
20
128.8982234928398
30
0
10
13.738030294098241
20
128.63440449364069
30
0
10
13.881673609064986
20
128.46552695872623
30
0
10
14.078847023737344
20
128.11576210392275
30
0
10
14.149139527851041
20
127.91372682262589
30
0
10
14.203067191779432
20
127.49562613954194
30
0
10
14.186618340922026
20
127.27953916636795
30
0
10
14.13473007666283
20
127.08588952783607
30
0
0
SPLINE
5
104
100
AcDbEntity
8
0
100
AcDbSpline
70
2
71
3
72
38
73
34
74
0
42
0.000000001
43
0.0000000001
44
0.0000000001
40
0
40
0
40
0
40
0
40
0.060269950874621406
40
0.060269950874621406
40
0.12053990174924281
40
0.12053990174924281
40
0.18081310223129507
40
0.18081310223129507
40
0.24108630271334733
40
0.24108630271334733
40
0.30137090918186055
40
0.30137090918186055
40
0.36165551565037379
40
0.36165551565037379
40
0.42193297699398546
40
0.42193297699398546
40
0.48221043833759708
40
0.48221043833759708
40
0.54248266043483861
40
0.54248266043483861
40
0.60275488253208021
40
0.60275488253208021
40
0.66304472814190674
40
0.66304472814190674
40
0.72333457375173316
40
0.72333457375173316
40
0.78360721580824244
40
0.78360721580824244
40
0.84387985786475173
40
0.84387985786475173
40
0.90415036716033725
40
0.90415036716033725
40
0.96442087645592267
40
0.96442087645592267
40
0.96442087645592267
40
0.96442087645592267
10
-10.86526992333717
20
127.08588952783607
30
0
10
-10.917266627116318
20
126.89183518750617
30
0
10
-11.011510917819683
20
126.69523804045338
30
0
10
-11.271261142376618
20
126.35672505005746
30
0
10
-11.436767082129498
20
126.2148091574434
30
0
10
-11.784744789467398
20
126.01390413443991
30
0
10
-11.990411079611288
20
125.94152950033431
30
0
10
-12.413451760808261
20
125.88584112918598
30
0
10
-12.630825694006159
20
125.902526882123
30
0
10
-13.018934460131174
20
126.00652031258166
30
0
10
-13.21553229509616
20
126.10077124317851
30
0
10
-13.554036159988495
20
126.36052062101868
30
0
10
-13.695943780733607
20
126.52601876870676
30
0
10
-13.896828096743743
20
126.87396061048018
30
0
10
-13.969205542721694
20
127.07960059655603
30
0
10
-14.024910006071828
20
127.50263585280524
30
0
10
-14.008235750749112
20
127.72003194998095
30
0
10
-13.904233904230527
20
128.10817212526925
30
0
10
-13.809987384181973
20
128.3047647509915
30
0
10
-13.550260361644249
20
128.64325283878452
30
0
10
-13.384780547864443
20
128.78514965305135
30
0
10
-13.036851800897175
20
128.98605666209519
30
0
10
-12.831193287860504
20
129.05844458223962
30
0
10
-12.408133192595141
20
129.11416051667635
30
0
10
-12.19073038204124
20
129.09748747600165
30
0
10
-11.802606547403688
20
128.99349000794732
30
0
10
-11.606013926617049
20
128.89925452092945
30
0
10
-11.267496157031314
20
128.63951005690836
30
0
10
-11.125571659750941
20
128.4740008671306
30
0
10
-10.924664217501899
20
128.12602455663296
30
0
10
-10.852288095694767
20
127.92036734349109
30
0
10
-10.796592346076848
20
127.49732792105674
30
0
10
-10.813272737791422
20
127.27994566614342
30
0
10
-10.86526992333717
20
127.08588952783607
30
0
0
CIRCLE
5
105
100
AcDbEntity
8
0
100
AcDbCircle
10
-8.8499999999999996
20
46
30
0
40
1.6000000000000003
210
0
220
0
230
1
0
CIRCLE
5
106
100
AcDbEntity
8
0
100
AcDbCircle
10
8.8499999999999996
20
46
30
0
40
1.5999999999999992
210
0
220
0
230
1
0
LWPOLYLINE
5
107
100
AcDbEntity
8
0
100
AcDbPolyline
90
10
70
1
43
0.0
10
-19
20
175
42
0.41421356237310542
10
-19.999999999999979
20
174
10
-20.000000000000004
20
79.169075150749819
42
-0.083941903068511833
10
-20.055583870091258
20
78.840322700465123
10
-47.5
20
0
10
47.5
20
0
10
20.055583870091255
20
78.840322700465123
42
-0.083941903068512055
10
20
20
79.169075150749819
10
20
20
174
42
0.41421356237310542
10
19
20
175.00000000000003
0
CIRCLE
5
108
100
AcDbEntity
8
0
100
AcDbCircle
10
14.499999962747099
20
169.49999999999994
30
0
40
1.4999999999999991
210
0
220
-0
230
1
0
CIRCLE
5
109
100
AcDbEntity
8
0
100
AcDbCircle
10
14.500000000000002
20
81.036640350904662
30
0
40
1.4999999999999991
210
0
220
-0
230
1
0
CIRCLE
5
110
100
AcDbEntity
8
0
100
AcDbCircle
10
40.953181013457474
20
2.5000000000000004
30
0
40
1.4999999999999991
210
0
220
-0
230
1
0
CIRCLE
5
111
100
AcDbEntity
8
0
100
AcDbCircle
10
-14.499999962747099
20
169.49999999999994
30
0
40
1.4999999999999991
210
0
220
0
230
1
0
CIRCLE
5
112
100
AcDbEntity
8
0
100
AcDbCircle
10
-14.500000000000002
20
81.036640350904662
30
0
40
1.4999999999999991
210
0
220
0
230
1
0
CIRCLE
5
113
100
AcDbEntity
8
0
100
AcDbCircle
10
-40.953181013457474
20
2.5000000000000004
30
0
40
1.4999999999999991
210
0
220
0
230
1
0
ENDSEC
0
SECTION
2
OBJECTS
0
DICTIONARY
5
C
100
AcDbDictionary
3
ACAD_GROUP
350
D
3
ACAD_MLINESTYLE
350
17
0
DICTIONARY
5
D
100
AcDbDictionary
0
DICTIONARY
5
1A
330
C
100
AcDbDictionary
0
DICTIONARY
5
17
100
AcDbDictionary
0
ENDSEC
0
EOF
