%TF.GenerationSoftware,KiCad,Pcbnew,7.0.1*%
%TF.CreationDate,2023-05-23T13:55:40-05:00*%
%TF.ProjectId,HW4_Design,4857345f-4465-4736-9967-6e2e6b696361,rev?*%
%TF.SameCoordinates,Original*%
%TF.FileFunction,Legend,Top*%
%TF.FilePolarity,Positive*%
%FSLAX46Y46*%
G04 Gerber Fmt 4.6, Leading zero omitted, Abs format (unit mm)*
G04 Created by KiCad (PCBNEW 7.0.1) date 2023-05-23 13:55:40*
%MOMM*%
%LPD*%
G01*
G04 APERTURE LIST*
%ADD10C,0.150000*%
%ADD11C,0.100000*%
%ADD12C,0.120000*%
G04 APERTURE END LIST*
D10*
%TO.C,U2*%
X142927619Y-98571904D02*
X143737142Y-98571904D01*
X143737142Y-98571904D02*
X143832380Y-98524285D01*
X143832380Y-98524285D02*
X143880000Y-98476666D01*
X143880000Y-98476666D02*
X143927619Y-98381428D01*
X143927619Y-98381428D02*
X143927619Y-98190952D01*
X143927619Y-98190952D02*
X143880000Y-98095714D01*
X143880000Y-98095714D02*
X143832380Y-98048095D01*
X143832380Y-98048095D02*
X143737142Y-98000476D01*
X143737142Y-98000476D02*
X142927619Y-98000476D01*
X143022857Y-97571904D02*
X142975238Y-97524285D01*
X142975238Y-97524285D02*
X142927619Y-97429047D01*
X142927619Y-97429047D02*
X142927619Y-97190952D01*
X142927619Y-97190952D02*
X142975238Y-97095714D01*
X142975238Y-97095714D02*
X143022857Y-97048095D01*
X143022857Y-97048095D02*
X143118095Y-97000476D01*
X143118095Y-97000476D02*
X143213333Y-97000476D01*
X143213333Y-97000476D02*
X143356190Y-97048095D01*
X143356190Y-97048095D02*
X143927619Y-97619523D01*
X143927619Y-97619523D02*
X143927619Y-97000476D01*
%TO.C,U1*%
X134128095Y-65222619D02*
X134128095Y-66032142D01*
X134128095Y-66032142D02*
X134175714Y-66127380D01*
X134175714Y-66127380D02*
X134223333Y-66175000D01*
X134223333Y-66175000D02*
X134318571Y-66222619D01*
X134318571Y-66222619D02*
X134509047Y-66222619D01*
X134509047Y-66222619D02*
X134604285Y-66175000D01*
X134604285Y-66175000D02*
X134651904Y-66127380D01*
X134651904Y-66127380D02*
X134699523Y-66032142D01*
X134699523Y-66032142D02*
X134699523Y-65222619D01*
X135699523Y-66222619D02*
X135128095Y-66222619D01*
X135413809Y-66222619D02*
X135413809Y-65222619D01*
X135413809Y-65222619D02*
X135318571Y-65365476D01*
X135318571Y-65365476D02*
X135223333Y-65460714D01*
X135223333Y-65460714D02*
X135128095Y-65508333D01*
D11*
%TO.C,SW3*%
X115566667Y-54100000D02*
X115709524Y-54147619D01*
X115709524Y-54147619D02*
X115947619Y-54147619D01*
X115947619Y-54147619D02*
X116042857Y-54100000D01*
X116042857Y-54100000D02*
X116090476Y-54052380D01*
X116090476Y-54052380D02*
X116138095Y-53957142D01*
X116138095Y-53957142D02*
X116138095Y-53861904D01*
X116138095Y-53861904D02*
X116090476Y-53766666D01*
X116090476Y-53766666D02*
X116042857Y-53719047D01*
X116042857Y-53719047D02*
X115947619Y-53671428D01*
X115947619Y-53671428D02*
X115757143Y-53623809D01*
X115757143Y-53623809D02*
X115661905Y-53576190D01*
X115661905Y-53576190D02*
X115614286Y-53528571D01*
X115614286Y-53528571D02*
X115566667Y-53433333D01*
X115566667Y-53433333D02*
X115566667Y-53338095D01*
X115566667Y-53338095D02*
X115614286Y-53242857D01*
X115614286Y-53242857D02*
X115661905Y-53195238D01*
X115661905Y-53195238D02*
X115757143Y-53147619D01*
X115757143Y-53147619D02*
X115995238Y-53147619D01*
X115995238Y-53147619D02*
X116138095Y-53195238D01*
X116471429Y-53147619D02*
X116709524Y-54147619D01*
X116709524Y-54147619D02*
X116900000Y-53433333D01*
X116900000Y-53433333D02*
X117090476Y-54147619D01*
X117090476Y-54147619D02*
X117328572Y-53147619D01*
X117614286Y-53147619D02*
X118233333Y-53147619D01*
X118233333Y-53147619D02*
X117900000Y-53528571D01*
X117900000Y-53528571D02*
X118042857Y-53528571D01*
X118042857Y-53528571D02*
X118138095Y-53576190D01*
X118138095Y-53576190D02*
X118185714Y-53623809D01*
X118185714Y-53623809D02*
X118233333Y-53719047D01*
X118233333Y-53719047D02*
X118233333Y-53957142D01*
X118233333Y-53957142D02*
X118185714Y-54052380D01*
X118185714Y-54052380D02*
X118138095Y-54100000D01*
X118138095Y-54100000D02*
X118042857Y-54147619D01*
X118042857Y-54147619D02*
X117757143Y-54147619D01*
X117757143Y-54147619D02*
X117661905Y-54100000D01*
X117661905Y-54100000D02*
X117614286Y-54052380D01*
%TO.C,SW2*%
X123185000Y-62141667D02*
X123137380Y-62284524D01*
X123137380Y-62284524D02*
X123137380Y-62522619D01*
X123137380Y-62522619D02*
X123185000Y-62617857D01*
X123185000Y-62617857D02*
X123232619Y-62665476D01*
X123232619Y-62665476D02*
X123327857Y-62713095D01*
X123327857Y-62713095D02*
X123423095Y-62713095D01*
X123423095Y-62713095D02*
X123518333Y-62665476D01*
X123518333Y-62665476D02*
X123565952Y-62617857D01*
X123565952Y-62617857D02*
X123613571Y-62522619D01*
X123613571Y-62522619D02*
X123661190Y-62332143D01*
X123661190Y-62332143D02*
X123708809Y-62236905D01*
X123708809Y-62236905D02*
X123756428Y-62189286D01*
X123756428Y-62189286D02*
X123851666Y-62141667D01*
X123851666Y-62141667D02*
X123946904Y-62141667D01*
X123946904Y-62141667D02*
X124042142Y-62189286D01*
X124042142Y-62189286D02*
X124089761Y-62236905D01*
X124089761Y-62236905D02*
X124137380Y-62332143D01*
X124137380Y-62332143D02*
X124137380Y-62570238D01*
X124137380Y-62570238D02*
X124089761Y-62713095D01*
X124137380Y-63046429D02*
X123137380Y-63284524D01*
X123137380Y-63284524D02*
X123851666Y-63475000D01*
X123851666Y-63475000D02*
X123137380Y-63665476D01*
X123137380Y-63665476D02*
X124137380Y-63903572D01*
X124042142Y-64236905D02*
X124089761Y-64284524D01*
X124089761Y-64284524D02*
X124137380Y-64379762D01*
X124137380Y-64379762D02*
X124137380Y-64617857D01*
X124137380Y-64617857D02*
X124089761Y-64713095D01*
X124089761Y-64713095D02*
X124042142Y-64760714D01*
X124042142Y-64760714D02*
X123946904Y-64808333D01*
X123946904Y-64808333D02*
X123851666Y-64808333D01*
X123851666Y-64808333D02*
X123708809Y-64760714D01*
X123708809Y-64760714D02*
X123137380Y-64189286D01*
X123137380Y-64189286D02*
X123137380Y-64808333D01*
%TO.C,SW1*%
X129610000Y-61866667D02*
X129562380Y-62009524D01*
X129562380Y-62009524D02*
X129562380Y-62247619D01*
X129562380Y-62247619D02*
X129610000Y-62342857D01*
X129610000Y-62342857D02*
X129657619Y-62390476D01*
X129657619Y-62390476D02*
X129752857Y-62438095D01*
X129752857Y-62438095D02*
X129848095Y-62438095D01*
X129848095Y-62438095D02*
X129943333Y-62390476D01*
X129943333Y-62390476D02*
X129990952Y-62342857D01*
X129990952Y-62342857D02*
X130038571Y-62247619D01*
X130038571Y-62247619D02*
X130086190Y-62057143D01*
X130086190Y-62057143D02*
X130133809Y-61961905D01*
X130133809Y-61961905D02*
X130181428Y-61914286D01*
X130181428Y-61914286D02*
X130276666Y-61866667D01*
X130276666Y-61866667D02*
X130371904Y-61866667D01*
X130371904Y-61866667D02*
X130467142Y-61914286D01*
X130467142Y-61914286D02*
X130514761Y-61961905D01*
X130514761Y-61961905D02*
X130562380Y-62057143D01*
X130562380Y-62057143D02*
X130562380Y-62295238D01*
X130562380Y-62295238D02*
X130514761Y-62438095D01*
X130562380Y-62771429D02*
X129562380Y-63009524D01*
X129562380Y-63009524D02*
X130276666Y-63200000D01*
X130276666Y-63200000D02*
X129562380Y-63390476D01*
X129562380Y-63390476D02*
X130562380Y-63628572D01*
X129562380Y-64533333D02*
X129562380Y-63961905D01*
X129562380Y-64247619D02*
X130562380Y-64247619D01*
X130562380Y-64247619D02*
X130419523Y-64152381D01*
X130419523Y-64152381D02*
X130324285Y-64057143D01*
X130324285Y-64057143D02*
X130276666Y-63961905D01*
D10*
%TO.C,R5*%
X116167619Y-97306666D02*
X115691428Y-97639999D01*
X116167619Y-97878094D02*
X115167619Y-97878094D01*
X115167619Y-97878094D02*
X115167619Y-97497142D01*
X115167619Y-97497142D02*
X115215238Y-97401904D01*
X115215238Y-97401904D02*
X115262857Y-97354285D01*
X115262857Y-97354285D02*
X115358095Y-97306666D01*
X115358095Y-97306666D02*
X115500952Y-97306666D01*
X115500952Y-97306666D02*
X115596190Y-97354285D01*
X115596190Y-97354285D02*
X115643809Y-97401904D01*
X115643809Y-97401904D02*
X115691428Y-97497142D01*
X115691428Y-97497142D02*
X115691428Y-97878094D01*
X115167619Y-96401904D02*
X115167619Y-96878094D01*
X115167619Y-96878094D02*
X115643809Y-96925713D01*
X115643809Y-96925713D02*
X115596190Y-96878094D01*
X115596190Y-96878094D02*
X115548571Y-96782856D01*
X115548571Y-96782856D02*
X115548571Y-96544761D01*
X115548571Y-96544761D02*
X115596190Y-96449523D01*
X115596190Y-96449523D02*
X115643809Y-96401904D01*
X115643809Y-96401904D02*
X115739047Y-96354285D01*
X115739047Y-96354285D02*
X115977142Y-96354285D01*
X115977142Y-96354285D02*
X116072380Y-96401904D01*
X116072380Y-96401904D02*
X116120000Y-96449523D01*
X116120000Y-96449523D02*
X116167619Y-96544761D01*
X116167619Y-96544761D02*
X116167619Y-96782856D01*
X116167619Y-96782856D02*
X116120000Y-96878094D01*
X116120000Y-96878094D02*
X116072380Y-96925713D01*
%TO.C,R4*%
X116417619Y-86781666D02*
X115941428Y-87114999D01*
X116417619Y-87353094D02*
X115417619Y-87353094D01*
X115417619Y-87353094D02*
X115417619Y-86972142D01*
X115417619Y-86972142D02*
X115465238Y-86876904D01*
X115465238Y-86876904D02*
X115512857Y-86829285D01*
X115512857Y-86829285D02*
X115608095Y-86781666D01*
X115608095Y-86781666D02*
X115750952Y-86781666D01*
X115750952Y-86781666D02*
X115846190Y-86829285D01*
X115846190Y-86829285D02*
X115893809Y-86876904D01*
X115893809Y-86876904D02*
X115941428Y-86972142D01*
X115941428Y-86972142D02*
X115941428Y-87353094D01*
X115750952Y-85924523D02*
X116417619Y-85924523D01*
X115370000Y-86162618D02*
X116084285Y-86400713D01*
X116084285Y-86400713D02*
X116084285Y-85781666D01*
%TO.C,R3*%
X124433333Y-96267619D02*
X124100000Y-95791428D01*
X123861905Y-96267619D02*
X123861905Y-95267619D01*
X123861905Y-95267619D02*
X124242857Y-95267619D01*
X124242857Y-95267619D02*
X124338095Y-95315238D01*
X124338095Y-95315238D02*
X124385714Y-95362857D01*
X124385714Y-95362857D02*
X124433333Y-95458095D01*
X124433333Y-95458095D02*
X124433333Y-95600952D01*
X124433333Y-95600952D02*
X124385714Y-95696190D01*
X124385714Y-95696190D02*
X124338095Y-95743809D01*
X124338095Y-95743809D02*
X124242857Y-95791428D01*
X124242857Y-95791428D02*
X123861905Y-95791428D01*
X124766667Y-95267619D02*
X125385714Y-95267619D01*
X125385714Y-95267619D02*
X125052381Y-95648571D01*
X125052381Y-95648571D02*
X125195238Y-95648571D01*
X125195238Y-95648571D02*
X125290476Y-95696190D01*
X125290476Y-95696190D02*
X125338095Y-95743809D01*
X125338095Y-95743809D02*
X125385714Y-95839047D01*
X125385714Y-95839047D02*
X125385714Y-96077142D01*
X125385714Y-96077142D02*
X125338095Y-96172380D01*
X125338095Y-96172380D02*
X125290476Y-96220000D01*
X125290476Y-96220000D02*
X125195238Y-96267619D01*
X125195238Y-96267619D02*
X124909524Y-96267619D01*
X124909524Y-96267619D02*
X124814286Y-96220000D01*
X124814286Y-96220000D02*
X124766667Y-96172380D01*
%TO.C,R2*%
X121667619Y-72356666D02*
X121191428Y-72689999D01*
X121667619Y-72928094D02*
X120667619Y-72928094D01*
X120667619Y-72928094D02*
X120667619Y-72547142D01*
X120667619Y-72547142D02*
X120715238Y-72451904D01*
X120715238Y-72451904D02*
X120762857Y-72404285D01*
X120762857Y-72404285D02*
X120858095Y-72356666D01*
X120858095Y-72356666D02*
X121000952Y-72356666D01*
X121000952Y-72356666D02*
X121096190Y-72404285D01*
X121096190Y-72404285D02*
X121143809Y-72451904D01*
X121143809Y-72451904D02*
X121191428Y-72547142D01*
X121191428Y-72547142D02*
X121191428Y-72928094D01*
X120762857Y-71975713D02*
X120715238Y-71928094D01*
X120715238Y-71928094D02*
X120667619Y-71832856D01*
X120667619Y-71832856D02*
X120667619Y-71594761D01*
X120667619Y-71594761D02*
X120715238Y-71499523D01*
X120715238Y-71499523D02*
X120762857Y-71451904D01*
X120762857Y-71451904D02*
X120858095Y-71404285D01*
X120858095Y-71404285D02*
X120953333Y-71404285D01*
X120953333Y-71404285D02*
X121096190Y-71451904D01*
X121096190Y-71451904D02*
X121667619Y-72023332D01*
X121667619Y-72023332D02*
X121667619Y-71404285D01*
%TO.C,R1*%
X152907619Y-78576666D02*
X152431428Y-78909999D01*
X152907619Y-79148094D02*
X151907619Y-79148094D01*
X151907619Y-79148094D02*
X151907619Y-78767142D01*
X151907619Y-78767142D02*
X151955238Y-78671904D01*
X151955238Y-78671904D02*
X152002857Y-78624285D01*
X152002857Y-78624285D02*
X152098095Y-78576666D01*
X152098095Y-78576666D02*
X152240952Y-78576666D01*
X152240952Y-78576666D02*
X152336190Y-78624285D01*
X152336190Y-78624285D02*
X152383809Y-78671904D01*
X152383809Y-78671904D02*
X152431428Y-78767142D01*
X152431428Y-78767142D02*
X152431428Y-79148094D01*
X152907619Y-77624285D02*
X152907619Y-78195713D01*
X152907619Y-77909999D02*
X151907619Y-77909999D01*
X151907619Y-77909999D02*
X152050476Y-78005237D01*
X152050476Y-78005237D02*
X152145714Y-78100475D01*
X152145714Y-78100475D02*
X152193333Y-78195713D01*
%TO.C,J4*%
X112041666Y-58967619D02*
X112041666Y-59681904D01*
X112041666Y-59681904D02*
X111994047Y-59824761D01*
X111994047Y-59824761D02*
X111898809Y-59920000D01*
X111898809Y-59920000D02*
X111755952Y-59967619D01*
X111755952Y-59967619D02*
X111660714Y-59967619D01*
X112946428Y-59300952D02*
X112946428Y-59967619D01*
X112708333Y-58920000D02*
X112470238Y-59634285D01*
X112470238Y-59634285D02*
X113089285Y-59634285D01*
%TO.C,J3*%
X132542619Y-62833333D02*
X133256904Y-62833333D01*
X133256904Y-62833333D02*
X133399761Y-62880952D01*
X133399761Y-62880952D02*
X133495000Y-62976190D01*
X133495000Y-62976190D02*
X133542619Y-63119047D01*
X133542619Y-63119047D02*
X133542619Y-63214285D01*
X132542619Y-62452380D02*
X132542619Y-61833333D01*
X132542619Y-61833333D02*
X132923571Y-62166666D01*
X132923571Y-62166666D02*
X132923571Y-62023809D01*
X132923571Y-62023809D02*
X132971190Y-61928571D01*
X132971190Y-61928571D02*
X133018809Y-61880952D01*
X133018809Y-61880952D02*
X133114047Y-61833333D01*
X133114047Y-61833333D02*
X133352142Y-61833333D01*
X133352142Y-61833333D02*
X133447380Y-61880952D01*
X133447380Y-61880952D02*
X133495000Y-61928571D01*
X133495000Y-61928571D02*
X133542619Y-62023809D01*
X133542619Y-62023809D02*
X133542619Y-62309523D01*
X133542619Y-62309523D02*
X133495000Y-62404761D01*
X133495000Y-62404761D02*
X133447380Y-62452380D01*
%TO.C,J2*%
X157516666Y-68797619D02*
X157516666Y-69511904D01*
X157516666Y-69511904D02*
X157469047Y-69654761D01*
X157469047Y-69654761D02*
X157373809Y-69750000D01*
X157373809Y-69750000D02*
X157230952Y-69797619D01*
X157230952Y-69797619D02*
X157135714Y-69797619D01*
X157945238Y-68892857D02*
X157992857Y-68845238D01*
X157992857Y-68845238D02*
X158088095Y-68797619D01*
X158088095Y-68797619D02*
X158326190Y-68797619D01*
X158326190Y-68797619D02*
X158421428Y-68845238D01*
X158421428Y-68845238D02*
X158469047Y-68892857D01*
X158469047Y-68892857D02*
X158516666Y-68988095D01*
X158516666Y-68988095D02*
X158516666Y-69083333D01*
X158516666Y-69083333D02*
X158469047Y-69226190D01*
X158469047Y-69226190D02*
X157897619Y-69797619D01*
X157897619Y-69797619D02*
X158516666Y-69797619D01*
%TO.C,J1*%
X111966666Y-67377619D02*
X111966666Y-68091904D01*
X111966666Y-68091904D02*
X111919047Y-68234761D01*
X111919047Y-68234761D02*
X111823809Y-68330000D01*
X111823809Y-68330000D02*
X111680952Y-68377619D01*
X111680952Y-68377619D02*
X111585714Y-68377619D01*
X112966666Y-68377619D02*
X112395238Y-68377619D01*
X112680952Y-68377619D02*
X112680952Y-67377619D01*
X112680952Y-67377619D02*
X112585714Y-67520476D01*
X112585714Y-67520476D02*
X112490476Y-67615714D01*
X112490476Y-67615714D02*
X112395238Y-67663333D01*
%TO.C,D3*%
X124741905Y-90002619D02*
X124741905Y-89002619D01*
X124741905Y-89002619D02*
X124980000Y-89002619D01*
X124980000Y-89002619D02*
X125122857Y-89050238D01*
X125122857Y-89050238D02*
X125218095Y-89145476D01*
X125218095Y-89145476D02*
X125265714Y-89240714D01*
X125265714Y-89240714D02*
X125313333Y-89431190D01*
X125313333Y-89431190D02*
X125313333Y-89574047D01*
X125313333Y-89574047D02*
X125265714Y-89764523D01*
X125265714Y-89764523D02*
X125218095Y-89859761D01*
X125218095Y-89859761D02*
X125122857Y-89955000D01*
X125122857Y-89955000D02*
X124980000Y-90002619D01*
X124980000Y-90002619D02*
X124741905Y-90002619D01*
X125646667Y-89002619D02*
X126265714Y-89002619D01*
X126265714Y-89002619D02*
X125932381Y-89383571D01*
X125932381Y-89383571D02*
X126075238Y-89383571D01*
X126075238Y-89383571D02*
X126170476Y-89431190D01*
X126170476Y-89431190D02*
X126218095Y-89478809D01*
X126218095Y-89478809D02*
X126265714Y-89574047D01*
X126265714Y-89574047D02*
X126265714Y-89812142D01*
X126265714Y-89812142D02*
X126218095Y-89907380D01*
X126218095Y-89907380D02*
X126170476Y-89955000D01*
X126170476Y-89955000D02*
X126075238Y-90002619D01*
X126075238Y-90002619D02*
X125789524Y-90002619D01*
X125789524Y-90002619D02*
X125694286Y-89955000D01*
X125694286Y-89955000D02*
X125646667Y-89907380D01*
%TO.C,D2*%
X124756905Y-82652619D02*
X124756905Y-81652619D01*
X124756905Y-81652619D02*
X124995000Y-81652619D01*
X124995000Y-81652619D02*
X125137857Y-81700238D01*
X125137857Y-81700238D02*
X125233095Y-81795476D01*
X125233095Y-81795476D02*
X125280714Y-81890714D01*
X125280714Y-81890714D02*
X125328333Y-82081190D01*
X125328333Y-82081190D02*
X125328333Y-82224047D01*
X125328333Y-82224047D02*
X125280714Y-82414523D01*
X125280714Y-82414523D02*
X125233095Y-82509761D01*
X125233095Y-82509761D02*
X125137857Y-82605000D01*
X125137857Y-82605000D02*
X124995000Y-82652619D01*
X124995000Y-82652619D02*
X124756905Y-82652619D01*
X125709286Y-81747857D02*
X125756905Y-81700238D01*
X125756905Y-81700238D02*
X125852143Y-81652619D01*
X125852143Y-81652619D02*
X126090238Y-81652619D01*
X126090238Y-81652619D02*
X126185476Y-81700238D01*
X126185476Y-81700238D02*
X126233095Y-81747857D01*
X126233095Y-81747857D02*
X126280714Y-81843095D01*
X126280714Y-81843095D02*
X126280714Y-81938333D01*
X126280714Y-81938333D02*
X126233095Y-82081190D01*
X126233095Y-82081190D02*
X125661667Y-82652619D01*
X125661667Y-82652619D02*
X126280714Y-82652619D01*
%TO.C,D1*%
X155616905Y-68872619D02*
X155616905Y-67872619D01*
X155616905Y-67872619D02*
X155855000Y-67872619D01*
X155855000Y-67872619D02*
X155997857Y-67920238D01*
X155997857Y-67920238D02*
X156093095Y-68015476D01*
X156093095Y-68015476D02*
X156140714Y-68110714D01*
X156140714Y-68110714D02*
X156188333Y-68301190D01*
X156188333Y-68301190D02*
X156188333Y-68444047D01*
X156188333Y-68444047D02*
X156140714Y-68634523D01*
X156140714Y-68634523D02*
X156093095Y-68729761D01*
X156093095Y-68729761D02*
X155997857Y-68825000D01*
X155997857Y-68825000D02*
X155855000Y-68872619D01*
X155855000Y-68872619D02*
X155616905Y-68872619D01*
X157140714Y-68872619D02*
X156569286Y-68872619D01*
X156855000Y-68872619D02*
X156855000Y-67872619D01*
X156855000Y-67872619D02*
X156759762Y-68015476D01*
X156759762Y-68015476D02*
X156664524Y-68110714D01*
X156664524Y-68110714D02*
X156569286Y-68158333D01*
%TO.C,C6*%
X146133333Y-109117380D02*
X146085714Y-109165000D01*
X146085714Y-109165000D02*
X145942857Y-109212619D01*
X145942857Y-109212619D02*
X145847619Y-109212619D01*
X145847619Y-109212619D02*
X145704762Y-109165000D01*
X145704762Y-109165000D02*
X145609524Y-109069761D01*
X145609524Y-109069761D02*
X145561905Y-108974523D01*
X145561905Y-108974523D02*
X145514286Y-108784047D01*
X145514286Y-108784047D02*
X145514286Y-108641190D01*
X145514286Y-108641190D02*
X145561905Y-108450714D01*
X145561905Y-108450714D02*
X145609524Y-108355476D01*
X145609524Y-108355476D02*
X145704762Y-108260238D01*
X145704762Y-108260238D02*
X145847619Y-108212619D01*
X145847619Y-108212619D02*
X145942857Y-108212619D01*
X145942857Y-108212619D02*
X146085714Y-108260238D01*
X146085714Y-108260238D02*
X146133333Y-108307857D01*
X146990476Y-108212619D02*
X146800000Y-108212619D01*
X146800000Y-108212619D02*
X146704762Y-108260238D01*
X146704762Y-108260238D02*
X146657143Y-108307857D01*
X146657143Y-108307857D02*
X146561905Y-108450714D01*
X146561905Y-108450714D02*
X146514286Y-108641190D01*
X146514286Y-108641190D02*
X146514286Y-109022142D01*
X146514286Y-109022142D02*
X146561905Y-109117380D01*
X146561905Y-109117380D02*
X146609524Y-109165000D01*
X146609524Y-109165000D02*
X146704762Y-109212619D01*
X146704762Y-109212619D02*
X146895238Y-109212619D01*
X146895238Y-109212619D02*
X146990476Y-109165000D01*
X146990476Y-109165000D02*
X147038095Y-109117380D01*
X147038095Y-109117380D02*
X147085714Y-109022142D01*
X147085714Y-109022142D02*
X147085714Y-108784047D01*
X147085714Y-108784047D02*
X147038095Y-108688809D01*
X147038095Y-108688809D02*
X146990476Y-108641190D01*
X146990476Y-108641190D02*
X146895238Y-108593571D01*
X146895238Y-108593571D02*
X146704762Y-108593571D01*
X146704762Y-108593571D02*
X146609524Y-108641190D01*
X146609524Y-108641190D02*
X146561905Y-108688809D01*
X146561905Y-108688809D02*
X146514286Y-108784047D01*
%TO.C,C5*%
X141442380Y-78291666D02*
X141490000Y-78339285D01*
X141490000Y-78339285D02*
X141537619Y-78482142D01*
X141537619Y-78482142D02*
X141537619Y-78577380D01*
X141537619Y-78577380D02*
X141490000Y-78720237D01*
X141490000Y-78720237D02*
X141394761Y-78815475D01*
X141394761Y-78815475D02*
X141299523Y-78863094D01*
X141299523Y-78863094D02*
X141109047Y-78910713D01*
X141109047Y-78910713D02*
X140966190Y-78910713D01*
X140966190Y-78910713D02*
X140775714Y-78863094D01*
X140775714Y-78863094D02*
X140680476Y-78815475D01*
X140680476Y-78815475D02*
X140585238Y-78720237D01*
X140585238Y-78720237D02*
X140537619Y-78577380D01*
X140537619Y-78577380D02*
X140537619Y-78482142D01*
X140537619Y-78482142D02*
X140585238Y-78339285D01*
X140585238Y-78339285D02*
X140632857Y-78291666D01*
X140537619Y-77386904D02*
X140537619Y-77863094D01*
X140537619Y-77863094D02*
X141013809Y-77910713D01*
X141013809Y-77910713D02*
X140966190Y-77863094D01*
X140966190Y-77863094D02*
X140918571Y-77767856D01*
X140918571Y-77767856D02*
X140918571Y-77529761D01*
X140918571Y-77529761D02*
X140966190Y-77434523D01*
X140966190Y-77434523D02*
X141013809Y-77386904D01*
X141013809Y-77386904D02*
X141109047Y-77339285D01*
X141109047Y-77339285D02*
X141347142Y-77339285D01*
X141347142Y-77339285D02*
X141442380Y-77386904D01*
X141442380Y-77386904D02*
X141490000Y-77434523D01*
X141490000Y-77434523D02*
X141537619Y-77529761D01*
X141537619Y-77529761D02*
X141537619Y-77767856D01*
X141537619Y-77767856D02*
X141490000Y-77863094D01*
X141490000Y-77863094D02*
X141442380Y-77910713D01*
%TO.C,C4*%
X155633333Y-109242380D02*
X155585714Y-109290000D01*
X155585714Y-109290000D02*
X155442857Y-109337619D01*
X155442857Y-109337619D02*
X155347619Y-109337619D01*
X155347619Y-109337619D02*
X155204762Y-109290000D01*
X155204762Y-109290000D02*
X155109524Y-109194761D01*
X155109524Y-109194761D02*
X155061905Y-109099523D01*
X155061905Y-109099523D02*
X155014286Y-108909047D01*
X155014286Y-108909047D02*
X155014286Y-108766190D01*
X155014286Y-108766190D02*
X155061905Y-108575714D01*
X155061905Y-108575714D02*
X155109524Y-108480476D01*
X155109524Y-108480476D02*
X155204762Y-108385238D01*
X155204762Y-108385238D02*
X155347619Y-108337619D01*
X155347619Y-108337619D02*
X155442857Y-108337619D01*
X155442857Y-108337619D02*
X155585714Y-108385238D01*
X155585714Y-108385238D02*
X155633333Y-108432857D01*
X156490476Y-108670952D02*
X156490476Y-109337619D01*
X156252381Y-108290000D02*
X156014286Y-109004285D01*
X156014286Y-109004285D02*
X156633333Y-109004285D01*
%TO.C,C3*%
X155967380Y-97816666D02*
X156015000Y-97864285D01*
X156015000Y-97864285D02*
X156062619Y-98007142D01*
X156062619Y-98007142D02*
X156062619Y-98102380D01*
X156062619Y-98102380D02*
X156015000Y-98245237D01*
X156015000Y-98245237D02*
X155919761Y-98340475D01*
X155919761Y-98340475D02*
X155824523Y-98388094D01*
X155824523Y-98388094D02*
X155634047Y-98435713D01*
X155634047Y-98435713D02*
X155491190Y-98435713D01*
X155491190Y-98435713D02*
X155300714Y-98388094D01*
X155300714Y-98388094D02*
X155205476Y-98340475D01*
X155205476Y-98340475D02*
X155110238Y-98245237D01*
X155110238Y-98245237D02*
X155062619Y-98102380D01*
X155062619Y-98102380D02*
X155062619Y-98007142D01*
X155062619Y-98007142D02*
X155110238Y-97864285D01*
X155110238Y-97864285D02*
X155157857Y-97816666D01*
X155062619Y-97483332D02*
X155062619Y-96864285D01*
X155062619Y-96864285D02*
X155443571Y-97197618D01*
X155443571Y-97197618D02*
X155443571Y-97054761D01*
X155443571Y-97054761D02*
X155491190Y-96959523D01*
X155491190Y-96959523D02*
X155538809Y-96911904D01*
X155538809Y-96911904D02*
X155634047Y-96864285D01*
X155634047Y-96864285D02*
X155872142Y-96864285D01*
X155872142Y-96864285D02*
X155967380Y-96911904D01*
X155967380Y-96911904D02*
X156015000Y-96959523D01*
X156015000Y-96959523D02*
X156062619Y-97054761D01*
X156062619Y-97054761D02*
X156062619Y-97340475D01*
X156062619Y-97340475D02*
X156015000Y-97435713D01*
X156015000Y-97435713D02*
X155967380Y-97483332D01*
%TO.C,C2*%
X152642380Y-69016666D02*
X152690000Y-69064285D01*
X152690000Y-69064285D02*
X152737619Y-69207142D01*
X152737619Y-69207142D02*
X152737619Y-69302380D01*
X152737619Y-69302380D02*
X152690000Y-69445237D01*
X152690000Y-69445237D02*
X152594761Y-69540475D01*
X152594761Y-69540475D02*
X152499523Y-69588094D01*
X152499523Y-69588094D02*
X152309047Y-69635713D01*
X152309047Y-69635713D02*
X152166190Y-69635713D01*
X152166190Y-69635713D02*
X151975714Y-69588094D01*
X151975714Y-69588094D02*
X151880476Y-69540475D01*
X151880476Y-69540475D02*
X151785238Y-69445237D01*
X151785238Y-69445237D02*
X151737619Y-69302380D01*
X151737619Y-69302380D02*
X151737619Y-69207142D01*
X151737619Y-69207142D02*
X151785238Y-69064285D01*
X151785238Y-69064285D02*
X151832857Y-69016666D01*
X151832857Y-68635713D02*
X151785238Y-68588094D01*
X151785238Y-68588094D02*
X151737619Y-68492856D01*
X151737619Y-68492856D02*
X151737619Y-68254761D01*
X151737619Y-68254761D02*
X151785238Y-68159523D01*
X151785238Y-68159523D02*
X151832857Y-68111904D01*
X151832857Y-68111904D02*
X151928095Y-68064285D01*
X151928095Y-68064285D02*
X152023333Y-68064285D01*
X152023333Y-68064285D02*
X152166190Y-68111904D01*
X152166190Y-68111904D02*
X152737619Y-68683332D01*
X152737619Y-68683332D02*
X152737619Y-68064285D01*
%TO.C,C1*%
X146217380Y-69241666D02*
X146265000Y-69289285D01*
X146265000Y-69289285D02*
X146312619Y-69432142D01*
X146312619Y-69432142D02*
X146312619Y-69527380D01*
X146312619Y-69527380D02*
X146265000Y-69670237D01*
X146265000Y-69670237D02*
X146169761Y-69765475D01*
X146169761Y-69765475D02*
X146074523Y-69813094D01*
X146074523Y-69813094D02*
X145884047Y-69860713D01*
X145884047Y-69860713D02*
X145741190Y-69860713D01*
X145741190Y-69860713D02*
X145550714Y-69813094D01*
X145550714Y-69813094D02*
X145455476Y-69765475D01*
X145455476Y-69765475D02*
X145360238Y-69670237D01*
X145360238Y-69670237D02*
X145312619Y-69527380D01*
X145312619Y-69527380D02*
X145312619Y-69432142D01*
X145312619Y-69432142D02*
X145360238Y-69289285D01*
X145360238Y-69289285D02*
X145407857Y-69241666D01*
X146312619Y-68289285D02*
X146312619Y-68860713D01*
X146312619Y-68574999D02*
X145312619Y-68574999D01*
X145312619Y-68574999D02*
X145455476Y-68670237D01*
X145455476Y-68670237D02*
X145550714Y-68765475D01*
X145550714Y-68765475D02*
X145598333Y-68860713D01*
D12*
%TO.C,U2*%
X148875000Y-99610000D02*
X148875000Y-96010000D01*
X145926193Y-95453600D02*
G75*
G03*
X144425000Y-97810000I1098807J-2356400D01*
G01*
X144425001Y-97810000D02*
G75*
G03*
X145926193Y-100166399I2599999J0D01*
G01*
X148147795Y-100134183D02*
G75*
G03*
X148874999Y-99609999I-1122795J2324183D01*
G01*
X148874999Y-96010001D02*
G75*
G03*
X148147795Y-95485817I-1849999J-1799999D01*
G01*
%TO.C,U1*%
X132240000Y-102440000D02*
X137540000Y-102440000D01*
X140030000Y-66700000D02*
X129750000Y-66700000D01*
X140030000Y-102500000D02*
X140030000Y-66700000D01*
X137540000Y-66760000D02*
X135890000Y-66760000D01*
X129750000Y-102500000D02*
X140030000Y-102500000D01*
X137540000Y-102440000D02*
X137540000Y-66760000D01*
X132240000Y-66760000D02*
X132240000Y-102440000D01*
X133890000Y-66760000D02*
X132240000Y-66760000D01*
X129750000Y-66700000D02*
X129750000Y-102500000D01*
X133890000Y-66760000D02*
G75*
G03*
X135890000Y-66760000I1000000J0D01*
G01*
%TO.C,R5*%
X119445000Y-93870000D02*
X119115000Y-93870000D01*
X116705000Y-100410000D02*
X116705000Y-93870000D01*
X119445000Y-100410000D02*
X119445000Y-93870000D01*
X119115000Y-100410000D02*
X119445000Y-100410000D01*
X117035000Y-100410000D02*
X116705000Y-100410000D01*
X116705000Y-93870000D02*
X117035000Y-93870000D01*
%TO.C,R4*%
X119695000Y-83345000D02*
X119365000Y-83345000D01*
X116955000Y-89885000D02*
X116955000Y-83345000D01*
X119695000Y-89885000D02*
X119695000Y-83345000D01*
X119365000Y-89885000D02*
X119695000Y-89885000D01*
X117285000Y-89885000D02*
X116955000Y-89885000D01*
X116955000Y-83345000D02*
X117285000Y-83345000D01*
%TO.C,R3*%
X127870000Y-99545000D02*
X127870000Y-99215000D01*
X121330000Y-96805000D02*
X127870000Y-96805000D01*
X121330000Y-99545000D02*
X127870000Y-99545000D01*
X121330000Y-99215000D02*
X121330000Y-99545000D01*
X121330000Y-97135000D02*
X121330000Y-96805000D01*
X127870000Y-96805000D02*
X127870000Y-97135000D01*
%TO.C,R2*%
X124945000Y-68920000D02*
X124615000Y-68920000D01*
X122205000Y-75460000D02*
X122205000Y-68920000D01*
X124945000Y-75460000D02*
X124945000Y-68920000D01*
X124615000Y-75460000D02*
X124945000Y-75460000D01*
X122535000Y-75460000D02*
X122205000Y-75460000D01*
X122205000Y-68920000D02*
X122535000Y-68920000D01*
%TO.C,R1*%
X148705000Y-81680000D02*
X149035000Y-81680000D01*
X151445000Y-75140000D02*
X151445000Y-81680000D01*
X148705000Y-75140000D02*
X148705000Y-81680000D01*
X149035000Y-75140000D02*
X148705000Y-75140000D01*
X151115000Y-75140000D02*
X151445000Y-75140000D01*
X151445000Y-81680000D02*
X151115000Y-81680000D01*
%TO.C,J4*%
X111045000Y-63545000D02*
X111045000Y-66145000D01*
X113705000Y-63545000D02*
X113705000Y-66145000D01*
X111045000Y-63545000D02*
X113705000Y-63545000D01*
X112375000Y-60945000D02*
X113705000Y-60945000D01*
X113705000Y-60945000D02*
X113705000Y-62275000D01*
X111045000Y-66145000D02*
X113705000Y-66145000D01*
%TO.C,J3*%
X149880000Y-63830000D02*
X149880000Y-61170000D01*
X137120000Y-63830000D02*
X149880000Y-63830000D01*
X134520000Y-61170000D02*
X135850000Y-61170000D01*
X137120000Y-61170000D02*
X149880000Y-61170000D01*
X137120000Y-63830000D02*
X137120000Y-61170000D01*
X134520000Y-62500000D02*
X134520000Y-61170000D01*
%TO.C,J2*%
X157850000Y-70775000D02*
X159180000Y-70775000D01*
X156520000Y-73375000D02*
X156520000Y-101375000D01*
X156520000Y-101375000D02*
X159180000Y-101375000D01*
X156520000Y-73375000D02*
X159180000Y-73375000D01*
X159180000Y-73375000D02*
X159180000Y-101375000D01*
X159180000Y-70775000D02*
X159180000Y-72105000D01*
%TO.C,J1*%
X112300000Y-69355000D02*
X113630000Y-69355000D01*
X110970000Y-71955000D02*
X110970000Y-99955000D01*
X110970000Y-99955000D02*
X113630000Y-99955000D01*
X110970000Y-71955000D02*
X113630000Y-71955000D01*
X113630000Y-71955000D02*
X113630000Y-99955000D01*
X113630000Y-69355000D02*
X113630000Y-70685000D01*
%TO.C,D3*%
X123920000Y-91264000D02*
X123920000Y-91420000D01*
X123920000Y-93580000D02*
X123920000Y-93736000D01*
X126521129Y-91420164D02*
G75*
G03*
X124439040Y-91420001I-1041129J-1079836D01*
G01*
X123920001Y-93735515D02*
G75*
G03*
X127152334Y-93578608I1559999J1235515D01*
G01*
X124439040Y-93579999D02*
G75*
G03*
X126521129Y-93579836I1040960J1079999D01*
G01*
X127152334Y-91421392D02*
G75*
G03*
X123920001Y-91264485I-1672334J-1078608D01*
G01*
%TO.C,D2*%
X123935000Y-83914000D02*
X123935000Y-84070000D01*
X123935000Y-86230000D02*
X123935000Y-86386000D01*
X126536129Y-84070164D02*
G75*
G03*
X124454040Y-84070001I-1041129J-1079836D01*
G01*
X123935001Y-86385515D02*
G75*
G03*
X127167334Y-86228608I1559999J1235515D01*
G01*
X124454040Y-86229999D02*
G75*
G03*
X126536129Y-86229836I1040960J1079999D01*
G01*
X127167334Y-84071392D02*
G75*
G03*
X123935001Y-83914485I-1672334J-1078608D01*
G01*
%TO.C,D1*%
X157915000Y-66686000D02*
X157915000Y-66530000D01*
X157915000Y-64370000D02*
X157915000Y-64214000D01*
X155313871Y-66529836D02*
G75*
G03*
X157395960Y-66529999I1041129J1079836D01*
G01*
X157914999Y-64214485D02*
G75*
G03*
X154682666Y-64371392I-1559999J-1235515D01*
G01*
X157395960Y-64370001D02*
G75*
G03*
X155313871Y-64370164I-1040960J-1079999D01*
G01*
X154682666Y-66528608D02*
G75*
G03*
X157914999Y-66685515I1672334J1078608D01*
G01*
%TO.C,C6*%
X147920000Y-107620000D02*
X144680000Y-107620000D01*
X144680000Y-107620000D02*
X144680000Y-107555000D01*
X144680000Y-105445000D02*
X144680000Y-105380000D01*
X147920000Y-105445000D02*
X147920000Y-105380000D01*
X147920000Y-105380000D02*
X144680000Y-105380000D01*
X147920000Y-107620000D02*
X147920000Y-107555000D01*
%TO.C,C5*%
X144330000Y-80395000D02*
X144345000Y-80395000D01*
X142205000Y-75855000D02*
X142220000Y-75855000D01*
X142205000Y-80395000D02*
X142220000Y-80395000D01*
X144330000Y-75855000D02*
X144345000Y-75855000D01*
X142205000Y-80395000D02*
X142205000Y-75855000D01*
X144345000Y-80395000D02*
X144345000Y-75855000D01*
%TO.C,C4*%
X154130000Y-105580000D02*
X157370000Y-105580000D01*
X157370000Y-105580000D02*
X157370000Y-105645000D01*
X157370000Y-107755000D02*
X157370000Y-107820000D01*
X154130000Y-107755000D02*
X154130000Y-107820000D01*
X154130000Y-107820000D02*
X157370000Y-107820000D01*
X154130000Y-105580000D02*
X154130000Y-105645000D01*
%TO.C,C3*%
X152345000Y-95380000D02*
X152330000Y-95380000D01*
X154470000Y-99920000D02*
X154455000Y-99920000D01*
X154470000Y-95380000D02*
X154455000Y-95380000D01*
X152345000Y-99920000D02*
X152330000Y-99920000D01*
X154470000Y-95380000D02*
X154470000Y-99920000D01*
X152330000Y-95380000D02*
X152330000Y-99920000D01*
%TO.C,C2*%
X149020000Y-66580000D02*
X149005000Y-66580000D01*
X151145000Y-71120000D02*
X151130000Y-71120000D01*
X151145000Y-66580000D02*
X151130000Y-66580000D01*
X149020000Y-71120000D02*
X149005000Y-71120000D01*
X151145000Y-66580000D02*
X151145000Y-71120000D01*
X149005000Y-66580000D02*
X149005000Y-71120000D01*
%TO.C,C1*%
X142595000Y-66805000D02*
X142580000Y-66805000D01*
X144720000Y-71345000D02*
X144705000Y-71345000D01*
X144720000Y-66805000D02*
X144705000Y-66805000D01*
X142595000Y-71345000D02*
X142580000Y-71345000D01*
X144720000Y-66805000D02*
X144720000Y-71345000D01*
X142580000Y-66805000D02*
X142580000Y-71345000D01*
%TD*%
M02*
