%TF.GenerationSoftware,KiCad,Pcbnew,7.0.1*%
%TF.CreationDate,2023-05-23T13:55:39-05:00*%
%TF.ProjectId,HW4_Design,4857345f-4465-4736-9967-6e2e6b696361,rev?*%
%TF.SameCoordinates,Original*%
%TF.FileFunction,Copper,L1,Top*%
%TF.FilePolarity,Positive*%
%FSLAX46Y46*%
G04 Gerber Fmt 4.6, Leading zero omitted, Abs format (unit mm)*
G04 Created by KiCad (PCBNEW 7.0.1) date 2023-05-23 13:55:39*
%MOMM*%
%LPD*%
G01*
G04 APERTURE LIST*
%TA.AperFunction,ComponentPad*%
%ADD10R,1.500000X1.500000*%
%TD*%
%TA.AperFunction,ComponentPad*%
%ADD11C,1.500000*%
%TD*%
%TA.AperFunction,ComponentPad*%
%ADD12R,1.600000X1.600000*%
%TD*%
%TA.AperFunction,ComponentPad*%
%ADD13O,1.600000X1.600000*%
%TD*%
%TA.AperFunction,ComponentPad*%
%ADD14C,1.524000*%
%TD*%
%TA.AperFunction,ComponentPad*%
%ADD15R,1.524000X1.524000*%
%TD*%
%TA.AperFunction,ComponentPad*%
%ADD16C,1.600000*%
%TD*%
%TA.AperFunction,ComponentPad*%
%ADD17R,1.700000X1.700000*%
%TD*%
%TA.AperFunction,ComponentPad*%
%ADD18O,1.700000X1.700000*%
%TD*%
%TA.AperFunction,ComponentPad*%
%ADD19R,1.800000X1.800000*%
%TD*%
%TA.AperFunction,ComponentPad*%
%ADD20C,1.800000*%
%TD*%
%TA.AperFunction,ViaPad*%
%ADD21C,0.800000*%
%TD*%
%TA.AperFunction,Conductor*%
%ADD22C,0.250000*%
%TD*%
G04 APERTURE END LIST*
D10*
%TO.P,U2,1,VO*%
%TO.N,+3.3V*%
X147025000Y-100350000D03*
D11*
%TO.P,U2,2,GND*%
%TO.N,GND*%
X147025000Y-97810000D03*
%TO.P,U2,3,VI*%
%TO.N,/Vin*%
X147025000Y-95270000D03*
%TD*%
D12*
%TO.P,U1,1,~{MCLR}*%
%TO.N,/MCLR*%
X131080000Y-68090000D03*
D13*
%TO.P,U1,2,A0*%
%TO.N,/A0*%
X131080000Y-70630000D03*
%TO.P,U1,3,A1*%
%TO.N,/A1*%
X131080000Y-73170000D03*
%TO.P,U1,4,B0*%
%TO.N,/B0*%
X131080000Y-75710000D03*
%TO.P,U1,5,B1*%
%TO.N,/B1*%
X131080000Y-78250000D03*
%TO.P,U1,6,B2*%
%TO.N,/B2*%
X131080000Y-80790000D03*
%TO.P,U1,7,B3*%
%TO.N,/U1TX*%
X131080000Y-83330000D03*
%TO.P,U1,8,Vss*%
%TO.N,GND*%
X131080000Y-85870000D03*
%TO.P,U1,9,A2*%
%TO.N,/U1RX*%
X131080000Y-88410000D03*
%TO.P,U1,10,A3*%
%TO.N,/A3*%
X131080000Y-90950000D03*
%TO.P,U1,11,B4*%
%TO.N,/GREEN*%
X131080000Y-93490000D03*
%TO.P,U1,12,A4*%
%TO.N,/USER*%
X131080000Y-96030000D03*
%TO.P,U1,13,Vdd*%
%TO.N,+3.3V*%
X131080000Y-98570000D03*
%TO.P,U1,14,B5*%
%TO.N,/YELLOW*%
X131080000Y-101110000D03*
%TO.P,U1,15,B6*%
%TO.N,/B6*%
X138700000Y-101110000D03*
%TO.P,U1,16,B7*%
%TO.N,/B7*%
X138700000Y-98570000D03*
%TO.P,U1,17,B8*%
%TO.N,/B8*%
X138700000Y-96030000D03*
%TO.P,U1,18,B9*%
%TO.N,/B9*%
X138700000Y-93490000D03*
%TO.P,U1,19,Vss*%
%TO.N,GND*%
X138700000Y-90950000D03*
%TO.P,U1,20,Vcap*%
%TO.N,Net-(U1-Vcap)*%
X138700000Y-88410000D03*
%TO.P,U1,21,B10*%
%TO.N,/B10*%
X138700000Y-85870000D03*
%TO.P,U1,22,B11*%
%TO.N,/B11*%
X138700000Y-83330000D03*
%TO.P,U1,23,B12*%
%TO.N,/B12*%
X138700000Y-80790000D03*
%TO.P,U1,24,B13*%
%TO.N,/B13*%
X138700000Y-78250000D03*
%TO.P,U1,25,B14*%
%TO.N,/B14*%
X138700000Y-75710000D03*
%TO.P,U1,26,B15*%
%TO.N,/B15*%
X138700000Y-73170000D03*
%TO.P,U1,27,AVss*%
%TO.N,GND*%
X138700000Y-70630000D03*
%TO.P,U1,28,AVdd*%
%TO.N,+3.3V*%
X138700000Y-68090000D03*
%TD*%
D14*
%TO.P,SW3,1,A*%
%TO.N,+5V*%
X121805000Y-62050000D03*
%TO.P,SW3,2,B*%
%TO.N,/Vin*%
X119265000Y-62050000D03*
%TO.P,SW3,3,C*%
%TO.N,Net-(J4-Pin_1)*%
X116725000Y-62050000D03*
%TD*%
%TO.P,SW2,1,1*%
%TO.N,GND*%
X128175000Y-61900000D03*
D15*
%TO.P,SW2,2,2*%
%TO.N,/USER*%
X128175000Y-64900000D03*
%TD*%
D14*
%TO.P,SW1,1,1*%
%TO.N,GND*%
X125225000Y-61900000D03*
D15*
%TO.P,SW1,2,2*%
%TO.N,/MCLR*%
X125225000Y-64900000D03*
%TD*%
D16*
%TO.P,R5,1*%
%TO.N,Net-(D3-K)*%
X118075000Y-100950000D03*
D13*
%TO.P,R5,2*%
%TO.N,/YELLOW*%
X118075000Y-93330000D03*
%TD*%
D16*
%TO.P,R4,1*%
%TO.N,Net-(D2-K)*%
X118325000Y-90425000D03*
D13*
%TO.P,R4,2*%
%TO.N,/GREEN*%
X118325000Y-82805000D03*
%TD*%
D16*
%TO.P,R3,1*%
%TO.N,+3.3V*%
X120790000Y-98175000D03*
D13*
%TO.P,R3,2*%
%TO.N,/USER*%
X128410000Y-98175000D03*
%TD*%
D16*
%TO.P,R2,1*%
%TO.N,+3.3V*%
X123575000Y-76000000D03*
D13*
%TO.P,R2,2*%
%TO.N,/MCLR*%
X123575000Y-68380000D03*
%TD*%
D16*
%TO.P,R1,1*%
%TO.N,Net-(D1-K)*%
X150075000Y-74600000D03*
D13*
%TO.P,R1,2*%
%TO.N,GND*%
X150075000Y-82220000D03*
%TD*%
D17*
%TO.P,J4,1,Pin_1*%
%TO.N,Net-(J4-Pin_1)*%
X112375000Y-62275000D03*
D18*
%TO.P,J4,2,Pin_2*%
%TO.N,GND*%
X112375000Y-64815000D03*
%TD*%
D17*
%TO.P,J3,1,Pin_1*%
%TO.N,unconnected-(J3-Pin_1-Pad1)*%
X135850000Y-62500000D03*
D18*
%TO.P,J3,2,Pin_2*%
%TO.N,/U1TX*%
X138390000Y-62500000D03*
%TO.P,J3,3,Pin_3*%
%TO.N,/U1RX*%
X140930000Y-62500000D03*
%TO.P,J3,4,Pin_4*%
%TO.N,+5V*%
X143470000Y-62500000D03*
%TO.P,J3,5,Pin_5*%
%TO.N,unconnected-(J3-Pin_5-Pad5)*%
X146010000Y-62500000D03*
%TO.P,J3,6,Pin_6*%
%TO.N,GND*%
X148550000Y-62500000D03*
%TD*%
D17*
%TO.P,J2,1,Pin_1*%
%TO.N,/B15*%
X157850000Y-72105000D03*
D18*
%TO.P,J2,2,Pin_2*%
%TO.N,/B14*%
X157850000Y-74645000D03*
%TO.P,J2,3,Pin_3*%
%TO.N,/B13*%
X157850000Y-77185000D03*
%TO.P,J2,4,Pin_4*%
%TO.N,/B12*%
X157850000Y-79725000D03*
%TO.P,J2,5,Pin_5*%
%TO.N,/B11*%
X157850000Y-82265000D03*
%TO.P,J2,6,Pin_6*%
%TO.N,/B10*%
X157850000Y-84805000D03*
%TO.P,J2,7,Pin_7*%
%TO.N,/B9*%
X157850000Y-87345000D03*
%TO.P,J2,8,Pin_8*%
%TO.N,/B8*%
X157850000Y-89885000D03*
%TO.P,J2,9,Pin_9*%
%TO.N,/B7*%
X157850000Y-92425000D03*
%TO.P,J2,10,Pin_10*%
%TO.N,/Vin*%
X157850000Y-94965000D03*
%TO.P,J2,11,Pin_11*%
%TO.N,+3.3V*%
X157850000Y-97505000D03*
%TO.P,J2,12,Pin_12*%
%TO.N,GND*%
X157850000Y-100045000D03*
%TD*%
D17*
%TO.P,J1,1,Pin_1*%
%TO.N,/A0*%
X112300000Y-70685000D03*
D18*
%TO.P,J1,2,Pin_2*%
%TO.N,/A1*%
X112300000Y-73225000D03*
%TO.P,J1,3,Pin_3*%
%TO.N,/B0*%
X112300000Y-75765000D03*
%TO.P,J1,4,Pin_4*%
%TO.N,/B1*%
X112300000Y-78305000D03*
%TO.P,J1,5,Pin_5*%
%TO.N,/B2*%
X112300000Y-80845000D03*
%TO.P,J1,6,Pin_6*%
%TO.N,/A3*%
X112300000Y-83385000D03*
%TO.P,J1,7,Pin_7*%
%TO.N,/GREEN*%
X112300000Y-85925000D03*
%TO.P,J1,8,Pin_8*%
%TO.N,/YELLOW*%
X112300000Y-88465000D03*
%TO.P,J1,9,Pin_9*%
%TO.N,/B6*%
X112300000Y-91005000D03*
%TO.P,J1,10,Pin_10*%
%TO.N,/Vin*%
X112300000Y-93545000D03*
%TO.P,J1,11,Pin_11*%
%TO.N,+3.3V*%
X112300000Y-96085000D03*
%TO.P,J1,12,Pin_12*%
%TO.N,GND*%
X112300000Y-98625000D03*
%TD*%
D19*
%TO.P,D3,1,K*%
%TO.N,Net-(D3-K)*%
X124210000Y-92500000D03*
D20*
%TO.P,D3,2,A*%
%TO.N,+3.3V*%
X126750000Y-92500000D03*
%TD*%
D19*
%TO.P,D2,1,K*%
%TO.N,Net-(D2-K)*%
X124225000Y-85150000D03*
D20*
%TO.P,D2,2,A*%
%TO.N,+3.3V*%
X126765000Y-85150000D03*
%TD*%
D19*
%TO.P,D1,1,K*%
%TO.N,Net-(D1-K)*%
X157625000Y-65450000D03*
D20*
%TO.P,D1,2,A*%
%TO.N,+3.3V*%
X155085000Y-65450000D03*
%TD*%
D16*
%TO.P,C6,1*%
%TO.N,+3.3V*%
X147550000Y-106500000D03*
%TO.P,C6,2*%
%TO.N,GND*%
X145050000Y-106500000D03*
%TD*%
%TO.P,C5,1*%
%TO.N,Net-(U1-Vcap)*%
X143275000Y-80625000D03*
%TO.P,C5,2*%
%TO.N,GND*%
X143275000Y-75625000D03*
%TD*%
%TO.P,C4,1*%
%TO.N,+3.3V*%
X154500000Y-106700000D03*
%TO.P,C4,2*%
%TO.N,GND*%
X157000000Y-106700000D03*
%TD*%
%TO.P,C3,1*%
%TO.N,/Vin*%
X153400000Y-95150000D03*
%TO.P,C3,2*%
%TO.N,GND*%
X153400000Y-100150000D03*
%TD*%
%TO.P,C2,1*%
%TO.N,+3.3V*%
X150075000Y-66350000D03*
%TO.P,C2,2*%
%TO.N,GND*%
X150075000Y-71350000D03*
%TD*%
%TO.P,C1,1*%
%TO.N,+3.3V*%
X143650000Y-66575000D03*
%TO.P,C1,2*%
%TO.N,GND*%
X143650000Y-71575000D03*
%TD*%
D21*
%TO.N,/Vin*%
X121000000Y-95625000D03*
X134400000Y-94850000D03*
%TD*%
D22*
%TO.N,/Vin*%
X128300000Y-95650000D02*
X121025000Y-95650000D01*
X134400000Y-94850000D02*
X129100000Y-94850000D01*
X121025000Y-95650000D02*
X121000000Y-95625000D01*
X129100000Y-94850000D02*
X128300000Y-95650000D01*
%TO.N,/A3*%
X128875000Y-81975000D02*
X128580000Y-81680000D01*
X128875000Y-88745000D02*
X128875000Y-81975000D01*
X131080000Y-90950000D02*
X128875000Y-88745000D01*
X128580000Y-81680000D02*
X114005000Y-81680000D01*
X114005000Y-81680000D02*
X112300000Y-83385000D01*
%TO.N,/GREEN*%
X126152412Y-82805000D02*
X118325000Y-82805000D01*
X127990000Y-84642588D02*
X126152412Y-82805000D01*
X127990000Y-90400000D02*
X127990000Y-84642588D01*
X131080000Y-93490000D02*
X127990000Y-90400000D01*
%TO.N,/U1RX*%
X133950000Y-85540000D02*
X131080000Y-88410000D01*
X133950000Y-65850000D02*
X133950000Y-85540000D01*
X137580000Y-65850000D02*
X133950000Y-65850000D01*
X140930000Y-62500000D02*
X137580000Y-65850000D01*
%TO.N,/U1TX*%
X132950000Y-81460000D02*
X131080000Y-83330000D01*
X136165000Y-64725000D02*
X132950000Y-64725000D01*
X132950000Y-64725000D02*
X132950000Y-81460000D01*
X138390000Y-62500000D02*
X136165000Y-64725000D01*
%TO.N,/B6*%
X115975000Y-93450000D02*
X114745000Y-93450000D01*
X115975000Y-101950000D02*
X115975000Y-93450000D01*
X117400000Y-103375000D02*
X115975000Y-101950000D01*
X136435000Y-103375000D02*
X117400000Y-103375000D01*
X138700000Y-101110000D02*
X136435000Y-103375000D01*
X114745000Y-93450000D02*
X112300000Y-91005000D01*
%TO.N,/USER*%
X128935000Y-98175000D02*
X128410000Y-98175000D01*
X131080000Y-96030000D02*
X128935000Y-98175000D01*
%TO.N,/B7*%
X142625000Y-92425000D02*
X157850000Y-92425000D01*
X142625000Y-94645000D02*
X142625000Y-92425000D01*
X138700000Y-98570000D02*
X142625000Y-94645000D01*
%TO.N,/B8*%
X141550000Y-89900000D02*
X141565000Y-89885000D01*
X141565000Y-89885000D02*
X157850000Y-89885000D01*
X141550000Y-93180000D02*
X141550000Y-89900000D01*
X138700000Y-96030000D02*
X141550000Y-93180000D01*
%TO.N,/B9*%
X140725000Y-87575000D02*
X140955000Y-87345000D01*
X140955000Y-87345000D02*
X157850000Y-87345000D01*
X140725000Y-91465000D02*
X140725000Y-87575000D01*
X138700000Y-93490000D02*
X140725000Y-91465000D01*
%TO.N,/B10*%
X156785000Y-85870000D02*
X157850000Y-84805000D01*
X138700000Y-85870000D02*
X156785000Y-85870000D01*
%TO.N,Net-(U1-Vcap)*%
X139425000Y-84475000D02*
X143275000Y-80625000D01*
X138504009Y-84475000D02*
X139425000Y-84475000D01*
X137575000Y-85404009D02*
X138504009Y-84475000D01*
X137575000Y-87285000D02*
X137575000Y-85404009D01*
X138700000Y-88410000D02*
X137575000Y-87285000D01*
%TO.N,/Vin*%
X147025000Y-95270000D02*
X153280000Y-95270000D01*
X153280000Y-95270000D02*
X153400000Y-95150000D01*
X153585000Y-94965000D02*
X153400000Y-95150000D01*
X157850000Y-94965000D02*
X153585000Y-94965000D01*
%TO.N,/B13*%
X138700000Y-78250000D02*
X156785000Y-78250000D01*
X156785000Y-78250000D02*
X157850000Y-77185000D01*
%TO.N,/B12*%
X156950000Y-78825000D02*
X157850000Y-79725000D01*
X140665000Y-78825000D02*
X156950000Y-78825000D01*
X138700000Y-80790000D02*
X140665000Y-78825000D01*
%TO.N,/B11*%
X142675000Y-79275000D02*
X142675000Y-79355000D01*
X142675000Y-79355000D02*
X138700000Y-83330000D01*
X154860000Y-79275000D02*
X142675000Y-79275000D01*
X157850000Y-82265000D02*
X154860000Y-79275000D01*
%TO.N,/B14*%
X146550000Y-74050000D02*
X142025000Y-74050000D01*
X150850000Y-76800000D02*
X149300000Y-76800000D01*
X140365000Y-75710000D02*
X138700000Y-75710000D01*
X153005000Y-74645000D02*
X150850000Y-76800000D01*
X157850000Y-74645000D02*
X153005000Y-74645000D01*
X149300000Y-76800000D02*
X146550000Y-74050000D01*
X142025000Y-74050000D02*
X140365000Y-75710000D01*
%TO.N,/B15*%
X150625000Y-76025000D02*
X154545000Y-72105000D01*
X149450000Y-76025000D02*
X150625000Y-76025000D01*
X146595000Y-73170000D02*
X149450000Y-76025000D01*
X154545000Y-72105000D02*
X157850000Y-72105000D01*
X138700000Y-73170000D02*
X146595000Y-73170000D01*
%TO.N,Net-(D1-K)*%
X150075000Y-73000000D02*
X157625000Y-65450000D01*
X150075000Y-74600000D02*
X150075000Y-73000000D01*
%TO.N,/MCLR*%
X128415000Y-68090000D02*
X125225000Y-64900000D01*
X131080000Y-68090000D02*
X128415000Y-68090000D01*
X123575000Y-66550000D02*
X125225000Y-64900000D01*
X123575000Y-68380000D02*
X123575000Y-66550000D01*
%TO.N,+5V*%
X141770000Y-60800000D02*
X143470000Y-62500000D01*
X121805000Y-62050000D02*
X123055000Y-60800000D01*
X123055000Y-60800000D02*
X141770000Y-60800000D01*
%TO.N,Net-(J4-Pin_1)*%
X116500000Y-62275000D02*
X116725000Y-62050000D01*
X112375000Y-62275000D02*
X116500000Y-62275000D01*
%TO.N,Net-(D3-K)*%
X118075000Y-95325000D02*
X118075000Y-100950000D01*
X124210000Y-92500000D02*
X120900000Y-92500000D01*
X120900000Y-92500000D02*
X118075000Y-95325000D01*
%TO.N,/YELLOW*%
X129690000Y-102500000D02*
X131080000Y-101110000D01*
X117475000Y-102500000D02*
X129690000Y-102500000D01*
X116950000Y-101975000D02*
X117475000Y-102500000D01*
X116950000Y-94455000D02*
X116950000Y-101975000D01*
X118075000Y-93330000D02*
X116950000Y-94455000D01*
%TO.N,Net-(D2-K)*%
X123600000Y-85150000D02*
X124225000Y-85150000D01*
X118325000Y-90425000D02*
X123600000Y-85150000D01*
%TO.N,/YELLOW*%
X117165000Y-93330000D02*
X118075000Y-93330000D01*
X112300000Y-88465000D02*
X117165000Y-93330000D01*
%TO.N,/GREEN*%
X115205000Y-85925000D02*
X118325000Y-82805000D01*
X112300000Y-85925000D02*
X115205000Y-85925000D01*
%TO.N,/B2*%
X112300000Y-80845000D02*
X131025000Y-80845000D01*
X131025000Y-80845000D02*
X131080000Y-80790000D01*
%TO.N,/B1*%
X131025000Y-78305000D02*
X131080000Y-78250000D01*
X112300000Y-78305000D02*
X131025000Y-78305000D01*
%TO.N,/B0*%
X129410000Y-75710000D02*
X131080000Y-75710000D01*
X128225000Y-74525000D02*
X129410000Y-75710000D01*
X113540000Y-74525000D02*
X128225000Y-74525000D01*
X112300000Y-75765000D02*
X113540000Y-74525000D01*
%TO.N,/A1*%
X131025000Y-73225000D02*
X131080000Y-73170000D01*
X112300000Y-73225000D02*
X131025000Y-73225000D01*
%TO.N,/A0*%
X112300000Y-70685000D02*
X131025000Y-70685000D01*
X131025000Y-70685000D02*
X131080000Y-70630000D01*
%TD*%
%TA.AperFunction,Conductor*%
%TO.N,+3.3V*%
G36*
X122786646Y-60017005D02*
G01*
X122832003Y-60062126D01*
X122848831Y-60123851D01*
X122832650Y-60185749D01*
X122787767Y-60231342D01*
X122787183Y-60231686D01*
X122769904Y-60240133D01*
X122751267Y-60247512D01*
X122715931Y-60273185D01*
X122706174Y-60279595D01*
X122668580Y-60301829D01*
X122654413Y-60315996D01*
X122639624Y-60328626D01*
X122623413Y-60340404D01*
X122595572Y-60374058D01*
X122587711Y-60382697D01*
X122188795Y-60781613D01*
X122133208Y-60813707D01*
X122069021Y-60813707D01*
X122025068Y-60801930D01*
X122025067Y-60801929D01*
X122025064Y-60801929D01*
X121804999Y-60782676D01*
X121584934Y-60801929D01*
X121371548Y-60859106D01*
X121171338Y-60952466D01*
X120990379Y-61079174D01*
X120834174Y-61235379D01*
X120707466Y-61416338D01*
X120647382Y-61545189D01*
X120601625Y-61597365D01*
X120535000Y-61616784D01*
X120468375Y-61597365D01*
X120422618Y-61545189D01*
X120405744Y-61509004D01*
X120362534Y-61416339D01*
X120235826Y-61235380D01*
X120079620Y-61079174D01*
X119898662Y-60952466D01*
X119838691Y-60924501D01*
X119698451Y-60859106D01*
X119485065Y-60801929D01*
X119265000Y-60782676D01*
X119044934Y-60801929D01*
X118831548Y-60859106D01*
X118631338Y-60952466D01*
X118450379Y-61079174D01*
X118294174Y-61235379D01*
X118167466Y-61416338D01*
X118107382Y-61545189D01*
X118061625Y-61597365D01*
X117995000Y-61616784D01*
X117928375Y-61597365D01*
X117882618Y-61545189D01*
X117865744Y-61509004D01*
X117822534Y-61416339D01*
X117695826Y-61235380D01*
X117539620Y-61079174D01*
X117358662Y-60952466D01*
X117298691Y-60924501D01*
X117158451Y-60859106D01*
X116945065Y-60801929D01*
X116725000Y-60782676D01*
X116504934Y-60801929D01*
X116291548Y-60859106D01*
X116091338Y-60952466D01*
X115910379Y-61079174D01*
X115754174Y-61235379D01*
X115627466Y-61416338D01*
X115552126Y-61577905D01*
X115506369Y-61630081D01*
X115439744Y-61649500D01*
X113849499Y-61649500D01*
X113787499Y-61632887D01*
X113742112Y-61587500D01*
X113725499Y-61525500D01*
X113725499Y-61377130D01*
X113725499Y-61377127D01*
X113719091Y-61317517D01*
X113668796Y-61182669D01*
X113582546Y-61067454D01*
X113467331Y-60981204D01*
X113332483Y-60930909D01*
X113272873Y-60924500D01*
X113272869Y-60924500D01*
X111477130Y-60924500D01*
X111417515Y-60930909D01*
X111282669Y-60981204D01*
X111167454Y-61067454D01*
X111081204Y-61182668D01*
X111030909Y-61317516D01*
X111024500Y-61377130D01*
X111024500Y-63172869D01*
X111030909Y-63232484D01*
X111034046Y-63240894D01*
X111081204Y-63367331D01*
X111167454Y-63482546D01*
X111282669Y-63568796D01*
X111394907Y-63610658D01*
X111414082Y-63617810D01*
X111464462Y-63652789D01*
X111491915Y-63707634D01*
X111489726Y-63768926D01*
X111458431Y-63821673D01*
X111336503Y-63943601D01*
X111200965Y-64137170D01*
X111101097Y-64351336D01*
X111039936Y-64579592D01*
X111019340Y-64814999D01*
X111039936Y-65050407D01*
X111076853Y-65188181D01*
X111101097Y-65278663D01*
X111200965Y-65492830D01*
X111336505Y-65686401D01*
X111503599Y-65853495D01*
X111697170Y-65989035D01*
X111911337Y-66088903D01*
X112139592Y-66150063D01*
X112375000Y-66170659D01*
X112610408Y-66150063D01*
X112838663Y-66088903D01*
X113052830Y-65989035D01*
X113246401Y-65853495D01*
X113413495Y-65686401D01*
X113549035Y-65492830D01*
X113648903Y-65278663D01*
X113710063Y-65050408D01*
X113730659Y-64815000D01*
X113727718Y-64781390D01*
X113710063Y-64579592D01*
X113648903Y-64351337D01*
X113549035Y-64137171D01*
X113413495Y-63943599D01*
X113291569Y-63821673D01*
X113260273Y-63768927D01*
X113258084Y-63707634D01*
X113285537Y-63652789D01*
X113335916Y-63617810D01*
X113467331Y-63568796D01*
X113582546Y-63482546D01*
X113668796Y-63367331D01*
X113719091Y-63232483D01*
X113725500Y-63172873D01*
X113725500Y-63024500D01*
X113742113Y-62962500D01*
X113787500Y-62917113D01*
X113849500Y-62900500D01*
X115738692Y-62900500D01*
X115786145Y-62909939D01*
X115826373Y-62936819D01*
X115910380Y-63020826D01*
X116091338Y-63147534D01*
X116291550Y-63240894D01*
X116504932Y-63298070D01*
X116725000Y-63317323D01*
X116945068Y-63298070D01*
X117158450Y-63240894D01*
X117358662Y-63147534D01*
X117539620Y-63020826D01*
X117695826Y-62864620D01*
X117822534Y-62683662D01*
X117882617Y-62554811D01*
X117928375Y-62502635D01*
X117995000Y-62483216D01*
X118061625Y-62502635D01*
X118107382Y-62554811D01*
X118167466Y-62683662D01*
X118294174Y-62864620D01*
X118450380Y-63020826D01*
X118631338Y-63147534D01*
X118831550Y-63240894D01*
X119044932Y-63298070D01*
X119265000Y-63317323D01*
X119485068Y-63298070D01*
X119698450Y-63240894D01*
X119898662Y-63147534D01*
X120079620Y-63020826D01*
X120235826Y-62864620D01*
X120362534Y-62683662D01*
X120422617Y-62554811D01*
X120468375Y-62502635D01*
X120535000Y-62483216D01*
X120601625Y-62502635D01*
X120647382Y-62554811D01*
X120707466Y-62683662D01*
X120834174Y-62864620D01*
X120990380Y-63020826D01*
X121171338Y-63147534D01*
X121371550Y-63240894D01*
X121584932Y-63298070D01*
X121805000Y-63317323D01*
X122025068Y-63298070D01*
X122238450Y-63240894D01*
X122438662Y-63147534D01*
X122619620Y-63020826D01*
X122775826Y-62864620D01*
X122902534Y-62683662D01*
X122995894Y-62483450D01*
X123053070Y-62270068D01*
X123072323Y-62050000D01*
X123053070Y-61829932D01*
X123053070Y-61829930D01*
X123041293Y-61785979D01*
X123041292Y-61721791D01*
X123073383Y-61666207D01*
X123277774Y-61461816D01*
X123318001Y-61434939D01*
X123365453Y-61425500D01*
X123883505Y-61425500D01*
X123938349Y-61438288D01*
X123981881Y-61474014D01*
X124005122Y-61525309D01*
X124003280Y-61581594D01*
X123976929Y-61679934D01*
X123957676Y-61900000D01*
X123976929Y-62120065D01*
X124017122Y-62270068D01*
X124034106Y-62333450D01*
X124127466Y-62533662D01*
X124254174Y-62714620D01*
X124410380Y-62870826D01*
X124591338Y-62997534D01*
X124791550Y-63090894D01*
X125004932Y-63148070D01*
X125225000Y-63167323D01*
X125445068Y-63148070D01*
X125658450Y-63090894D01*
X125858662Y-62997534D01*
X126039620Y-62870826D01*
X126195826Y-62714620D01*
X126322534Y-62533662D01*
X126415894Y-62333450D01*
X126473070Y-62120068D01*
X126492323Y-61900000D01*
X126473070Y-61679932D01*
X126446719Y-61581593D01*
X126444878Y-61525309D01*
X126468119Y-61474014D01*
X126511651Y-61438288D01*
X126566495Y-61425500D01*
X126833505Y-61425500D01*
X126888349Y-61438288D01*
X126931881Y-61474014D01*
X126955122Y-61525309D01*
X126953280Y-61581594D01*
X126926929Y-61679934D01*
X126907676Y-61900000D01*
X126926929Y-62120065D01*
X126967122Y-62270068D01*
X126984106Y-62333450D01*
X127077466Y-62533662D01*
X127204174Y-62714620D01*
X127360380Y-62870826D01*
X127541338Y-62997534D01*
X127741550Y-63090894D01*
X127954932Y-63148070D01*
X128175000Y-63167323D01*
X128395068Y-63148070D01*
X128608450Y-63090894D01*
X128808662Y-62997534D01*
X128989620Y-62870826D01*
X129145826Y-62714620D01*
X129272534Y-62533662D01*
X129365894Y-62333450D01*
X129423070Y-62120068D01*
X129442323Y-61900000D01*
X129423070Y-61679932D01*
X129396719Y-61581593D01*
X129394878Y-61525309D01*
X129418119Y-61474014D01*
X129461651Y-61438288D01*
X129516495Y-61425500D01*
X134380443Y-61425500D01*
X134446236Y-61444394D01*
X134491979Y-61495318D01*
X134503733Y-61562754D01*
X134499500Y-61602129D01*
X134499500Y-63397869D01*
X134505909Y-63457484D01*
X134515257Y-63482546D01*
X134556204Y-63592331D01*
X134642454Y-63707546D01*
X134757669Y-63793796D01*
X134892517Y-63844091D01*
X134952127Y-63850500D01*
X135855548Y-63850499D01*
X135911831Y-63864009D01*
X135955850Y-63901594D01*
X135978015Y-63955064D01*
X135973493Y-64012770D01*
X135943272Y-64062136D01*
X135942272Y-64063137D01*
X135902028Y-64090049D01*
X135854547Y-64099500D01*
X133020849Y-64099500D01*
X132997615Y-64097304D01*
X132989587Y-64095772D01*
X132934241Y-64099255D01*
X132926455Y-64099500D01*
X132910650Y-64099500D01*
X132894957Y-64101481D01*
X132887215Y-64102212D01*
X132831862Y-64105695D01*
X132824085Y-64108222D01*
X132801322Y-64113310D01*
X132793210Y-64114335D01*
X132741619Y-64134760D01*
X132734296Y-64137396D01*
X132681559Y-64154532D01*
X132674656Y-64158913D01*
X132653876Y-64169501D01*
X132646268Y-64172513D01*
X132601389Y-64205119D01*
X132594952Y-64209494D01*
X132548120Y-64239215D01*
X132542528Y-64245171D01*
X132525031Y-64260597D01*
X132518412Y-64265406D01*
X132483053Y-64308146D01*
X132477905Y-64313986D01*
X132439938Y-64354417D01*
X132435997Y-64361586D01*
X132422886Y-64380878D01*
X132417675Y-64387176D01*
X132394060Y-64437360D01*
X132390526Y-64444296D01*
X132363802Y-64492908D01*
X132361770Y-64500823D01*
X132353868Y-64522774D01*
X132350385Y-64530174D01*
X132339993Y-64584650D01*
X132338295Y-64592247D01*
X132324500Y-64645980D01*
X132324500Y-64654151D01*
X132322304Y-64677385D01*
X132320772Y-64685412D01*
X132324255Y-64740759D01*
X132324500Y-64748545D01*
X132324500Y-66749826D01*
X132305995Y-66814993D01*
X132256004Y-66860710D01*
X132189447Y-66873332D01*
X132126189Y-66849092D01*
X132122333Y-66846205D01*
X132122331Y-66846204D01*
X131987483Y-66795909D01*
X131927873Y-66789500D01*
X131927869Y-66789500D01*
X130232130Y-66789500D01*
X130172515Y-66795909D01*
X130037669Y-66846204D01*
X129922454Y-66932454D01*
X129836204Y-67047668D01*
X129792139Y-67165812D01*
X129785909Y-67182517D01*
X129781075Y-67227484D01*
X129779500Y-67242131D01*
X129779500Y-67340500D01*
X129762887Y-67402500D01*
X129717500Y-67447887D01*
X129655500Y-67464500D01*
X128725453Y-67464500D01*
X128678000Y-67455061D01*
X128637772Y-67428181D01*
X127583771Y-66374180D01*
X127553521Y-66324817D01*
X127548979Y-66267101D01*
X127571134Y-66213614D01*
X127615157Y-66176014D01*
X127671452Y-66162499D01*
X128984870Y-66162499D01*
X128984872Y-66162499D01*
X129044483Y-66156091D01*
X129179331Y-66105796D01*
X129294546Y-66019546D01*
X129380796Y-65904331D01*
X129431091Y-65769483D01*
X129437500Y-65709873D01*
X129437499Y-64090128D01*
X129431091Y-64030517D01*
X129380796Y-63895669D01*
X129294546Y-63780454D01*
X129179331Y-63694204D01*
X129044483Y-63643909D01*
X128984873Y-63637500D01*
X128984869Y-63637500D01*
X127365130Y-63637500D01*
X127305515Y-63643909D01*
X127170669Y-63694204D01*
X127055454Y-63780454D01*
X126969204Y-63895668D01*
X126918909Y-64030515D01*
X126918909Y-64030517D01*
X126912509Y-64090049D01*
X126912500Y-64090131D01*
X126912500Y-65403547D01*
X126898985Y-65459842D01*
X126861385Y-65503865D01*
X126807898Y-65526020D01*
X126750182Y-65521478D01*
X126700819Y-65491228D01*
X126523818Y-65314227D01*
X126496938Y-65273999D01*
X126487499Y-65226546D01*
X126487499Y-64090130D01*
X126487499Y-64090127D01*
X126481091Y-64030517D01*
X126430796Y-63895669D01*
X126344546Y-63780454D01*
X126229331Y-63694204D01*
X126094483Y-63643909D01*
X126034873Y-63637500D01*
X126034869Y-63637500D01*
X124415130Y-63637500D01*
X124355515Y-63643909D01*
X124220669Y-63694204D01*
X124105454Y-63780454D01*
X124019204Y-63895668D01*
X123968909Y-64030515D01*
X123968909Y-64030517D01*
X123962509Y-64090049D01*
X123962500Y-64090131D01*
X123962500Y-65226546D01*
X123953061Y-65273999D01*
X123926181Y-65314227D01*
X123191208Y-66049199D01*
X123175110Y-66062096D01*
X123127096Y-66113225D01*
X123124391Y-66116017D01*
X123104874Y-66135534D01*
X123102415Y-66138705D01*
X123094842Y-66147572D01*
X123064935Y-66179420D01*
X123055285Y-66196974D01*
X123044609Y-66213228D01*
X123032326Y-66229063D01*
X123014975Y-66269158D01*
X123009838Y-66279644D01*
X122988802Y-66317907D01*
X122983821Y-66337309D01*
X122977520Y-66355711D01*
X122969561Y-66374102D01*
X122962728Y-66417242D01*
X122960360Y-66428674D01*
X122949500Y-66470978D01*
X122949500Y-66491016D01*
X122947973Y-66510413D01*
X122944840Y-66530196D01*
X122948390Y-66567751D01*
X122948950Y-66573675D01*
X122949500Y-66585344D01*
X122949500Y-67165812D01*
X122935489Y-67223069D01*
X122896623Y-67267387D01*
X122735859Y-67379953D01*
X122574953Y-67540859D01*
X122444432Y-67727264D01*
X122348261Y-67933502D01*
X122289364Y-68153310D01*
X122269531Y-68380000D01*
X122289364Y-68606689D01*
X122348261Y-68826497D01*
X122444432Y-69032735D01*
X122574953Y-69219140D01*
X122735859Y-69380046D01*
X122922264Y-69510567D01*
X122922265Y-69510567D01*
X122922266Y-69510568D01*
X123128504Y-69606739D01*
X123348308Y-69665635D01*
X123575000Y-69685468D01*
X123801692Y-69665635D01*
X124021496Y-69606739D01*
X124227734Y-69510568D01*
X124414139Y-69380047D01*
X124575047Y-69219139D01*
X124705568Y-69032734D01*
X124801739Y-68826496D01*
X124860635Y-68606692D01*
X124880468Y-68380000D01*
X124860635Y-68153308D01*
X124801739Y-67933504D01*
X124705568Y-67727266D01*
X124690071Y-67705134D01*
X124575046Y-67540859D01*
X124414140Y-67379953D01*
X124253377Y-67267387D01*
X124214511Y-67223069D01*
X124200500Y-67165812D01*
X124200500Y-66860452D01*
X124209939Y-66812999D01*
X124236819Y-66772771D01*
X124810771Y-66198818D01*
X124850999Y-66171938D01*
X124898452Y-66162499D01*
X125551546Y-66162499D01*
X125598999Y-66171938D01*
X125639227Y-66198818D01*
X127914196Y-68473787D01*
X127927096Y-68489888D01*
X127978223Y-68537900D01*
X127981020Y-68540611D01*
X128000529Y-68560120D01*
X128003711Y-68562588D01*
X128012571Y-68570155D01*
X128044418Y-68600062D01*
X128061970Y-68609711D01*
X128078238Y-68620397D01*
X128094064Y-68632673D01*
X128134146Y-68650017D01*
X128144633Y-68655155D01*
X128182907Y-68676197D01*
X128191410Y-68678379D01*
X128202308Y-68681178D01*
X128220713Y-68687478D01*
X128239104Y-68695437D01*
X128282250Y-68702270D01*
X128293668Y-68704635D01*
X128335981Y-68715500D01*
X128356016Y-68715500D01*
X128375415Y-68717027D01*
X128395196Y-68720160D01*
X128438674Y-68716050D01*
X128450344Y-68715500D01*
X129655501Y-68715500D01*
X129717501Y-68732113D01*
X129762888Y-68777500D01*
X129779501Y-68839500D01*
X129779501Y-68937872D01*
X129785909Y-68997483D01*
X129836204Y-69132331D01*
X129922454Y-69247546D01*
X130037669Y-69333796D01*
X130172517Y-69384091D01*
X130207594Y-69387862D01*
X130263513Y-69408239D01*
X130303497Y-69452327D01*
X130318332Y-69509968D01*
X130304600Y-69567881D01*
X130265464Y-69612724D01*
X130240860Y-69629952D01*
X130079953Y-69790859D01*
X129949433Y-69977263D01*
X129949433Y-69977264D01*
X129949432Y-69977266D01*
X129944469Y-69987907D01*
X129898714Y-70040081D01*
X129832089Y-70059500D01*
X113774499Y-70059500D01*
X113712499Y-70042887D01*
X113667112Y-69997500D01*
X113650499Y-69935500D01*
X113650499Y-69787130D01*
X113650499Y-69787127D01*
X113644091Y-69727517D01*
X113593796Y-69592669D01*
X113507546Y-69477454D01*
X113392331Y-69391204D01*
X113257483Y-69340909D01*
X113197873Y-69334500D01*
X113197869Y-69334500D01*
X111402130Y-69334500D01*
X111342515Y-69340909D01*
X111207669Y-69391204D01*
X111092454Y-69477454D01*
X111006204Y-69592668D01*
X110955909Y-69727516D01*
X110949500Y-69787130D01*
X110949500Y-71582869D01*
X110955909Y-71642484D01*
X110972772Y-71687696D01*
X111006204Y-71777331D01*
X111092454Y-71892546D01*
X111207669Y-71978796D01*
X111297718Y-72012382D01*
X111339082Y-72027810D01*
X111389462Y-72062789D01*
X111416915Y-72117634D01*
X111414726Y-72178926D01*
X111383431Y-72231673D01*
X111261503Y-72353601D01*
X111125965Y-72547170D01*
X111026097Y-72761336D01*
X110964936Y-72989592D01*
X110944340Y-73225000D01*
X110964936Y-73460407D01*
X111004083Y-73606505D01*
X111026097Y-73688663D01*
X111125965Y-73902830D01*
X111261505Y-74096401D01*
X111428599Y-74263495D01*
X111614160Y-74393426D01*
X111653024Y-74437743D01*
X111667035Y-74495000D01*
X111653024Y-74552257D01*
X111614159Y-74596575D01*
X111428595Y-74726508D01*
X111261505Y-74893598D01*
X111125965Y-75087170D01*
X111026097Y-75301336D01*
X110964936Y-75529592D01*
X110944340Y-75764999D01*
X110964936Y-76000407D01*
X111000046Y-76131437D01*
X111026097Y-76228663D01*
X111125965Y-76442830D01*
X111261505Y-76636401D01*
X111428599Y-76803495D01*
X111614160Y-76933426D01*
X111653024Y-76977743D01*
X111667035Y-77035000D01*
X111653024Y-77092257D01*
X111614158Y-77136575D01*
X111438471Y-77259593D01*
X111428595Y-77266508D01*
X111261505Y-77433598D01*
X111125965Y-77627170D01*
X111026097Y-77841336D01*
X110964936Y-78069592D01*
X110944340Y-78305000D01*
X110964936Y-78540407D01*
X110988999Y-78630211D01*
X111026097Y-78768663D01*
X111125965Y-78982830D01*
X111261505Y-79176401D01*
X111428599Y-79343495D01*
X111614160Y-79473426D01*
X111653024Y-79517743D01*
X111667035Y-79575000D01*
X111653024Y-79632257D01*
X111614158Y-79676575D01*
X111529680Y-79735728D01*
X111428595Y-79806508D01*
X111261505Y-79973598D01*
X111125965Y-80167170D01*
X111026097Y-80381336D01*
X110964936Y-80609592D01*
X110944340Y-80845000D01*
X110964936Y-81080407D01*
X111004083Y-81226505D01*
X111026097Y-81308663D01*
X111125965Y-81522830D01*
X111261505Y-81716401D01*
X111428599Y-81883495D01*
X111614160Y-82013426D01*
X111653024Y-82057743D01*
X111667035Y-82115000D01*
X111653024Y-82172257D01*
X111614158Y-82216575D01*
X111435292Y-82341819D01*
X111428595Y-82346508D01*
X111261505Y-82513598D01*
X111125965Y-82707170D01*
X111026097Y-82921336D01*
X110964936Y-83149592D01*
X110944340Y-83384999D01*
X110964936Y-83620407D01*
X110991123Y-83718136D01*
X111026097Y-83848663D01*
X111125965Y-84062830D01*
X111261505Y-84256401D01*
X111428599Y-84423495D01*
X111614160Y-84553426D01*
X111653024Y-84597743D01*
X111667035Y-84655000D01*
X111653024Y-84712257D01*
X111614159Y-84756575D01*
X111428595Y-84886508D01*
X111261505Y-85053598D01*
X111125965Y-85247170D01*
X111026097Y-85461336D01*
X110964936Y-85689592D01*
X110944340Y-85924999D01*
X110964936Y-86160407D01*
X111000236Y-86292146D01*
X111026097Y-86388663D01*
X111125965Y-86602830D01*
X111261505Y-86796401D01*
X111428599Y-86963495D01*
X111614160Y-87093426D01*
X111653024Y-87137743D01*
X111667035Y-87195000D01*
X111653024Y-87252257D01*
X111614158Y-87296575D01*
X111489836Y-87383627D01*
X111428595Y-87426508D01*
X111261505Y-87593598D01*
X111125965Y-87787170D01*
X111026097Y-88001336D01*
X110964936Y-88229592D01*
X110944340Y-88464999D01*
X110964936Y-88700407D01*
X110991855Y-88800870D01*
X111026097Y-88928663D01*
X111125965Y-89142830D01*
X111261505Y-89336401D01*
X111428599Y-89503495D01*
X111614160Y-89633426D01*
X111653024Y-89677743D01*
X111667035Y-89735000D01*
X111653024Y-89792257D01*
X111614159Y-89836575D01*
X111428595Y-89966508D01*
X111261505Y-90133598D01*
X111125965Y-90327170D01*
X111026097Y-90541336D01*
X110964936Y-90769592D01*
X110944340Y-91005000D01*
X110964936Y-91240407D01*
X111000235Y-91372145D01*
X111026097Y-91468663D01*
X111125965Y-91682830D01*
X111261505Y-91876401D01*
X111428599Y-92043495D01*
X111614160Y-92173426D01*
X111653024Y-92217743D01*
X111667035Y-92275000D01*
X111653024Y-92332257D01*
X111614158Y-92376575D01*
X111547699Y-92423111D01*
X111428595Y-92506508D01*
X111261505Y-92673598D01*
X111125965Y-92867170D01*
X111026097Y-93081336D01*
X110964936Y-93309592D01*
X110944340Y-93544999D01*
X110964936Y-93780407D01*
X111003214Y-93923261D01*
X111026097Y-94008663D01*
X111125965Y-94222830D01*
X111261505Y-94416401D01*
X111428599Y-94583495D01*
X111614597Y-94713732D01*
X111653460Y-94758048D01*
X111667471Y-94815305D01*
X111653461Y-94872561D01*
X111614595Y-94916880D01*
X111428919Y-95046892D01*
X111261890Y-95213921D01*
X111126400Y-95407421D01*
X111026569Y-95621507D01*
X110969364Y-95834999D01*
X110969364Y-95835000D01*
X113630636Y-95835000D01*
X113630635Y-95834999D01*
X113573430Y-95621507D01*
X113473599Y-95407421D01*
X113338109Y-95213921D01*
X113171081Y-95046893D01*
X112985404Y-94916880D01*
X112946539Y-94872562D01*
X112932528Y-94815305D01*
X112946539Y-94758048D01*
X112985402Y-94713732D01*
X113171401Y-94583495D01*
X113338495Y-94416401D01*
X113474035Y-94222830D01*
X113573903Y-94008663D01*
X113635063Y-93780408D01*
X113644194Y-93676048D01*
X113656598Y-93534272D01*
X113681750Y-93469592D01*
X113737716Y-93428557D01*
X113806965Y-93424018D01*
X113867807Y-93457398D01*
X114244196Y-93833787D01*
X114257096Y-93849888D01*
X114308223Y-93897900D01*
X114311019Y-93900610D01*
X114330529Y-93920120D01*
X114333711Y-93922588D01*
X114342571Y-93930155D01*
X114349323Y-93936496D01*
X114374418Y-93960062D01*
X114391970Y-93969711D01*
X114408238Y-93980397D01*
X114424064Y-93992673D01*
X114464146Y-94010017D01*
X114474633Y-94015155D01*
X114512907Y-94036197D01*
X114521410Y-94038379D01*
X114532308Y-94041178D01*
X114550713Y-94047478D01*
X114569104Y-94055437D01*
X114612250Y-94062270D01*
X114623668Y-94064635D01*
X114665981Y-94075500D01*
X114686016Y-94075500D01*
X114705415Y-94077027D01*
X114725196Y-94080160D01*
X114768674Y-94076050D01*
X114780344Y-94075500D01*
X115225500Y-94075500D01*
X115287500Y-94092113D01*
X115332887Y-94137500D01*
X115349500Y-94199500D01*
X115349500Y-101867256D01*
X115347235Y-101887762D01*
X115349439Y-101957873D01*
X115349500Y-101961768D01*
X115349500Y-101989349D01*
X115350003Y-101993334D01*
X115350918Y-102004967D01*
X115352290Y-102048626D01*
X115357879Y-102067860D01*
X115361825Y-102086916D01*
X115364335Y-102106792D01*
X115380414Y-102147404D01*
X115384197Y-102158451D01*
X115396382Y-102200391D01*
X115406580Y-102217635D01*
X115415136Y-102235100D01*
X115422514Y-102253732D01*
X115422515Y-102253733D01*
X115448180Y-102289059D01*
X115454593Y-102298822D01*
X115476826Y-102336416D01*
X115476829Y-102336419D01*
X115476830Y-102336420D01*
X115490995Y-102350585D01*
X115503627Y-102365375D01*
X115515406Y-102381587D01*
X115549058Y-102409426D01*
X115557699Y-102417289D01*
X116899196Y-103758787D01*
X116912096Y-103774888D01*
X116963223Y-103822900D01*
X116966020Y-103825611D01*
X116985529Y-103845120D01*
X116988711Y-103847588D01*
X116997571Y-103855155D01*
X117029418Y-103885062D01*
X117046970Y-103894711D01*
X117063238Y-103905397D01*
X117079064Y-103917673D01*
X117119146Y-103935017D01*
X117129633Y-103940155D01*
X117167907Y-103961197D01*
X117176410Y-103963379D01*
X117187308Y-103966178D01*
X117205713Y-103972478D01*
X117224104Y-103980437D01*
X117267250Y-103987270D01*
X117278668Y-103989635D01*
X117320981Y-104000500D01*
X117341016Y-104000500D01*
X117360415Y-104002027D01*
X117380196Y-104005160D01*
X117423674Y-104001050D01*
X117435344Y-104000500D01*
X136352256Y-104000500D01*
X136372762Y-104002764D01*
X136375665Y-104002672D01*
X136375667Y-104002673D01*
X136442872Y-104000561D01*
X136446768Y-104000500D01*
X136474349Y-104000500D01*
X136474350Y-104000500D01*
X136478319Y-103999998D01*
X136489965Y-103999080D01*
X136533627Y-103997709D01*
X136552859Y-103992120D01*
X136571918Y-103988174D01*
X136579099Y-103987267D01*
X136591792Y-103985664D01*
X136632407Y-103969582D01*
X136643444Y-103965803D01*
X136685390Y-103953618D01*
X136702629Y-103943422D01*
X136720102Y-103934862D01*
X136738732Y-103927486D01*
X136774064Y-103901814D01*
X136783830Y-103895400D01*
X136821418Y-103873171D01*
X136821417Y-103873171D01*
X136821420Y-103873170D01*
X136835585Y-103859004D01*
X136850373Y-103846373D01*
X136866587Y-103834594D01*
X136894438Y-103800926D01*
X136902279Y-103792309D01*
X138285178Y-102409410D01*
X138340764Y-102377318D01*
X138404947Y-102377318D01*
X138473308Y-102395635D01*
X138700000Y-102415468D01*
X138926692Y-102395635D01*
X139146496Y-102336739D01*
X139352734Y-102240568D01*
X139539139Y-102110047D01*
X139700047Y-101949139D01*
X139830568Y-101762734D01*
X139926739Y-101556496D01*
X139985635Y-101336692D01*
X140005468Y-101110000D01*
X139985635Y-100883308D01*
X139926739Y-100663504D01*
X139897126Y-100600000D01*
X145775000Y-100600000D01*
X145775000Y-101147824D01*
X145781402Y-101207375D01*
X145831647Y-101342089D01*
X145917811Y-101457188D01*
X146032910Y-101543352D01*
X146167624Y-101593597D01*
X146227176Y-101600000D01*
X146775000Y-101600000D01*
X146775000Y-100600000D01*
X147275000Y-100600000D01*
X147275000Y-101600000D01*
X147822824Y-101600000D01*
X147882375Y-101593597D01*
X148017089Y-101543352D01*
X148132188Y-101457188D01*
X148218352Y-101342089D01*
X148268597Y-101207375D01*
X148275000Y-101147824D01*
X148275000Y-100600000D01*
X147275000Y-100600000D01*
X146775000Y-100600000D01*
X145775000Y-100600000D01*
X139897126Y-100600000D01*
X139830568Y-100457266D01*
X139718534Y-100297264D01*
X139700046Y-100270859D01*
X139579187Y-100150000D01*
X152094531Y-100150000D01*
X152114364Y-100376689D01*
X152173261Y-100596497D01*
X152269432Y-100802735D01*
X152399953Y-100989140D01*
X152560859Y-101150046D01*
X152747264Y-101280567D01*
X152747265Y-101280567D01*
X152747266Y-101280568D01*
X152953504Y-101376739D01*
X153173308Y-101435635D01*
X153400000Y-101455468D01*
X153626692Y-101435635D01*
X153846496Y-101376739D01*
X154052734Y-101280568D01*
X154239139Y-101150047D01*
X154400047Y-100989139D01*
X154530568Y-100802734D01*
X154626739Y-100596496D01*
X154685635Y-100376692D01*
X154705468Y-100150000D01*
X154696282Y-100045000D01*
X156494340Y-100045000D01*
X156514936Y-100280407D01*
X156540735Y-100376689D01*
X156576097Y-100508663D01*
X156675965Y-100722830D01*
X156811505Y-100916401D01*
X156978599Y-101083495D01*
X157172170Y-101219035D01*
X157386337Y-101318903D01*
X157614592Y-101380063D01*
X157850000Y-101400659D01*
X158085408Y-101380063D01*
X158313663Y-101318903D01*
X158527830Y-101219035D01*
X158721401Y-101083495D01*
X158888495Y-100916401D01*
X159024035Y-100722830D01*
X159123903Y-100508663D01*
X159185063Y-100280408D01*
X159205659Y-100045000D01*
X159185063Y-99809592D01*
X159123903Y-99581337D01*
X159024035Y-99367171D01*
X158888495Y-99173599D01*
X158721401Y-99006505D01*
X158535402Y-98876267D01*
X158496539Y-98831951D01*
X158482528Y-98774694D01*
X158496539Y-98717437D01*
X158535405Y-98673119D01*
X158721078Y-98543109D01*
X158888106Y-98376081D01*
X159023600Y-98182576D01*
X159123430Y-97968492D01*
X159180636Y-97755000D01*
X156519364Y-97755000D01*
X156576569Y-97968492D01*
X156676399Y-98182576D01*
X156811893Y-98376081D01*
X156978918Y-98543106D01*
X157164595Y-98673119D01*
X157203460Y-98717437D01*
X157217471Y-98774694D01*
X157203460Y-98831951D01*
X157164595Y-98876269D01*
X156978595Y-99006508D01*
X156811505Y-99173598D01*
X156675965Y-99367170D01*
X156576097Y-99581336D01*
X156514936Y-99809592D01*
X156494340Y-100045000D01*
X154696282Y-100045000D01*
X154685635Y-99923308D01*
X154626739Y-99703504D01*
X154530568Y-99497266D01*
X154529964Y-99496404D01*
X154400046Y-99310859D01*
X154239140Y-99149953D01*
X154052735Y-99019432D01*
X153846497Y-98923261D01*
X153626689Y-98864364D01*
X153400000Y-98844531D01*
X153173310Y-98864364D01*
X152953502Y-98923261D01*
X152747264Y-99019432D01*
X152560859Y-99149953D01*
X152399953Y-99310859D01*
X152269432Y-99497264D01*
X152173261Y-99703502D01*
X152114364Y-99923310D01*
X152094531Y-100150000D01*
X139579187Y-100150000D01*
X139539140Y-100109953D01*
X139352732Y-99979430D01*
X139294724Y-99952380D01*
X139242549Y-99906623D01*
X139223130Y-99839997D01*
X139242550Y-99773373D01*
X139294721Y-99727619D01*
X139352734Y-99700568D01*
X139539139Y-99570047D01*
X139700047Y-99409139D01*
X139830568Y-99222734D01*
X139926739Y-99016496D01*
X139985635Y-98796692D01*
X140005468Y-98570000D01*
X139985635Y-98343308D01*
X139967319Y-98274951D01*
X139967319Y-98210763D01*
X139999411Y-98155178D01*
X143008789Y-95145800D01*
X143024885Y-95132906D01*
X143026873Y-95130787D01*
X143026877Y-95130786D01*
X143072948Y-95081723D01*
X143075566Y-95079023D01*
X143095120Y-95059471D01*
X143097581Y-95056298D01*
X143105156Y-95047427D01*
X143135062Y-95015582D01*
X143144717Y-94998018D01*
X143155394Y-94981764D01*
X143167673Y-94965936D01*
X143185018Y-94925852D01*
X143190160Y-94915356D01*
X143198914Y-94899433D01*
X143211197Y-94877092D01*
X143216179Y-94857684D01*
X143222481Y-94839280D01*
X143230437Y-94820896D01*
X143237269Y-94777752D01*
X143239633Y-94766338D01*
X143250500Y-94724019D01*
X143250500Y-94703984D01*
X143252027Y-94684585D01*
X143252068Y-94684321D01*
X143255160Y-94664804D01*
X143251050Y-94621325D01*
X143250500Y-94609656D01*
X143250500Y-93174500D01*
X143267113Y-93112500D01*
X143312500Y-93067113D01*
X143374500Y-93050500D01*
X156574773Y-93050500D01*
X156632030Y-93064511D01*
X156676346Y-93103374D01*
X156811505Y-93296401D01*
X156978599Y-93463495D01*
X157164160Y-93593426D01*
X157203024Y-93637743D01*
X157217035Y-93695000D01*
X157203024Y-93752257D01*
X157164158Y-93796575D01*
X156979088Y-93926163D01*
X156978595Y-93926508D01*
X156811505Y-94093598D01*
X156719495Y-94225003D01*
X156711218Y-94236825D01*
X156676349Y-94286623D01*
X156632031Y-94325489D01*
X156574774Y-94339500D01*
X154480049Y-94339500D01*
X154432596Y-94330061D01*
X154392368Y-94303181D01*
X154239140Y-94149953D01*
X154052735Y-94019432D01*
X153846497Y-93923261D01*
X153626689Y-93864364D01*
X153400000Y-93844531D01*
X153173310Y-93864364D01*
X152953502Y-93923261D01*
X152747264Y-94019432D01*
X152560859Y-94149953D01*
X152399953Y-94310859D01*
X152269432Y-94497264D01*
X152234161Y-94572905D01*
X152188404Y-94625081D01*
X152121779Y-94644500D01*
X148178149Y-94644500D01*
X148120892Y-94630489D01*
X148076574Y-94591623D01*
X148067588Y-94578790D01*
X147986598Y-94463123D01*
X147831877Y-94308402D01*
X147652639Y-94182898D01*
X147493326Y-94108609D01*
X147454331Y-94090425D01*
X147242974Y-94033792D01*
X147025000Y-94014722D01*
X146807025Y-94033792D01*
X146595668Y-94090425D01*
X146397361Y-94182898D01*
X146218122Y-94308402D01*
X146063402Y-94463122D01*
X145937898Y-94642361D01*
X145845425Y-94840668D01*
X145788792Y-95052025D01*
X145769722Y-95270000D01*
X145788792Y-95487974D01*
X145845425Y-95699331D01*
X145869286Y-95750500D01*
X145937898Y-95897639D01*
X146063402Y-96076877D01*
X146218123Y-96231598D01*
X146397361Y-96357102D01*
X146476916Y-96394199D01*
X146548582Y-96427618D01*
X146600758Y-96473375D01*
X146620177Y-96540000D01*
X146600758Y-96606625D01*
X146548582Y-96652382D01*
X146397361Y-96722898D01*
X146218122Y-96848402D01*
X146063402Y-97003122D01*
X145937898Y-97182361D01*
X145845425Y-97380668D01*
X145788792Y-97592025D01*
X145769722Y-97809999D01*
X145788792Y-98027974D01*
X145845425Y-98239331D01*
X145883042Y-98320000D01*
X145937898Y-98437639D01*
X146063402Y-98616877D01*
X146218123Y-98771598D01*
X146364977Y-98874426D01*
X146405303Y-98921642D01*
X146417682Y-98982490D01*
X146399010Y-99041710D01*
X146353968Y-99084453D01*
X146293852Y-99100000D01*
X146227176Y-99100000D01*
X146167624Y-99106402D01*
X146032910Y-99156647D01*
X145917811Y-99242811D01*
X145831647Y-99357910D01*
X145781402Y-99492624D01*
X145775000Y-99552176D01*
X145775000Y-100100000D01*
X148275000Y-100100000D01*
X148275000Y-99552176D01*
X148268597Y-99492624D01*
X148218352Y-99357910D01*
X148132188Y-99242811D01*
X148017089Y-99156647D01*
X147882375Y-99106402D01*
X147822824Y-99100000D01*
X147756148Y-99100000D01*
X147696032Y-99084453D01*
X147650990Y-99041710D01*
X147632318Y-98982490D01*
X147644697Y-98921642D01*
X147685022Y-98874426D01*
X147831877Y-98771598D01*
X147986598Y-98616877D01*
X148112102Y-98437639D01*
X148204575Y-98239330D01*
X148261207Y-98027977D01*
X148280277Y-97810000D01*
X148261207Y-97592023D01*
X148204575Y-97380670D01*
X148112102Y-97182362D01*
X147986598Y-97003123D01*
X147831877Y-96848402D01*
X147652639Y-96722898D01*
X147501417Y-96652382D01*
X147449241Y-96606625D01*
X147429822Y-96540000D01*
X147449241Y-96473375D01*
X147501417Y-96427618D01*
X147541017Y-96409152D01*
X147652639Y-96357102D01*
X147831877Y-96231598D01*
X147986598Y-96076877D01*
X148076576Y-95948375D01*
X148120892Y-95909511D01*
X148178149Y-95895500D01*
X152269836Y-95895500D01*
X152327093Y-95909511D01*
X152371411Y-95948377D01*
X152399953Y-95989140D01*
X152560859Y-96150046D01*
X152747264Y-96280567D01*
X152747265Y-96280567D01*
X152747266Y-96280568D01*
X152953504Y-96376739D01*
X153173308Y-96435635D01*
X153400000Y-96455468D01*
X153626692Y-96435635D01*
X153846496Y-96376739D01*
X154052734Y-96280568D01*
X154239139Y-96150047D01*
X154400047Y-95989139D01*
X154530568Y-95802734D01*
X154596150Y-95662093D01*
X154641906Y-95609919D01*
X154708531Y-95590500D01*
X156574773Y-95590500D01*
X156632030Y-95604511D01*
X156676346Y-95643374D01*
X156811505Y-95836401D01*
X156978599Y-96003495D01*
X157164597Y-96133732D01*
X157203460Y-96178048D01*
X157217471Y-96235305D01*
X157203461Y-96292561D01*
X157164595Y-96336880D01*
X156978919Y-96466892D01*
X156811890Y-96633921D01*
X156676400Y-96827421D01*
X156576569Y-97041507D01*
X156519364Y-97254999D01*
X156519364Y-97255000D01*
X159180636Y-97255000D01*
X159180635Y-97254999D01*
X159123430Y-97041507D01*
X159023599Y-96827421D01*
X158888109Y-96633921D01*
X158721081Y-96466893D01*
X158535404Y-96336880D01*
X158496539Y-96292562D01*
X158482528Y-96235305D01*
X158496539Y-96178048D01*
X158535402Y-96133732D01*
X158721401Y-96003495D01*
X158888495Y-95836401D01*
X159024035Y-95642830D01*
X159123903Y-95428663D01*
X159185063Y-95200408D01*
X159205659Y-94965000D01*
X159185063Y-94729592D01*
X159123903Y-94501337D01*
X159024035Y-94287171D01*
X158888495Y-94093599D01*
X158721401Y-93926505D01*
X158535839Y-93796573D01*
X158496975Y-93752257D01*
X158482964Y-93695000D01*
X158496975Y-93637743D01*
X158535839Y-93593426D01*
X158721401Y-93463495D01*
X158888495Y-93296401D01*
X159024035Y-93102830D01*
X159123903Y-92888663D01*
X159185063Y-92660408D01*
X159205659Y-92425000D01*
X159200931Y-92370965D01*
X159185063Y-92189592D01*
X159161931Y-92103261D01*
X159123903Y-91961337D01*
X159024035Y-91747171D01*
X158888495Y-91553599D01*
X158721401Y-91386505D01*
X158535839Y-91256573D01*
X158496975Y-91212257D01*
X158482964Y-91155000D01*
X158496975Y-91097743D01*
X158535839Y-91053426D01*
X158721401Y-90923495D01*
X158888495Y-90756401D01*
X159024035Y-90562830D01*
X159123903Y-90348663D01*
X159185063Y-90120408D01*
X159205659Y-89885000D01*
X159185063Y-89649592D01*
X159123903Y-89421337D01*
X159024035Y-89207171D01*
X158888495Y-89013599D01*
X158721401Y-88846505D01*
X158535839Y-88716573D01*
X158496975Y-88672257D01*
X158482964Y-88615000D01*
X158496975Y-88557743D01*
X158535839Y-88513426D01*
X158721401Y-88383495D01*
X158888495Y-88216401D01*
X159024035Y-88022830D01*
X159123903Y-87808663D01*
X159185063Y-87580408D01*
X159205659Y-87345000D01*
X159200931Y-87290965D01*
X159185063Y-87109592D01*
X159178173Y-87083878D01*
X159123903Y-86881337D01*
X159024035Y-86667171D01*
X158888495Y-86473599D01*
X158721401Y-86306505D01*
X158535839Y-86176573D01*
X158496975Y-86132257D01*
X158482964Y-86075000D01*
X158496975Y-86017743D01*
X158535839Y-85973426D01*
X158721401Y-85843495D01*
X158888495Y-85676401D01*
X159024035Y-85482830D01*
X159123903Y-85268663D01*
X159185063Y-85040408D01*
X159205659Y-84805000D01*
X159185063Y-84569592D01*
X159123903Y-84341337D01*
X159024035Y-84127171D01*
X158888495Y-83933599D01*
X158721401Y-83766505D01*
X158535839Y-83636573D01*
X158496976Y-83592257D01*
X158482965Y-83535000D01*
X158496976Y-83477743D01*
X158535839Y-83433426D01*
X158721401Y-83303495D01*
X158888495Y-83136401D01*
X159024035Y-82942830D01*
X159123903Y-82728663D01*
X159185063Y-82500408D01*
X159205659Y-82265000D01*
X159200931Y-82210965D01*
X159185063Y-82029592D01*
X159168326Y-81967127D01*
X159123903Y-81801337D01*
X159024035Y-81587171D01*
X158888495Y-81393599D01*
X158721401Y-81226505D01*
X158535839Y-81096573D01*
X158496974Y-81052255D01*
X158482964Y-80994999D01*
X158496975Y-80937742D01*
X158535837Y-80893428D01*
X158721401Y-80763495D01*
X158888495Y-80596401D01*
X159024035Y-80402830D01*
X159123903Y-80188663D01*
X159185063Y-79960408D01*
X159205659Y-79725000D01*
X159200931Y-79670965D01*
X159185063Y-79489592D01*
X159155850Y-79380566D01*
X159123903Y-79261337D01*
X159024035Y-79047171D01*
X158888495Y-78853599D01*
X158721401Y-78686505D01*
X158535839Y-78556573D01*
X158496975Y-78512257D01*
X158482964Y-78455000D01*
X158496975Y-78397743D01*
X158535839Y-78353426D01*
X158721401Y-78223495D01*
X158888495Y-78056401D01*
X159024035Y-77862830D01*
X159123903Y-77648663D01*
X159185063Y-77420408D01*
X159205659Y-77185000D01*
X159185063Y-76949592D01*
X159123903Y-76721337D01*
X159024035Y-76507171D01*
X158888495Y-76313599D01*
X158721401Y-76146505D01*
X158535839Y-76016573D01*
X158496975Y-75972257D01*
X158482964Y-75915000D01*
X158496975Y-75857743D01*
X158535839Y-75813426D01*
X158721401Y-75683495D01*
X158888495Y-75516401D01*
X159024035Y-75322830D01*
X159123903Y-75108663D01*
X159185063Y-74880408D01*
X159205659Y-74645000D01*
X159200931Y-74590965D01*
X159185063Y-74409592D01*
X159175341Y-74373308D01*
X159123903Y-74181337D01*
X159024035Y-73967171D01*
X158888495Y-73773599D01*
X158766569Y-73651673D01*
X158735273Y-73598927D01*
X158733084Y-73537634D01*
X158760537Y-73482789D01*
X158810916Y-73447810D01*
X158942331Y-73398796D01*
X159057546Y-73312546D01*
X159143796Y-73197331D01*
X159194091Y-73062483D01*
X159200500Y-73002873D01*
X159200499Y-71207128D01*
X159194091Y-71147517D01*
X159143796Y-71012669D01*
X159057546Y-70897454D01*
X158942331Y-70811204D01*
X158807483Y-70760909D01*
X158747873Y-70754500D01*
X158747869Y-70754500D01*
X156952130Y-70754500D01*
X156892515Y-70760909D01*
X156757669Y-70811204D01*
X156642454Y-70897454D01*
X156556204Y-71012668D01*
X156505909Y-71147516D01*
X156499500Y-71207131D01*
X156499500Y-71355500D01*
X156482887Y-71417500D01*
X156437500Y-71462887D01*
X156375500Y-71479500D01*
X154627741Y-71479500D01*
X154607237Y-71477236D01*
X154537145Y-71479439D01*
X154533251Y-71479500D01*
X154505648Y-71479500D01*
X154501653Y-71480004D01*
X154490029Y-71480918D01*
X154446368Y-71482290D01*
X154427128Y-71487880D01*
X154408081Y-71491825D01*
X154388209Y-71494335D01*
X154347599Y-71510413D01*
X154336554Y-71514194D01*
X154294611Y-71526380D01*
X154277369Y-71536578D01*
X154259897Y-71545138D01*
X154241266Y-71552514D01*
X154205938Y-71578181D01*
X154196180Y-71584591D01*
X154158579Y-71606829D01*
X154144410Y-71620998D01*
X154129622Y-71633628D01*
X154113413Y-71645405D01*
X154085572Y-71679058D01*
X154077711Y-71687696D01*
X151519152Y-74246255D01*
X151463564Y-74278349D01*
X151399376Y-74278349D01*
X151343789Y-74246254D01*
X151311696Y-74190665D01*
X151309197Y-74181337D01*
X151301739Y-74153504D01*
X151205568Y-73947266D01*
X151201777Y-73941852D01*
X151075046Y-73760859D01*
X150914140Y-73599953D01*
X150753377Y-73487387D01*
X150714511Y-73443069D01*
X150700500Y-73385812D01*
X150700500Y-73310452D01*
X150709939Y-73262999D01*
X150736819Y-73222771D01*
X157072772Y-66886818D01*
X157113000Y-66859938D01*
X157160453Y-66850499D01*
X158572870Y-66850499D01*
X158572872Y-66850499D01*
X158632483Y-66844091D01*
X158767331Y-66793796D01*
X158882546Y-66707546D01*
X158968796Y-66592331D01*
X159019091Y-66457483D01*
X159025500Y-66397873D01*
X159025499Y-64502128D01*
X159019091Y-64442517D01*
X158968796Y-64307669D01*
X158882546Y-64192454D01*
X158767331Y-64106204D01*
X158632483Y-64055909D01*
X158572873Y-64049500D01*
X158572869Y-64049500D01*
X156677130Y-64049500D01*
X156617515Y-64055909D01*
X156482669Y-64106204D01*
X156367454Y-64192454D01*
X156281204Y-64307668D01*
X156230909Y-64442515D01*
X156230909Y-64442517D01*
X156224641Y-64500823D01*
X156224500Y-64502131D01*
X156224500Y-64612691D01*
X156215061Y-64660144D01*
X156188181Y-64700372D01*
X155085000Y-65803553D01*
X154286199Y-66602351D01*
X154316650Y-66626051D01*
X154520700Y-66736477D01*
X154740140Y-66811811D01*
X154968993Y-66850000D01*
X155041045Y-66850000D01*
X155097340Y-66863515D01*
X155141363Y-66901115D01*
X155163518Y-66954602D01*
X155158976Y-67012318D01*
X155128726Y-67061681D01*
X151422242Y-70768165D01*
X151371849Y-70798745D01*
X151313029Y-70802600D01*
X151259075Y-70778860D01*
X151222179Y-70732889D01*
X151205567Y-70697264D01*
X151075046Y-70510859D01*
X150914140Y-70349953D01*
X150727735Y-70219432D01*
X150521497Y-70123261D01*
X150301689Y-70064364D01*
X150075000Y-70044531D01*
X149848310Y-70064364D01*
X149628502Y-70123261D01*
X149422264Y-70219432D01*
X149235859Y-70349953D01*
X149074953Y-70510859D01*
X148944432Y-70697264D01*
X148848261Y-70903502D01*
X148789364Y-71123310D01*
X148769531Y-71349999D01*
X148789364Y-71576689D01*
X148848261Y-71796497D01*
X148944432Y-72002735D01*
X149074953Y-72189140D01*
X149235859Y-72350046D01*
X149422266Y-72480568D01*
X149476033Y-72505640D01*
X149524538Y-72545956D01*
X149546935Y-72604918D01*
X149537430Y-72667270D01*
X149514976Y-72719156D01*
X149509838Y-72729644D01*
X149488802Y-72767907D01*
X149483821Y-72787309D01*
X149477520Y-72805711D01*
X149469561Y-72824102D01*
X149462728Y-72867242D01*
X149460360Y-72878674D01*
X149449500Y-72920978D01*
X149449500Y-72941016D01*
X149447973Y-72960415D01*
X149444840Y-72980194D01*
X149448950Y-73023675D01*
X149449500Y-73035344D01*
X149449500Y-73385812D01*
X149435489Y-73443069D01*
X149396623Y-73487387D01*
X149235859Y-73599953D01*
X149074953Y-73760859D01*
X148944432Y-73947264D01*
X148848261Y-74153502D01*
X148822453Y-74249820D01*
X148790359Y-74305407D01*
X148734771Y-74337501D01*
X148670584Y-74337501D01*
X148614997Y-74305407D01*
X147926087Y-73616497D01*
X147095802Y-72786211D01*
X147082906Y-72770113D01*
X147031775Y-72722098D01*
X147028978Y-72719387D01*
X147009470Y-72699879D01*
X147006290Y-72697412D01*
X146997424Y-72689839D01*
X146965582Y-72659938D01*
X146948024Y-72650285D01*
X146931764Y-72639604D01*
X146915936Y-72627327D01*
X146875851Y-72609980D01*
X146865361Y-72604841D01*
X146827091Y-72583802D01*
X146807691Y-72578821D01*
X146789284Y-72572519D01*
X146770897Y-72564562D01*
X146727758Y-72557729D01*
X146716324Y-72555361D01*
X146674019Y-72544500D01*
X146653984Y-72544500D01*
X146634586Y-72542973D01*
X146627162Y-72541797D01*
X146614805Y-72539840D01*
X146614804Y-72539840D01*
X146581751Y-72542964D01*
X146571325Y-72543950D01*
X146559656Y-72544500D01*
X144796969Y-72544500D01*
X144732641Y-72526509D01*
X144686980Y-72477757D01*
X144673234Y-72412391D01*
X144695394Y-72349377D01*
X144780567Y-72227735D01*
X144780568Y-72227734D01*
X144876739Y-72021496D01*
X144935635Y-71801692D01*
X144955468Y-71575000D01*
X144935635Y-71348308D01*
X144876739Y-71128504D01*
X144780568Y-70922266D01*
X144767429Y-70903502D01*
X144650046Y-70735859D01*
X144489140Y-70574953D01*
X144302735Y-70444432D01*
X144096497Y-70348261D01*
X143876689Y-70289364D01*
X143650000Y-70269531D01*
X143423310Y-70289364D01*
X143203502Y-70348261D01*
X142997264Y-70444432D01*
X142810859Y-70574953D01*
X142649953Y-70735859D01*
X142519432Y-70922264D01*
X142423261Y-71128502D01*
X142364364Y-71348310D01*
X142344531Y-71575000D01*
X142364364Y-71801689D01*
X142423261Y-72021497D01*
X142519432Y-72227735D01*
X142604606Y-72349377D01*
X142626766Y-72412391D01*
X142613020Y-72477757D01*
X142567359Y-72526509D01*
X142503031Y-72544500D01*
X139914188Y-72544500D01*
X139856931Y-72530489D01*
X139812613Y-72491623D01*
X139700046Y-72330859D01*
X139539140Y-72169953D01*
X139352733Y-72039431D01*
X139294725Y-72012382D01*
X139242549Y-71966625D01*
X139223129Y-71900000D01*
X139242549Y-71833375D01*
X139294725Y-71787618D01*
X139352734Y-71760568D01*
X139539139Y-71630047D01*
X139700047Y-71469139D01*
X139830568Y-71282734D01*
X139926739Y-71076496D01*
X139985635Y-70856692D01*
X140005468Y-70630000D01*
X139985635Y-70403308D01*
X139926739Y-70183504D01*
X139830568Y-69977266D01*
X139801323Y-69935500D01*
X139700046Y-69790859D01*
X139539140Y-69629953D01*
X139352736Y-69499433D01*
X139305602Y-69477454D01*
X139294132Y-69472105D01*
X139241958Y-69426348D01*
X139222539Y-69359723D01*
X139241959Y-69293098D01*
X139294135Y-69247342D01*
X139352479Y-69220135D01*
X139538819Y-69089658D01*
X139699658Y-68928819D01*
X139830134Y-68742480D01*
X139926266Y-68536326D01*
X139978872Y-68340000D01*
X137421128Y-68340000D01*
X137473733Y-68536326D01*
X137569865Y-68742480D01*
X137700341Y-68928819D01*
X137861180Y-69089658D01*
X138047519Y-69220134D01*
X138105865Y-69247342D01*
X138158040Y-69293099D01*
X138177460Y-69359723D01*
X138158041Y-69426348D01*
X138105866Y-69472105D01*
X138047267Y-69499430D01*
X137860859Y-69629953D01*
X137699953Y-69790859D01*
X137569432Y-69977264D01*
X137473261Y-70183502D01*
X137414364Y-70403310D01*
X137394531Y-70630000D01*
X137414364Y-70856689D01*
X137473261Y-71076497D01*
X137569432Y-71282735D01*
X137699953Y-71469140D01*
X137860859Y-71630046D01*
X137943193Y-71687696D01*
X138047266Y-71760568D01*
X138105275Y-71787618D01*
X138157450Y-71833375D01*
X138176869Y-71900000D01*
X138157450Y-71966625D01*
X138105275Y-72012381D01*
X138084576Y-72022033D01*
X138047263Y-72039433D01*
X137860859Y-72169953D01*
X137699953Y-72330859D01*
X137569432Y-72517264D01*
X137473261Y-72723502D01*
X137414364Y-72943310D01*
X137394531Y-73169999D01*
X137414364Y-73396689D01*
X137473261Y-73616497D01*
X137569432Y-73822735D01*
X137699953Y-74009140D01*
X137860859Y-74170046D01*
X138047263Y-74300566D01*
X138047266Y-74300568D01*
X138105275Y-74327618D01*
X138157450Y-74373375D01*
X138176869Y-74440000D01*
X138157450Y-74506625D01*
X138105275Y-74552382D01*
X138047263Y-74579433D01*
X137860859Y-74709953D01*
X137699953Y-74870859D01*
X137569432Y-75057264D01*
X137473261Y-75263502D01*
X137414364Y-75483310D01*
X137394531Y-75709999D01*
X137414364Y-75936689D01*
X137473261Y-76156497D01*
X137569432Y-76362735D01*
X137699953Y-76549140D01*
X137860859Y-76710046D01*
X137925872Y-76755568D01*
X138047266Y-76840568D01*
X138105275Y-76867618D01*
X138157450Y-76913375D01*
X138176869Y-76980000D01*
X138157450Y-77046625D01*
X138105275Y-77092382D01*
X138047263Y-77119433D01*
X137860859Y-77249953D01*
X137699953Y-77410859D01*
X137569432Y-77597264D01*
X137473261Y-77803502D01*
X137414364Y-78023310D01*
X137394531Y-78249999D01*
X137414364Y-78476689D01*
X137473261Y-78696497D01*
X137569432Y-78902735D01*
X137699953Y-79089140D01*
X137860859Y-79250046D01*
X137994314Y-79343491D01*
X138047266Y-79380568D01*
X138105275Y-79407618D01*
X138157450Y-79453375D01*
X138176869Y-79520000D01*
X138157450Y-79586625D01*
X138105275Y-79632382D01*
X138047263Y-79659433D01*
X137860859Y-79789953D01*
X137699953Y-79950859D01*
X137569432Y-80137264D01*
X137473261Y-80343502D01*
X137414364Y-80563310D01*
X137394531Y-80789999D01*
X137414364Y-81016689D01*
X137473261Y-81236497D01*
X137569432Y-81442735D01*
X137699953Y-81629140D01*
X137860859Y-81790046D01*
X137948967Y-81851739D01*
X138047266Y-81920568D01*
X138105275Y-81947618D01*
X138157450Y-81993375D01*
X138176869Y-82060000D01*
X138157450Y-82126625D01*
X138105275Y-82172382D01*
X138047263Y-82199433D01*
X137860859Y-82329953D01*
X137699953Y-82490859D01*
X137569432Y-82677264D01*
X137473261Y-82883502D01*
X137414364Y-83103310D01*
X137394531Y-83329999D01*
X137414364Y-83556689D01*
X137473261Y-83776497D01*
X137569432Y-83982735D01*
X137699953Y-84169140D01*
X137724934Y-84194121D01*
X137757028Y-84249708D01*
X137757028Y-84313896D01*
X137724934Y-84369483D01*
X137191208Y-84903208D01*
X137175110Y-84916105D01*
X137127096Y-84967234D01*
X137124391Y-84970026D01*
X137104874Y-84989543D01*
X137102415Y-84992714D01*
X137094842Y-85001581D01*
X137064935Y-85033429D01*
X137055285Y-85050983D01*
X137044609Y-85067237D01*
X137032326Y-85083072D01*
X137014975Y-85123167D01*
X137009838Y-85133653D01*
X136988802Y-85171916D01*
X136983821Y-85191318D01*
X136977520Y-85209720D01*
X136969561Y-85228111D01*
X136962728Y-85271251D01*
X136960360Y-85282683D01*
X136949500Y-85324987D01*
X136949500Y-85345025D01*
X136947973Y-85364424D01*
X136944840Y-85384203D01*
X136948950Y-85427684D01*
X136949500Y-85439353D01*
X136949500Y-87202256D01*
X136947235Y-87222762D01*
X136949439Y-87292873D01*
X136949500Y-87296768D01*
X136949500Y-87324349D01*
X136950003Y-87328334D01*
X136950918Y-87339967D01*
X136952290Y-87383626D01*
X136957879Y-87402860D01*
X136961825Y-87421916D01*
X136964335Y-87441792D01*
X136980414Y-87482404D01*
X136984197Y-87493451D01*
X136996382Y-87535391D01*
X137006580Y-87552635D01*
X137015136Y-87570100D01*
X137022514Y-87588732D01*
X137026050Y-87593599D01*
X137048180Y-87624059D01*
X137054593Y-87633822D01*
X137076826Y-87671416D01*
X137076829Y-87671419D01*
X137076830Y-87671420D01*
X137090995Y-87685585D01*
X137103627Y-87700375D01*
X137115406Y-87716587D01*
X137149058Y-87744426D01*
X137157699Y-87752289D01*
X137400586Y-87995177D01*
X137432680Y-88050764D01*
X137432680Y-88114950D01*
X137414364Y-88183307D01*
X137394531Y-88410000D01*
X137414364Y-88636689D01*
X137473261Y-88856497D01*
X137569432Y-89062735D01*
X137699953Y-89249140D01*
X137860859Y-89410046D01*
X137882149Y-89424953D01*
X138047266Y-89540568D01*
X138105275Y-89567618D01*
X138157450Y-89613375D01*
X138176869Y-89680000D01*
X138157450Y-89746625D01*
X138105275Y-89792382D01*
X138047263Y-89819433D01*
X137860859Y-89949953D01*
X137699953Y-90110859D01*
X137569432Y-90297264D01*
X137473261Y-90503502D01*
X137414364Y-90723310D01*
X137394531Y-90949999D01*
X137414364Y-91176689D01*
X137473261Y-91396497D01*
X137569432Y-91602735D01*
X137699953Y-91789140D01*
X137860859Y-91950046D01*
X137989908Y-92040406D01*
X138047266Y-92080568D01*
X138105275Y-92107618D01*
X138157450Y-92153375D01*
X138176869Y-92220000D01*
X138157450Y-92286625D01*
X138105275Y-92332381D01*
X138084576Y-92342033D01*
X138047263Y-92359433D01*
X137860859Y-92489953D01*
X137699953Y-92650859D01*
X137569432Y-92837264D01*
X137473261Y-93043502D01*
X137414364Y-93263310D01*
X137394531Y-93489999D01*
X137414364Y-93716689D01*
X137473261Y-93936497D01*
X137569432Y-94142735D01*
X137699953Y-94329140D01*
X137860859Y-94490046D01*
X137987600Y-94578790D01*
X138047266Y-94620568D01*
X138105275Y-94647618D01*
X138157450Y-94693375D01*
X138176869Y-94760000D01*
X138157450Y-94826625D01*
X138105275Y-94872382D01*
X138047263Y-94899433D01*
X137860859Y-95029953D01*
X137699953Y-95190859D01*
X137569432Y-95377264D01*
X137473261Y-95583502D01*
X137414364Y-95803310D01*
X137394531Y-96029999D01*
X137414364Y-96256689D01*
X137473261Y-96476497D01*
X137569432Y-96682735D01*
X137699953Y-96869140D01*
X137860859Y-97030046D01*
X138047263Y-97160566D01*
X138047266Y-97160568D01*
X138105275Y-97187618D01*
X138157450Y-97233375D01*
X138176869Y-97300000D01*
X138157450Y-97366625D01*
X138105275Y-97412382D01*
X138047263Y-97439433D01*
X137860859Y-97569953D01*
X137699953Y-97730859D01*
X137569432Y-97917264D01*
X137473261Y-98123502D01*
X137414364Y-98343310D01*
X137394531Y-98569999D01*
X137414364Y-98796689D01*
X137473261Y-99016497D01*
X137569432Y-99222735D01*
X137699953Y-99409140D01*
X137860859Y-99570046D01*
X137994314Y-99663491D01*
X138047266Y-99700568D01*
X138105273Y-99727617D01*
X138157449Y-99773373D01*
X138176869Y-99839997D01*
X138157451Y-99906622D01*
X138105276Y-99952380D01*
X138047266Y-99979431D01*
X137860859Y-100109953D01*
X137699953Y-100270859D01*
X137569432Y-100457264D01*
X137473261Y-100663502D01*
X137414364Y-100883310D01*
X137394531Y-101109999D01*
X137414364Y-101336690D01*
X137432680Y-101405047D01*
X137432680Y-101469234D01*
X137400586Y-101524821D01*
X136212228Y-102713181D01*
X136172000Y-102740061D01*
X136124547Y-102749500D01*
X130624452Y-102749500D01*
X130568157Y-102735985D01*
X130524134Y-102698386D01*
X130501979Y-102644898D01*
X130506521Y-102587182D01*
X130536768Y-102537821D01*
X130665179Y-102409410D01*
X130720763Y-102377319D01*
X130784951Y-102377319D01*
X130853308Y-102395635D01*
X131080000Y-102415468D01*
X131306692Y-102395635D01*
X131526496Y-102336739D01*
X131732734Y-102240568D01*
X131919139Y-102110047D01*
X132080047Y-101949139D01*
X132210568Y-101762734D01*
X132306739Y-101556496D01*
X132365635Y-101336692D01*
X132385468Y-101110000D01*
X132365635Y-100883308D01*
X132306739Y-100663504D01*
X132210568Y-100457266D01*
X132098534Y-100297264D01*
X132080046Y-100270859D01*
X131919140Y-100109953D01*
X131732736Y-99979433D01*
X131674721Y-99952380D01*
X131674132Y-99952105D01*
X131621958Y-99906348D01*
X131602539Y-99839723D01*
X131621959Y-99773098D01*
X131674135Y-99727342D01*
X131732479Y-99700135D01*
X131918819Y-99569658D01*
X132079658Y-99408819D01*
X132210134Y-99222480D01*
X132306266Y-99016326D01*
X132358872Y-98820000D01*
X130954000Y-98820000D01*
X130892000Y-98803387D01*
X130846613Y-98758000D01*
X130830000Y-98696000D01*
X130830000Y-98444000D01*
X130846613Y-98382000D01*
X130892000Y-98336613D01*
X130954000Y-98320000D01*
X132358872Y-98320000D01*
X132358871Y-98319999D01*
X132306266Y-98123673D01*
X132210134Y-97917519D01*
X132079658Y-97731180D01*
X131918819Y-97570341D01*
X131732482Y-97439866D01*
X131674133Y-97412657D01*
X131621958Y-97366899D01*
X131602539Y-97300274D01*
X131621959Y-97233649D01*
X131674134Y-97187893D01*
X131732734Y-97160568D01*
X131919139Y-97030047D01*
X132080047Y-96869139D01*
X132210568Y-96682734D01*
X132306739Y-96476496D01*
X132365635Y-96256692D01*
X132385468Y-96030000D01*
X132365635Y-95803308D01*
X132319623Y-95631591D01*
X132317782Y-95575309D01*
X132341023Y-95524014D01*
X132384555Y-95488288D01*
X132439399Y-95475500D01*
X133696253Y-95475500D01*
X133746688Y-95486220D01*
X133788401Y-95516526D01*
X133794129Y-95522888D01*
X133947270Y-95634151D01*
X133947271Y-95634151D01*
X133947272Y-95634152D01*
X134120197Y-95711144D01*
X134305352Y-95750500D01*
X134305354Y-95750500D01*
X134494646Y-95750500D01*
X134494648Y-95750500D01*
X134618084Y-95724262D01*
X134679803Y-95711144D01*
X134852730Y-95634151D01*
X134916253Y-95587999D01*
X135005870Y-95522889D01*
X135011598Y-95516528D01*
X135132533Y-95382216D01*
X135227179Y-95218284D01*
X135285674Y-95038256D01*
X135305460Y-94850000D01*
X135285674Y-94661744D01*
X135255332Y-94568363D01*
X135227179Y-94481715D01*
X135132533Y-94317783D01*
X135005870Y-94177110D01*
X134852730Y-94065848D01*
X134679802Y-93988855D01*
X134494648Y-93949500D01*
X134494646Y-93949500D01*
X134305354Y-93949500D01*
X134305352Y-93949500D01*
X134120197Y-93988855D01*
X133947272Y-94065847D01*
X133848650Y-94137500D01*
X133794129Y-94177112D01*
X133788401Y-94183473D01*
X133746688Y-94213780D01*
X133696253Y-94224500D01*
X132367081Y-94224500D01*
X132307438Y-94209214D01*
X132262500Y-94167125D01*
X132243346Y-94108609D01*
X132254699Y-94048095D01*
X132270261Y-94014722D01*
X132306739Y-93936496D01*
X132365635Y-93716692D01*
X132385468Y-93490000D01*
X132365635Y-93263308D01*
X132306739Y-93043504D01*
X132210568Y-92837266D01*
X132201629Y-92824500D01*
X132080046Y-92650859D01*
X131919140Y-92489953D01*
X131732733Y-92359431D01*
X131691727Y-92340310D01*
X131674724Y-92332381D01*
X131622549Y-92286625D01*
X131603129Y-92220000D01*
X131622549Y-92153375D01*
X131674725Y-92107618D01*
X131732734Y-92080568D01*
X131919139Y-91950047D01*
X132080047Y-91789139D01*
X132210568Y-91602734D01*
X132306739Y-91396496D01*
X132365635Y-91176692D01*
X132385468Y-90950000D01*
X132365635Y-90723308D01*
X132306739Y-90503504D01*
X132210568Y-90297266D01*
X132141277Y-90198308D01*
X132080046Y-90110859D01*
X131919140Y-89949953D01*
X131732733Y-89819431D01*
X131674725Y-89792382D01*
X131622549Y-89746625D01*
X131603129Y-89680000D01*
X131622549Y-89613375D01*
X131674725Y-89567618D01*
X131709245Y-89551521D01*
X131732734Y-89540568D01*
X131919139Y-89410047D01*
X132080047Y-89249139D01*
X132210568Y-89062734D01*
X132306739Y-88856496D01*
X132365635Y-88636692D01*
X132385468Y-88410000D01*
X132365635Y-88183308D01*
X132347319Y-88114950D01*
X132347319Y-88050763D01*
X132379411Y-87995178D01*
X134333789Y-86040800D01*
X134349885Y-86027906D01*
X134351873Y-86025787D01*
X134351877Y-86025786D01*
X134397948Y-85976723D01*
X134400566Y-85974023D01*
X134420120Y-85954471D01*
X134422581Y-85951298D01*
X134430156Y-85942427D01*
X134460062Y-85910582D01*
X134469712Y-85893027D01*
X134480400Y-85876757D01*
X134492673Y-85860936D01*
X134510026Y-85820832D01*
X134515157Y-85810362D01*
X134536197Y-85772092D01*
X134541175Y-85752699D01*
X134547481Y-85734282D01*
X134549018Y-85730728D01*
X134555438Y-85715896D01*
X134562272Y-85672745D01*
X134564635Y-85661331D01*
X134575500Y-85619019D01*
X134575500Y-85598984D01*
X134577027Y-85579585D01*
X134580160Y-85559804D01*
X134576050Y-85516325D01*
X134575500Y-85504656D01*
X134575500Y-67840000D01*
X137421128Y-67840000D01*
X138450000Y-67840000D01*
X138450000Y-66811128D01*
X138950000Y-66811128D01*
X138950000Y-67840000D01*
X139978872Y-67840000D01*
X139978871Y-67839999D01*
X139929040Y-67654026D01*
X142924526Y-67654026D01*
X142997515Y-67705133D01*
X143203673Y-67801266D01*
X143423397Y-67860141D01*
X143650000Y-67879966D01*
X143876602Y-67860141D01*
X144096326Y-67801266D01*
X144302480Y-67705134D01*
X144375472Y-67654025D01*
X144150473Y-67429026D01*
X149349526Y-67429026D01*
X149422515Y-67480133D01*
X149628673Y-67576266D01*
X149848397Y-67635141D01*
X150075000Y-67654966D01*
X150301602Y-67635141D01*
X150521326Y-67576266D01*
X150727480Y-67480134D01*
X150800472Y-67429025D01*
X150075001Y-66703553D01*
X150075000Y-66703553D01*
X149349526Y-67429025D01*
X149349526Y-67429026D01*
X144150473Y-67429026D01*
X143650001Y-66928553D01*
X143650000Y-66928553D01*
X142924526Y-67654025D01*
X142924526Y-67654026D01*
X139929040Y-67654026D01*
X139926266Y-67643673D01*
X139830134Y-67437519D01*
X139699658Y-67251180D01*
X139538819Y-67090341D01*
X139352480Y-66959865D01*
X139146326Y-66863733D01*
X138950000Y-66811128D01*
X138450000Y-66811128D01*
X138449999Y-66811128D01*
X138253673Y-66863733D01*
X138047519Y-66959865D01*
X137861180Y-67090341D01*
X137700341Y-67251180D01*
X137569865Y-67437519D01*
X137473733Y-67643673D01*
X137421128Y-67839999D01*
X137421128Y-67840000D01*
X134575500Y-67840000D01*
X134575500Y-66599500D01*
X134582065Y-66575000D01*
X142345033Y-66575000D01*
X142364858Y-66801602D01*
X142423733Y-67021326D01*
X142519866Y-67227484D01*
X142570972Y-67300471D01*
X142570974Y-67300472D01*
X143296446Y-66575001D01*
X144003553Y-66575001D01*
X144729025Y-67300472D01*
X144780134Y-67227480D01*
X144876266Y-67021326D01*
X144935141Y-66801602D01*
X144954966Y-66575000D01*
X144935281Y-66349999D01*
X148770033Y-66349999D01*
X148789858Y-66576602D01*
X148848733Y-66796326D01*
X148944866Y-67002484D01*
X148995972Y-67075471D01*
X148995973Y-67075472D01*
X149721445Y-66350001D01*
X150428553Y-66350001D01*
X151154025Y-67075472D01*
X151205134Y-67002480D01*
X151301266Y-66796326D01*
X151360141Y-66576602D01*
X151379966Y-66349999D01*
X151360141Y-66123397D01*
X151301266Y-65903673D01*
X151205133Y-65697515D01*
X151154025Y-65624526D01*
X150428553Y-66350000D01*
X150428553Y-66350001D01*
X149721445Y-66350001D01*
X149721446Y-66350000D01*
X149721446Y-66349998D01*
X148995973Y-65624527D01*
X148944865Y-65697516D01*
X148848733Y-65903672D01*
X148789858Y-66123397D01*
X148770033Y-66349999D01*
X144935281Y-66349999D01*
X144935141Y-66348397D01*
X144876266Y-66128673D01*
X144780133Y-65922515D01*
X144729025Y-65849526D01*
X144003553Y-66575000D01*
X144003553Y-66575001D01*
X143296446Y-66575001D01*
X143296446Y-66575000D01*
X142570973Y-65849526D01*
X142570973Y-65849527D01*
X142519865Y-65922516D01*
X142423733Y-66128672D01*
X142364858Y-66348397D01*
X142345033Y-66575000D01*
X134582065Y-66575000D01*
X134592113Y-66537500D01*
X134637500Y-66492113D01*
X134699500Y-66475500D01*
X137497256Y-66475500D01*
X137517762Y-66477764D01*
X137520665Y-66477672D01*
X137520667Y-66477673D01*
X137587872Y-66475561D01*
X137591768Y-66475500D01*
X137619349Y-66475500D01*
X137619350Y-66475500D01*
X137623319Y-66474998D01*
X137634965Y-66474080D01*
X137678627Y-66472709D01*
X137697859Y-66467120D01*
X137716918Y-66463174D01*
X137723196Y-66462381D01*
X137736792Y-66460664D01*
X137777407Y-66444582D01*
X137788444Y-66440803D01*
X137830390Y-66428618D01*
X137847629Y-66418422D01*
X137865102Y-66409862D01*
X137883732Y-66402486D01*
X137919064Y-66376814D01*
X137928830Y-66370400D01*
X137963324Y-66350001D01*
X137966420Y-66348170D01*
X137980585Y-66334004D01*
X137995373Y-66321373D01*
X138011587Y-66309594D01*
X138039438Y-66275926D01*
X138047279Y-66267309D01*
X138818615Y-65495973D01*
X142924526Y-65495973D01*
X143650000Y-66221446D01*
X143650001Y-66221446D01*
X144375472Y-65495974D01*
X144375471Y-65495972D01*
X144302484Y-65444866D01*
X144096326Y-65348733D01*
X143876602Y-65289858D01*
X143660744Y-65270973D01*
X149349526Y-65270973D01*
X150075000Y-65996446D01*
X150075001Y-65996446D01*
X150621446Y-65450000D01*
X153680201Y-65450000D01*
X153699361Y-65681217D01*
X153756319Y-65906139D01*
X153849516Y-66118609D01*
X153933812Y-66247633D01*
X154731447Y-65450001D01*
X154731447Y-65450000D01*
X153933812Y-64652365D01*
X153849516Y-64781390D01*
X153756319Y-64993860D01*
X153699361Y-65218782D01*
X153680201Y-65450000D01*
X150621446Y-65450000D01*
X150800472Y-65270974D01*
X150800471Y-65270972D01*
X150727484Y-65219866D01*
X150521326Y-65123733D01*
X150301602Y-65064858D01*
X150075000Y-65045033D01*
X149848397Y-65064858D01*
X149628672Y-65123733D01*
X149422516Y-65219865D01*
X149349527Y-65270973D01*
X149349526Y-65270973D01*
X143660744Y-65270973D01*
X143650000Y-65270033D01*
X143423397Y-65289858D01*
X143203672Y-65348733D01*
X142997516Y-65444865D01*
X142924527Y-65495973D01*
X142924526Y-65495973D01*
X138818615Y-65495973D01*
X140016942Y-64297647D01*
X154286200Y-64297647D01*
X155085000Y-65096447D01*
X155085001Y-65096447D01*
X155883799Y-64297648D01*
X155883799Y-64297647D01*
X155853349Y-64273948D01*
X155649299Y-64163522D01*
X155429859Y-64088188D01*
X155201007Y-64050000D01*
X154968993Y-64050000D01*
X154740140Y-64088188D01*
X154520703Y-64163521D01*
X154316645Y-64273952D01*
X154286200Y-64297646D01*
X154286200Y-64297647D01*
X140016942Y-64297647D01*
X140474354Y-63840235D01*
X140529940Y-63808143D01*
X140594124Y-63808143D01*
X140694592Y-63835063D01*
X140930000Y-63855659D01*
X141165408Y-63835063D01*
X141393663Y-63773903D01*
X141607830Y-63674035D01*
X141801401Y-63538495D01*
X141968495Y-63371401D01*
X142098426Y-63185839D01*
X142142743Y-63146975D01*
X142200000Y-63132964D01*
X142257257Y-63146975D01*
X142301573Y-63185839D01*
X142431505Y-63371401D01*
X142598599Y-63538495D01*
X142792170Y-63674035D01*
X143006337Y-63773903D01*
X143234592Y-63835063D01*
X143470000Y-63855659D01*
X143705408Y-63835063D01*
X143933663Y-63773903D01*
X144147830Y-63674035D01*
X144341401Y-63538495D01*
X144508495Y-63371401D01*
X144638426Y-63185839D01*
X144682743Y-63146975D01*
X144740000Y-63132964D01*
X144797257Y-63146975D01*
X144841573Y-63185839D01*
X144971505Y-63371401D01*
X145138599Y-63538495D01*
X145332170Y-63674035D01*
X145546337Y-63773903D01*
X145774592Y-63835063D01*
X146010000Y-63855659D01*
X146245408Y-63835063D01*
X146473663Y-63773903D01*
X146687830Y-63674035D01*
X146881401Y-63538495D01*
X147048495Y-63371401D01*
X147178426Y-63185839D01*
X147222743Y-63146975D01*
X147280000Y-63132964D01*
X147337257Y-63146975D01*
X147381573Y-63185839D01*
X147511505Y-63371401D01*
X147678599Y-63538495D01*
X147872170Y-63674035D01*
X148086337Y-63773903D01*
X148314592Y-63835063D01*
X148550000Y-63855659D01*
X148785408Y-63835063D01*
X149013663Y-63773903D01*
X149227830Y-63674035D01*
X149421401Y-63538495D01*
X149588495Y-63371401D01*
X149724035Y-63177830D01*
X149823903Y-62963663D01*
X149885063Y-62735408D01*
X149905659Y-62500000D01*
X149885063Y-62264592D01*
X149823903Y-62036337D01*
X149724035Y-61822171D01*
X149588495Y-61628599D01*
X149421401Y-61461505D01*
X149227830Y-61325965D01*
X149013663Y-61226097D01*
X148952501Y-61209709D01*
X148785407Y-61164936D01*
X148550000Y-61144340D01*
X148314592Y-61164936D01*
X148086336Y-61226097D01*
X147872170Y-61325965D01*
X147678598Y-61461505D01*
X147511505Y-61628598D01*
X147381575Y-61814159D01*
X147337257Y-61853025D01*
X147280000Y-61867036D01*
X147222743Y-61853025D01*
X147178425Y-61814159D01*
X147084440Y-61679934D01*
X147048495Y-61628599D01*
X146881401Y-61461505D01*
X146687830Y-61325965D01*
X146473663Y-61226097D01*
X146412501Y-61209709D01*
X146245407Y-61164936D01*
X146010000Y-61144340D01*
X145774592Y-61164936D01*
X145546336Y-61226097D01*
X145332170Y-61325965D01*
X145138598Y-61461505D01*
X144971505Y-61628598D01*
X144841575Y-61814159D01*
X144797257Y-61853025D01*
X144740000Y-61867036D01*
X144682743Y-61853025D01*
X144638425Y-61814159D01*
X144544440Y-61679934D01*
X144508495Y-61628599D01*
X144341401Y-61461505D01*
X144147830Y-61325965D01*
X143933663Y-61226097D01*
X143872501Y-61209709D01*
X143705407Y-61164936D01*
X143470000Y-61144340D01*
X143234593Y-61164936D01*
X143134126Y-61191856D01*
X143069939Y-61191856D01*
X143014352Y-61159762D01*
X142656520Y-60801930D01*
X142270802Y-60416211D01*
X142257906Y-60400113D01*
X142206775Y-60352098D01*
X142203978Y-60349387D01*
X142184470Y-60329879D01*
X142181290Y-60327412D01*
X142172424Y-60319839D01*
X142140582Y-60289938D01*
X142123024Y-60280285D01*
X142106764Y-60269604D01*
X142090936Y-60257327D01*
X142050851Y-60239980D01*
X142040344Y-60234832D01*
X142037291Y-60233153D01*
X141990704Y-60188278D01*
X141973055Y-60126047D01*
X141989146Y-60063395D01*
X142034599Y-60017372D01*
X142097045Y-60000500D01*
X159875500Y-60000500D01*
X159937500Y-60017113D01*
X159982887Y-60062500D01*
X159999500Y-60124500D01*
X159999500Y-109875500D01*
X159982887Y-109937500D01*
X159937500Y-109982887D01*
X159875500Y-109999500D01*
X110124500Y-109999500D01*
X110062500Y-109982887D01*
X110017113Y-109937500D01*
X110000500Y-109875500D01*
X110000500Y-106499999D01*
X143744531Y-106499999D01*
X143764364Y-106726689D01*
X143823261Y-106946497D01*
X143919432Y-107152735D01*
X144049953Y-107339140D01*
X144210859Y-107500046D01*
X144397264Y-107630567D01*
X144397265Y-107630567D01*
X144397266Y-107630568D01*
X144603504Y-107726739D01*
X144823308Y-107785635D01*
X145050000Y-107805468D01*
X145276692Y-107785635D01*
X145496496Y-107726739D01*
X145702734Y-107630568D01*
X145776344Y-107579026D01*
X146824526Y-107579026D01*
X146897515Y-107630133D01*
X147103673Y-107726266D01*
X147323397Y-107785141D01*
X147550000Y-107804966D01*
X147776602Y-107785141D01*
X147799423Y-107779026D01*
X153774526Y-107779026D01*
X153847515Y-107830133D01*
X154053673Y-107926266D01*
X154273397Y-107985141D01*
X154500000Y-108004966D01*
X154726602Y-107985141D01*
X154946326Y-107926266D01*
X155152480Y-107830134D01*
X155225472Y-107779025D01*
X154500001Y-107053553D01*
X154500000Y-107053553D01*
X153774526Y-107779025D01*
X153774526Y-107779026D01*
X147799423Y-107779026D01*
X147996326Y-107726266D01*
X148202480Y-107630134D01*
X148275472Y-107579025D01*
X147550001Y-106853553D01*
X147550000Y-106853553D01*
X146824526Y-107579025D01*
X146824526Y-107579026D01*
X145776344Y-107579026D01*
X145889139Y-107500047D01*
X146050047Y-107339139D01*
X146180568Y-107152734D01*
X146187893Y-107137023D01*
X146233647Y-107084849D01*
X146300273Y-107065428D01*
X146366899Y-107084847D01*
X146412657Y-107137023D01*
X146419866Y-107152483D01*
X146470972Y-107225471D01*
X146470974Y-107225472D01*
X147196446Y-106500001D01*
X147903553Y-106500001D01*
X148629025Y-107225472D01*
X148680134Y-107152480D01*
X148776266Y-106946326D01*
X148835141Y-106726602D01*
X148837468Y-106700000D01*
X153195033Y-106700000D01*
X153214858Y-106926602D01*
X153273733Y-107146326D01*
X153369866Y-107352484D01*
X153420972Y-107425471D01*
X153420974Y-107425472D01*
X154146446Y-106700001D01*
X154146446Y-106700000D01*
X154146445Y-106699999D01*
X154853553Y-106699999D01*
X155579025Y-107425472D01*
X155630131Y-107352484D01*
X155637340Y-107337026D01*
X155683097Y-107284849D01*
X155749722Y-107265428D01*
X155816348Y-107284847D01*
X155862106Y-107337023D01*
X155869432Y-107352735D01*
X155999953Y-107539140D01*
X156160859Y-107700046D01*
X156347264Y-107830567D01*
X156347265Y-107830567D01*
X156347266Y-107830568D01*
X156553504Y-107926739D01*
X156773308Y-107985635D01*
X157000000Y-108005468D01*
X157226692Y-107985635D01*
X157446496Y-107926739D01*
X157652734Y-107830568D01*
X157839139Y-107700047D01*
X158000047Y-107539139D01*
X158130568Y-107352734D01*
X158226739Y-107146496D01*
X158285635Y-106926692D01*
X158305468Y-106700000D01*
X158285635Y-106473308D01*
X158226739Y-106253504D01*
X158130568Y-106047266D01*
X158079635Y-105974526D01*
X158000046Y-105860859D01*
X157839140Y-105699953D01*
X157652735Y-105569432D01*
X157446497Y-105473261D01*
X157226689Y-105414364D01*
X157000000Y-105394531D01*
X156773310Y-105414364D01*
X156553502Y-105473261D01*
X156347264Y-105569432D01*
X156160859Y-105699953D01*
X155999953Y-105860859D01*
X155869429Y-106047268D01*
X155862104Y-106062978D01*
X155816347Y-106115152D01*
X155749722Y-106134570D01*
X155683098Y-106115150D01*
X155637342Y-106062975D01*
X155630133Y-106047515D01*
X155579025Y-105974526D01*
X154853553Y-106699998D01*
X154853553Y-106699999D01*
X154146445Y-106699999D01*
X153420973Y-105974526D01*
X153420973Y-105974527D01*
X153369865Y-106047516D01*
X153273733Y-106253672D01*
X153214858Y-106473397D01*
X153195033Y-106700000D01*
X148837468Y-106700000D01*
X148854966Y-106500000D01*
X148835141Y-106273397D01*
X148776266Y-106053673D01*
X148680133Y-105847515D01*
X148629025Y-105774526D01*
X147903553Y-106500000D01*
X147903553Y-106500001D01*
X147196446Y-106500001D01*
X147196446Y-106500000D01*
X146470973Y-105774526D01*
X146470973Y-105774527D01*
X146419865Y-105847517D01*
X146412656Y-105862977D01*
X146366899Y-105915151D01*
X146300274Y-105934570D01*
X146233649Y-105915150D01*
X146187893Y-105862975D01*
X146186906Y-105860859D01*
X146180568Y-105847266D01*
X146129635Y-105774526D01*
X146050046Y-105660859D01*
X145889140Y-105499953D01*
X145776344Y-105420973D01*
X146824526Y-105420973D01*
X147550000Y-106146446D01*
X147550001Y-106146446D01*
X148075473Y-105620973D01*
X153774526Y-105620973D01*
X154500000Y-106346446D01*
X154500001Y-106346446D01*
X155225472Y-105620974D01*
X155225471Y-105620972D01*
X155152484Y-105569866D01*
X154946326Y-105473733D01*
X154726602Y-105414858D01*
X154500000Y-105395033D01*
X154273397Y-105414858D01*
X154053672Y-105473733D01*
X153847516Y-105569865D01*
X153774527Y-105620973D01*
X153774526Y-105620973D01*
X148075473Y-105620973D01*
X148275472Y-105420974D01*
X148275471Y-105420972D01*
X148202484Y-105369866D01*
X147996326Y-105273733D01*
X147776602Y-105214858D01*
X147550000Y-105195033D01*
X147323397Y-105214858D01*
X147103672Y-105273733D01*
X146897516Y-105369865D01*
X146824527Y-105420973D01*
X146824526Y-105420973D01*
X145776344Y-105420973D01*
X145702735Y-105369432D01*
X145496497Y-105273261D01*
X145276689Y-105214364D01*
X145050000Y-105194531D01*
X144823310Y-105214364D01*
X144603502Y-105273261D01*
X144397264Y-105369432D01*
X144210859Y-105499953D01*
X144049953Y-105660859D01*
X143919432Y-105847264D01*
X143823261Y-106053502D01*
X143764364Y-106273310D01*
X143744531Y-106499999D01*
X110000500Y-106499999D01*
X110000500Y-98624999D01*
X110944340Y-98624999D01*
X110964936Y-98860407D01*
X110981344Y-98921642D01*
X111026097Y-99088663D01*
X111125965Y-99302830D01*
X111261505Y-99496401D01*
X111428599Y-99663495D01*
X111622170Y-99799035D01*
X111836337Y-99898903D01*
X112064592Y-99960063D01*
X112300000Y-99980659D01*
X112535408Y-99960063D01*
X112763663Y-99898903D01*
X112977830Y-99799035D01*
X113171401Y-99663495D01*
X113338495Y-99496401D01*
X113474035Y-99302830D01*
X113573903Y-99088663D01*
X113635063Y-98860408D01*
X113655659Y-98625000D01*
X113655352Y-98621496D01*
X113635063Y-98389592D01*
X113594801Y-98239331D01*
X113573903Y-98161337D01*
X113474035Y-97947171D01*
X113338495Y-97753599D01*
X113171401Y-97586505D01*
X112985402Y-97456267D01*
X112946539Y-97411951D01*
X112932528Y-97354694D01*
X112946539Y-97297437D01*
X112985405Y-97253119D01*
X113171078Y-97123109D01*
X113338106Y-96956081D01*
X113473600Y-96762576D01*
X113573430Y-96548492D01*
X113630636Y-96335000D01*
X110969364Y-96335000D01*
X111026569Y-96548492D01*
X111126399Y-96762576D01*
X111261893Y-96956081D01*
X111428918Y-97123106D01*
X111614595Y-97253119D01*
X111653460Y-97297437D01*
X111667471Y-97354694D01*
X111653460Y-97411951D01*
X111614595Y-97456269D01*
X111428595Y-97586508D01*
X111261505Y-97753598D01*
X111125965Y-97947170D01*
X111026097Y-98161336D01*
X110964936Y-98389592D01*
X110944340Y-98624999D01*
X110000500Y-98624999D01*
X110000500Y-60124500D01*
X110017113Y-60062500D01*
X110062500Y-60017113D01*
X110124500Y-60000500D01*
X122724833Y-60000500D01*
X122786646Y-60017005D01*
G37*
%TD.AperFunction*%
%TA.AperFunction,Conductor*%
G36*
X125889413Y-83439939D02*
G01*
X125929641Y-83466819D01*
X126164637Y-83701815D01*
X126194647Y-83750447D01*
X126199661Y-83807373D01*
X126178613Y-83860503D01*
X126135974Y-83898551D01*
X125996645Y-83973952D01*
X125966200Y-83997646D01*
X125966200Y-83997647D01*
X127030871Y-85062318D01*
X127062965Y-85117905D01*
X127062965Y-85182093D01*
X127030871Y-85237680D01*
X125966199Y-86302351D01*
X125996650Y-86326051D01*
X126200700Y-86436477D01*
X126420140Y-86511811D01*
X126648993Y-86550000D01*
X126881007Y-86550000D01*
X127109859Y-86511811D01*
X127200237Y-86480785D01*
X127258377Y-86475361D01*
X127312553Y-86497149D01*
X127350751Y-86541315D01*
X127364500Y-86598066D01*
X127364500Y-90317256D01*
X127362235Y-90337762D01*
X127364439Y-90407873D01*
X127364500Y-90411768D01*
X127364500Y-90439349D01*
X127365003Y-90443334D01*
X127365918Y-90454967D01*
X127367290Y-90498626D01*
X127372879Y-90517860D01*
X127376825Y-90536916D01*
X127379335Y-90556792D01*
X127395414Y-90597404D01*
X127399197Y-90608451D01*
X127411382Y-90650391D01*
X127421580Y-90667635D01*
X127430136Y-90685100D01*
X127437514Y-90703732D01*
X127437515Y-90703733D01*
X127463180Y-90739059D01*
X127469593Y-90748822D01*
X127491826Y-90786416D01*
X127491829Y-90786419D01*
X127491830Y-90786420D01*
X127505995Y-90800585D01*
X127518627Y-90815375D01*
X127530406Y-90831587D01*
X127564058Y-90859426D01*
X127572699Y-90867289D01*
X129780586Y-93075177D01*
X129812680Y-93130764D01*
X129812680Y-93194950D01*
X129794364Y-93263307D01*
X129774531Y-93490000D01*
X129794364Y-93716689D01*
X129853261Y-93936497D01*
X129905301Y-94048095D01*
X129916654Y-94108609D01*
X129897500Y-94167125D01*
X129852562Y-94209214D01*
X129792919Y-94224500D01*
X129182744Y-94224500D01*
X129162237Y-94222235D01*
X129092127Y-94224439D01*
X129088232Y-94224500D01*
X129060650Y-94224500D01*
X129056665Y-94225003D01*
X129045033Y-94225918D01*
X129001369Y-94227290D01*
X128982129Y-94232880D01*
X128963081Y-94236825D01*
X128943209Y-94239335D01*
X128902599Y-94255413D01*
X128891554Y-94259194D01*
X128849610Y-94271381D01*
X128832365Y-94281579D01*
X128814904Y-94290133D01*
X128796267Y-94297512D01*
X128760931Y-94323185D01*
X128751174Y-94329595D01*
X128713580Y-94351829D01*
X128699413Y-94365996D01*
X128684624Y-94378626D01*
X128668413Y-94390404D01*
X128640572Y-94424058D01*
X128632711Y-94432697D01*
X128077228Y-94988181D01*
X128037000Y-95015061D01*
X127989547Y-95024500D01*
X121726259Y-95024500D01*
X121675824Y-95013780D01*
X121634110Y-94983473D01*
X121605871Y-94952111D01*
X121452730Y-94840848D01*
X121279802Y-94763855D01*
X121094648Y-94724500D01*
X121094646Y-94724500D01*
X120905354Y-94724500D01*
X120905352Y-94724500D01*
X120720197Y-94763855D01*
X120547269Y-94840848D01*
X120394129Y-94952110D01*
X120267466Y-95092783D01*
X120172820Y-95256715D01*
X120114326Y-95436742D01*
X120094540Y-95625000D01*
X120114326Y-95813257D01*
X120172820Y-95993284D01*
X120267466Y-96157216D01*
X120394129Y-96297889D01*
X120547269Y-96409151D01*
X120720197Y-96486144D01*
X120905352Y-96525500D01*
X120905354Y-96525500D01*
X121094646Y-96525500D01*
X121094648Y-96525500D01*
X121218084Y-96499262D01*
X121279803Y-96486144D01*
X121452730Y-96409151D01*
X121604092Y-96299180D01*
X121638657Y-96281569D01*
X121676975Y-96275500D01*
X128217256Y-96275500D01*
X128237762Y-96277764D01*
X128240665Y-96277672D01*
X128240667Y-96277673D01*
X128307872Y-96275561D01*
X128311768Y-96275500D01*
X128339349Y-96275500D01*
X128339350Y-96275500D01*
X128343319Y-96274998D01*
X128354965Y-96274080D01*
X128398627Y-96272709D01*
X128417859Y-96267120D01*
X128436918Y-96263174D01*
X128443196Y-96262381D01*
X128456792Y-96260664D01*
X128497407Y-96244582D01*
X128508444Y-96240803D01*
X128550390Y-96228618D01*
X128567629Y-96218422D01*
X128585102Y-96209862D01*
X128603732Y-96202486D01*
X128639064Y-96176814D01*
X128648830Y-96170400D01*
X128650622Y-96169340D01*
X128686420Y-96148170D01*
X128700585Y-96134004D01*
X128715373Y-96121373D01*
X128731587Y-96109594D01*
X128759438Y-96075926D01*
X128767279Y-96067309D01*
X129322771Y-95511819D01*
X129363000Y-95484939D01*
X129410453Y-95475500D01*
X129720601Y-95475500D01*
X129775445Y-95488288D01*
X129818977Y-95524014D01*
X129842218Y-95575309D01*
X129840376Y-95631591D01*
X129819060Y-95711144D01*
X129794364Y-95803310D01*
X129774531Y-96029999D01*
X129794364Y-96256690D01*
X129812680Y-96325047D01*
X129812680Y-96389234D01*
X129780586Y-96444821D01*
X129204768Y-97020639D01*
X129162868Y-97048197D01*
X129113480Y-97056906D01*
X129064682Y-97045340D01*
X128856498Y-96948261D01*
X128636689Y-96889364D01*
X128410000Y-96869531D01*
X128183310Y-96889364D01*
X127963502Y-96948261D01*
X127757264Y-97044432D01*
X127570859Y-97174953D01*
X127409953Y-97335859D01*
X127279432Y-97522264D01*
X127183261Y-97728502D01*
X127124364Y-97948310D01*
X127104531Y-98175000D01*
X127124364Y-98401689D01*
X127183261Y-98621497D01*
X127279432Y-98827735D01*
X127409953Y-99014140D01*
X127570859Y-99175046D01*
X127757264Y-99305567D01*
X127757265Y-99305567D01*
X127757266Y-99305568D01*
X127963504Y-99401739D01*
X128183308Y-99460635D01*
X128410000Y-99480468D01*
X128636692Y-99460635D01*
X128856496Y-99401739D01*
X129062734Y-99305568D01*
X129249139Y-99175047D01*
X129410047Y-99014139D01*
X129540568Y-98827734D01*
X129563378Y-98778817D01*
X129601135Y-98732191D01*
X129656362Y-98708749D01*
X129716130Y-98713978D01*
X129766448Y-98746654D01*
X129795535Y-98799128D01*
X129853733Y-99016326D01*
X129949865Y-99222480D01*
X130080341Y-99408819D01*
X130241180Y-99569658D01*
X130427519Y-99700134D01*
X130485865Y-99727342D01*
X130538040Y-99773099D01*
X130557460Y-99839723D01*
X130538041Y-99906348D01*
X130485866Y-99952105D01*
X130427267Y-99979430D01*
X130240859Y-100109953D01*
X130079953Y-100270859D01*
X129949432Y-100457264D01*
X129853261Y-100663502D01*
X129794364Y-100883310D01*
X129774531Y-101109999D01*
X129794364Y-101336690D01*
X129812680Y-101405047D01*
X129812680Y-101469234D01*
X129780586Y-101524821D01*
X129467225Y-101838183D01*
X129427000Y-101865061D01*
X129379547Y-101874500D01*
X119253478Y-101874500D01*
X119189150Y-101856509D01*
X119143489Y-101807757D01*
X119129743Y-101742391D01*
X119151903Y-101679377D01*
X119205567Y-101602735D01*
X119205568Y-101602734D01*
X119301739Y-101396496D01*
X119360635Y-101176692D01*
X119380468Y-100950000D01*
X119360635Y-100723308D01*
X119301739Y-100503504D01*
X119205568Y-100297266D01*
X119193763Y-100280407D01*
X119075046Y-100110859D01*
X118914140Y-99949953D01*
X118753377Y-99837387D01*
X118714511Y-99793069D01*
X118700500Y-99735812D01*
X118700500Y-99254026D01*
X120064526Y-99254026D01*
X120137515Y-99305133D01*
X120343673Y-99401266D01*
X120563397Y-99460141D01*
X120790000Y-99479966D01*
X121016602Y-99460141D01*
X121236326Y-99401266D01*
X121442480Y-99305134D01*
X121515472Y-99254025D01*
X120790001Y-98528553D01*
X120790000Y-98528553D01*
X120064526Y-99254025D01*
X120064526Y-99254026D01*
X118700500Y-99254026D01*
X118700500Y-98175000D01*
X119485033Y-98175000D01*
X119504858Y-98401602D01*
X119563733Y-98621326D01*
X119659866Y-98827484D01*
X119710972Y-98900471D01*
X119710974Y-98900472D01*
X120436446Y-98175001D01*
X121143553Y-98175001D01*
X121869025Y-98900472D01*
X121920134Y-98827480D01*
X122016266Y-98621326D01*
X122075141Y-98401602D01*
X122094966Y-98175000D01*
X122075141Y-97948397D01*
X122016266Y-97728673D01*
X121920133Y-97522515D01*
X121869025Y-97449526D01*
X121143553Y-98175000D01*
X121143553Y-98175001D01*
X120436446Y-98175001D01*
X120436446Y-98175000D01*
X119710973Y-97449526D01*
X119710973Y-97449527D01*
X119659865Y-97522516D01*
X119563733Y-97728672D01*
X119504858Y-97948397D01*
X119485033Y-98175000D01*
X118700500Y-98175000D01*
X118700500Y-97095973D01*
X120064526Y-97095973D01*
X120790000Y-97821446D01*
X120790001Y-97821446D01*
X121515472Y-97095974D01*
X121515471Y-97095972D01*
X121442484Y-97044866D01*
X121236326Y-96948733D01*
X121016602Y-96889858D01*
X120790000Y-96870033D01*
X120563397Y-96889858D01*
X120343672Y-96948733D01*
X120137516Y-97044865D01*
X120064527Y-97095973D01*
X120064526Y-97095973D01*
X118700500Y-97095973D01*
X118700500Y-95635452D01*
X118709939Y-95587999D01*
X118736819Y-95547771D01*
X121122772Y-93161819D01*
X121163000Y-93134939D01*
X121210453Y-93125500D01*
X122685501Y-93125500D01*
X122747501Y-93142113D01*
X122792888Y-93187500D01*
X122809501Y-93249500D01*
X122809501Y-93447872D01*
X122811836Y-93469592D01*
X122815909Y-93507484D01*
X122829902Y-93545000D01*
X122866204Y-93642331D01*
X122952454Y-93757546D01*
X123067669Y-93843796D01*
X123202517Y-93894091D01*
X123262127Y-93900500D01*
X125157872Y-93900499D01*
X125217483Y-93894091D01*
X125352331Y-93843796D01*
X125467546Y-93757546D01*
X125546295Y-93652351D01*
X125951199Y-93652351D01*
X125981650Y-93676051D01*
X126185700Y-93786477D01*
X126405140Y-93861811D01*
X126633993Y-93900000D01*
X126866007Y-93900000D01*
X127094859Y-93861811D01*
X127314296Y-93786478D01*
X127518353Y-93676048D01*
X127548798Y-93652351D01*
X126750000Y-92853553D01*
X125951199Y-93652351D01*
X125546295Y-93652351D01*
X125553796Y-93642331D01*
X125604091Y-93507483D01*
X125610500Y-93447873D01*
X125610499Y-93337304D01*
X125619938Y-93289856D01*
X125646818Y-93249627D01*
X126396447Y-92500001D01*
X126396447Y-92500000D01*
X127103553Y-92500000D01*
X127901186Y-93297634D01*
X127985483Y-93168607D01*
X128078680Y-92956138D01*
X128135638Y-92731217D01*
X128154798Y-92499999D01*
X128135638Y-92268782D01*
X128078680Y-92043860D01*
X127985484Y-91831392D01*
X127901186Y-91702364D01*
X127103553Y-92500000D01*
X126396447Y-92500000D01*
X125646818Y-91750371D01*
X125619938Y-91710143D01*
X125610499Y-91662690D01*
X125610499Y-91552130D01*
X125610499Y-91552127D01*
X125604091Y-91492517D01*
X125553796Y-91357669D01*
X125546294Y-91347647D01*
X125951200Y-91347647D01*
X126750000Y-92146447D01*
X126750001Y-92146447D01*
X127548799Y-91347648D01*
X127548799Y-91347647D01*
X127518349Y-91323948D01*
X127314299Y-91213522D01*
X127094859Y-91138188D01*
X126866007Y-91100000D01*
X126633993Y-91100000D01*
X126405140Y-91138188D01*
X126185703Y-91213521D01*
X125981645Y-91323952D01*
X125951200Y-91347646D01*
X125951200Y-91347647D01*
X125546294Y-91347647D01*
X125467546Y-91242454D01*
X125352331Y-91156204D01*
X125217483Y-91105909D01*
X125157873Y-91099500D01*
X125157869Y-91099500D01*
X123262130Y-91099500D01*
X123202515Y-91105909D01*
X123067669Y-91156204D01*
X122952454Y-91242454D01*
X122866204Y-91357668D01*
X122815909Y-91492516D01*
X122809500Y-91552131D01*
X122809500Y-91750500D01*
X122792887Y-91812500D01*
X122747500Y-91857887D01*
X122685500Y-91874500D01*
X120982740Y-91874500D01*
X120962236Y-91872236D01*
X120892144Y-91874439D01*
X120888250Y-91874500D01*
X120860648Y-91874500D01*
X120856653Y-91875004D01*
X120845029Y-91875918D01*
X120801372Y-91877290D01*
X120782135Y-91882879D01*
X120763094Y-91886822D01*
X120743208Y-91889335D01*
X120702582Y-91905419D01*
X120691537Y-91909200D01*
X120649613Y-91921381D01*
X120632365Y-91931581D01*
X120614903Y-91940135D01*
X120602915Y-91944881D01*
X120596265Y-91947515D01*
X120560926Y-91973189D01*
X120551168Y-91979599D01*
X120513579Y-92001829D01*
X120499410Y-92015998D01*
X120484622Y-92028628D01*
X120468413Y-92040405D01*
X120440572Y-92074058D01*
X120432711Y-92082696D01*
X119523379Y-92992028D01*
X119467791Y-93024122D01*
X119403604Y-93024122D01*
X119348017Y-92992028D01*
X119315923Y-92936440D01*
X119303121Y-92888663D01*
X119301739Y-92883504D01*
X119205568Y-92677266D01*
X119203000Y-92673599D01*
X119075046Y-92490859D01*
X118914140Y-92329953D01*
X118727735Y-92199432D01*
X118521497Y-92103261D01*
X118301689Y-92044364D01*
X118074999Y-92024531D01*
X117848310Y-92044364D01*
X117628502Y-92103261D01*
X117422264Y-92199432D01*
X117235859Y-92329953D01*
X117230376Y-92335436D01*
X117174788Y-92367524D01*
X117110604Y-92367522D01*
X117055020Y-92335429D01*
X115144591Y-90425000D01*
X117019531Y-90425000D01*
X117039364Y-90651689D01*
X117098261Y-90871497D01*
X117194432Y-91077735D01*
X117324953Y-91264140D01*
X117485859Y-91425046D01*
X117672264Y-91555567D01*
X117672265Y-91555567D01*
X117672266Y-91555568D01*
X117878504Y-91651739D01*
X118098308Y-91710635D01*
X118249436Y-91723857D01*
X118324999Y-91730468D01*
X118324999Y-91730467D01*
X118325000Y-91730468D01*
X118551692Y-91710635D01*
X118771496Y-91651739D01*
X118977734Y-91555568D01*
X119164139Y-91425047D01*
X119325047Y-91264139D01*
X119455568Y-91077734D01*
X119551739Y-90871496D01*
X119610635Y-90651692D01*
X119630468Y-90425000D01*
X119610635Y-90198308D01*
X119592318Y-90129947D01*
X119592318Y-90065764D01*
X119624410Y-90010178D01*
X123068657Y-86565931D01*
X123107524Y-86539626D01*
X123153387Y-86529650D01*
X123199671Y-86537434D01*
X123217517Y-86544091D01*
X123277127Y-86550500D01*
X125172872Y-86550499D01*
X125232483Y-86544091D01*
X125367331Y-86493796D01*
X125482546Y-86407546D01*
X125568796Y-86292331D01*
X125619091Y-86157483D01*
X125625500Y-86097873D01*
X125625499Y-85987304D01*
X125634938Y-85939856D01*
X125661818Y-85899627D01*
X126411447Y-85150001D01*
X126411447Y-85150000D01*
X125661818Y-84400371D01*
X125634938Y-84360143D01*
X125625499Y-84312690D01*
X125625499Y-84202130D01*
X125624638Y-84194121D01*
X125619091Y-84142517D01*
X125568796Y-84007669D01*
X125482546Y-83892454D01*
X125367331Y-83806204D01*
X125232483Y-83755909D01*
X125172873Y-83749500D01*
X125172869Y-83749500D01*
X123277130Y-83749500D01*
X123217515Y-83755909D01*
X123082669Y-83806204D01*
X122967454Y-83892454D01*
X122881204Y-84007668D01*
X122830909Y-84142516D01*
X122824500Y-84202131D01*
X122824500Y-84989547D01*
X122815061Y-85037000D01*
X122788181Y-85077228D01*
X118739821Y-89125586D01*
X118684234Y-89157680D01*
X118620047Y-89157680D01*
X118551690Y-89139364D01*
X118324999Y-89119531D01*
X118098310Y-89139364D01*
X117878502Y-89198261D01*
X117672264Y-89294432D01*
X117485859Y-89424953D01*
X117324953Y-89585859D01*
X117194432Y-89772264D01*
X117098261Y-89978502D01*
X117039364Y-90198310D01*
X117019531Y-90425000D01*
X115144591Y-90425000D01*
X113640237Y-88920646D01*
X113608143Y-88865058D01*
X113608143Y-88800872D01*
X113635063Y-88700408D01*
X113655659Y-88465000D01*
X113635063Y-88229592D01*
X113573903Y-88001337D01*
X113474035Y-87787171D01*
X113338495Y-87593599D01*
X113171401Y-87426505D01*
X112985839Y-87296573D01*
X112946975Y-87252257D01*
X112932964Y-87195000D01*
X112946975Y-87137743D01*
X112985839Y-87093426D01*
X113171401Y-86963495D01*
X113338495Y-86796401D01*
X113473653Y-86603374D01*
X113517970Y-86564511D01*
X113575227Y-86550500D01*
X115122256Y-86550500D01*
X115142762Y-86552764D01*
X115145665Y-86552672D01*
X115145667Y-86552673D01*
X115212872Y-86550561D01*
X115216768Y-86550500D01*
X115244349Y-86550500D01*
X115244350Y-86550500D01*
X115248319Y-86549998D01*
X115259965Y-86549080D01*
X115303627Y-86547709D01*
X115322859Y-86542120D01*
X115341918Y-86538174D01*
X115348196Y-86537381D01*
X115361792Y-86535664D01*
X115402407Y-86519582D01*
X115413444Y-86515803D01*
X115455390Y-86503618D01*
X115472629Y-86493422D01*
X115490102Y-86484862D01*
X115508732Y-86477486D01*
X115544064Y-86451814D01*
X115553830Y-86445400D01*
X115591418Y-86423171D01*
X115591417Y-86423171D01*
X115591420Y-86423170D01*
X115605585Y-86409004D01*
X115620373Y-86396373D01*
X115636587Y-86384594D01*
X115664438Y-86350926D01*
X115672279Y-86342309D01*
X117910178Y-84104411D01*
X117965763Y-84072319D01*
X118029951Y-84072319D01*
X118098308Y-84090635D01*
X118249436Y-84103857D01*
X118324999Y-84110468D01*
X118324999Y-84110467D01*
X118325000Y-84110468D01*
X118551692Y-84090635D01*
X118771496Y-84031739D01*
X118977734Y-83935568D01*
X119164139Y-83805047D01*
X119325047Y-83644139D01*
X119437612Y-83483377D01*
X119481931Y-83444511D01*
X119539188Y-83430500D01*
X125841960Y-83430500D01*
X125889413Y-83439939D01*
G37*
%TD.AperFunction*%
%TA.AperFunction,Conductor*%
G36*
X122408944Y-75168491D02*
G01*
X122454606Y-75217242D01*
X122468352Y-75282609D01*
X122449049Y-75337497D01*
X122449451Y-75337685D01*
X122447552Y-75341757D01*
X122446193Y-75345622D01*
X122444866Y-75347516D01*
X122348733Y-75553673D01*
X122289858Y-75773397D01*
X122270033Y-75999999D01*
X122289858Y-76226602D01*
X122348733Y-76446326D01*
X122444866Y-76652484D01*
X122495972Y-76725471D01*
X122495973Y-76725472D01*
X123487318Y-75734127D01*
X123542905Y-75702033D01*
X123607093Y-75702033D01*
X123662680Y-75734127D01*
X124654025Y-76725472D01*
X124705134Y-76652480D01*
X124801266Y-76446326D01*
X124860141Y-76226602D01*
X124879966Y-75999999D01*
X124860141Y-75773397D01*
X124801266Y-75553673D01*
X124705133Y-75347516D01*
X124703807Y-75345622D01*
X124702447Y-75341757D01*
X124700549Y-75337685D01*
X124700950Y-75337497D01*
X124681648Y-75282609D01*
X124695394Y-75217242D01*
X124741056Y-75168491D01*
X124805383Y-75150500D01*
X127914548Y-75150500D01*
X127962001Y-75159939D01*
X128002229Y-75186819D01*
X128909196Y-76093787D01*
X128922096Y-76109888D01*
X128973223Y-76157900D01*
X128976020Y-76160611D01*
X128995529Y-76180120D01*
X128998711Y-76182588D01*
X129007571Y-76190155D01*
X129039418Y-76220062D01*
X129051315Y-76226602D01*
X129056972Y-76229712D01*
X129073236Y-76240396D01*
X129084972Y-76249499D01*
X129089064Y-76252673D01*
X129113909Y-76263424D01*
X129129152Y-76270021D01*
X129139631Y-76275154D01*
X129177908Y-76296197D01*
X129197306Y-76301177D01*
X129215708Y-76307477D01*
X129234104Y-76315438D01*
X129277261Y-76322273D01*
X129288664Y-76324634D01*
X129330981Y-76335500D01*
X129351016Y-76335500D01*
X129370413Y-76337026D01*
X129390196Y-76340160D01*
X129433674Y-76336050D01*
X129445344Y-76335500D01*
X129865812Y-76335500D01*
X129923069Y-76349511D01*
X129967387Y-76388377D01*
X130079953Y-76549140D01*
X130240859Y-76710046D01*
X130305872Y-76755568D01*
X130427266Y-76840568D01*
X130485275Y-76867618D01*
X130537450Y-76913375D01*
X130556869Y-76980000D01*
X130537450Y-77046625D01*
X130485275Y-77092382D01*
X130427263Y-77119433D01*
X130240859Y-77249953D01*
X130079953Y-77410859D01*
X129949433Y-77597263D01*
X129949433Y-77597264D01*
X129949432Y-77597266D01*
X129944469Y-77607907D01*
X129898714Y-77660081D01*
X129832089Y-77679500D01*
X113575226Y-77679500D01*
X113517969Y-77665489D01*
X113473651Y-77626623D01*
X113338495Y-77433599D01*
X113171401Y-77266505D01*
X112985839Y-77136573D01*
X112946975Y-77092257D01*
X112943737Y-77079026D01*
X122849526Y-77079026D01*
X122922515Y-77130133D01*
X123128673Y-77226266D01*
X123348397Y-77285141D01*
X123575000Y-77304966D01*
X123801602Y-77285141D01*
X124021326Y-77226266D01*
X124227480Y-77130134D01*
X124300472Y-77079025D01*
X123574999Y-76353553D01*
X123574998Y-76353553D01*
X122849526Y-77079025D01*
X122849526Y-77079026D01*
X112943737Y-77079026D01*
X112932964Y-77035000D01*
X112946975Y-76977743D01*
X112985839Y-76933426D01*
X113171401Y-76803495D01*
X113338495Y-76636401D01*
X113474035Y-76442830D01*
X113573903Y-76228663D01*
X113635063Y-76000408D01*
X113655659Y-75765000D01*
X113635063Y-75529592D01*
X113608143Y-75429126D01*
X113608143Y-75364939D01*
X113640238Y-75309351D01*
X113642771Y-75306819D01*
X113689050Y-75260540D01*
X113762774Y-75186818D01*
X113803002Y-75159939D01*
X113850454Y-75150500D01*
X122344617Y-75150500D01*
X122408944Y-75168491D01*
G37*
%TD.AperFunction*%
%TD*%
M02*
