M48
; DRILL file {KiCad 7.0.1} date Tue May 23 13:55:00 2023
; FORMAT={-:-/ absolute / inch / decimal}
; #@! TF.CreationDate,2023-05-23T13:55:00-05:00
; #@! TF.GenerationSoftware,Kicad,Pcbnew,7.0.1
; #@! TF.FileFunction,Plated,1,2,PTH
FMAT,2
INCH
; #@! TA.AperFunction,Plated,PTH,ViaDrill
T1C0.0157
; #@! TA.AperFunction,Plated,PTH,ComponentDrill
T2C0.0300
; #@! TA.AperFunction,Plated,PTH,ComponentDrill
T3C0.0315
; #@! TA.AperFunction,Plated,PTH,ComponentDrill
T4C0.0354
; #@! TA.AperFunction,Plated,PTH,ComponentDrill
T5C0.0394
%
G90
G05
T1
X4.7638Y-3.7648
X5.2913Y-3.7343
T2
X4.5955Y-2.4429
X4.6955Y-2.4429
X4.7955Y-2.4429
X4.9301Y-2.437
X4.9301Y-2.5551
X5.0463Y-2.437
X5.0463Y-2.5551
T3
X4.6486Y-3.6744
X4.6486Y-3.9744
X4.6585Y-3.26
X4.6585Y-3.56
X4.7555Y-3.8652
X4.8652Y-2.6921
X4.8652Y-2.9921
X5.0555Y-3.8652
X5.1606Y-2.6807
X5.1606Y-2.7807
X5.1606Y-2.8807
X5.1606Y-2.9807
X5.1606Y-3.0807
X5.1606Y-3.1807
X5.1606Y-3.2807
X5.1606Y-3.3807
X5.1606Y-3.4807
X5.1606Y-3.5807
X5.1606Y-3.6807
X5.1606Y-3.7807
X5.1606Y-3.8807
X5.1606Y-3.9807
X5.4606Y-2.6807
X5.4606Y-2.7807
X5.4606Y-2.8807
X5.4606Y-2.9807
X5.4606Y-3.0807
X5.4606Y-3.1807
X5.4606Y-3.2807
X5.4606Y-3.3807
X5.4606Y-3.4807
X5.4606Y-3.5807
X5.4606Y-3.6807
X5.4606Y-3.7807
X5.4606Y-3.8807
X5.4606Y-3.9807
X5.6407Y-2.9774
X5.6407Y-3.1742
X5.6555Y-2.6211
X5.6555Y-2.8179
X5.7106Y-4.1929
X5.7884Y-3.7508
X5.7884Y-3.8508
X5.7884Y-3.9508
X5.8091Y-4.1929
X5.9085Y-2.6122
X5.9085Y-2.8091
X5.9085Y-2.937
X5.9085Y-3.237
X6.0394Y-3.7461
X6.0394Y-3.9429
X6.0827Y-4.2008
X6.1811Y-4.2008
T4
X4.8902Y-3.6417
X4.8907Y-3.3524
X4.9902Y-3.6417
X4.9907Y-3.3524
X6.1057Y-2.5768
X6.2057Y-2.5768
T5
X4.4213Y-2.7829
X4.4213Y-2.8829
X4.4213Y-2.9829
X4.4213Y-3.0829
X4.4213Y-3.1829
X4.4213Y-3.2829
X4.4213Y-3.3829
X4.4213Y-3.4829
X4.4213Y-3.5829
X4.4213Y-3.6829
X4.4213Y-3.7829
X4.4213Y-3.8829
X4.4242Y-2.4518
X4.4242Y-2.5518
X5.3484Y-2.4606
X5.4484Y-2.4606
X5.5484Y-2.4606
X5.6484Y-2.4606
X5.7484Y-2.4606
X5.8484Y-2.4606
X6.2146Y-2.8388
X6.2146Y-2.9388
X6.2146Y-3.0388
X6.2146Y-3.1388
X6.2146Y-3.2388
X6.2146Y-3.3388
X6.2146Y-3.4388
X6.2146Y-3.5388
X6.2146Y-3.6388
X6.2146Y-3.7388
X6.2146Y-3.8388
X6.2146Y-3.9388
T0
M30
